{
.appVersion = "1286";
DisplayStrings = (
"abcdefghijklmnhopqrsuvwxyz\012onononnoon\012aabacadaeafagahaiajakalamanahaoapaqarasaauavawaxayazahaabbbcbdbebfbgbhbibjbkblbmbnbhbobpbqbrbsbbubvbwbxbybzbhbacbcccdcecfcgchcicjckclcmcnchcocpcqcrcsccucvcwcxcyczchcadbdcdddedfdgdhdidjdkdldmdndhdodpdqdrdsddudvdwdxdydzdhdafbfcfdfefffgfhfifjfkflfmfnfhfofpfqfrfsffu\012fvfwfxfyfzfhfaebecedeeefegeheiejekelemeneheoepeqereseeuevewexeyezeheagbgcgdgegfggghgigjgkglgmgnghgogpgqgrgsggugvgwgx\012gygzghgahbhchdhehfhghhhihjhkhlhmhnhhhohphqhrhshhuhvhwhxhyhzhhaibicidieifigihiiijikiliminihioipiqirisiiuiviwixiyizihiajbjcjdjejfjgjhjijjjkjljmjnjhjojpjqjrjsjjujvjwjxjyjzjhjakbkckdkekfkgkhkikjkkklkmknkhkokpkqkrkskkukvkwkxkykzkhkalblcldlelflglhliljlklllmlnlhlolplqlrlsllulvlwlxlylzlhlambmcmdmemfmgmhmimjmkmlmmmnmhmompmqmrmsmmumvmwmxmymzmhmanbncndnenfngnhninjnknlnmnnnhnonpnqnrnsnnunvnwnxnynznhnaobocodoeofogohoiojokolomonooopoqorosoouovowoxoyozohoapbpcpdpepfpgphpipjpkplpmpnphpopppqprpsppupvpwpxpypzphpaqbqcqdqeqfqgqhqiqjqkqlqmqnqhqoqpqqqrqsqquqvqwqxqyqzqhqarbrcrdrerfrgrhrirjrkrlrmrnrhrorprqrrrsrrurvrwrxryrzrhorasbscsdsesfsgshsisjskslsmsnshsospsqsrssssusvswsxsyszshnsabcdefghijklmnhopqrsuvwxyzhaubucudueufuguhuiujukulumunuhuoupuqurusuuuuvuwuxuyuzuhuavbvcvdvevfvgvhvivjvkvlvmvnvhvovpvqvrvsvvuvvvwvxvyvzvhvawbwcwdwewfwgwhwiwjwkwlwmwnwhwowpwqwrwswwuwvwwwxwywzwhwaxbxcxdxexfxgxhxixjxkxlxmxnxhxoxpxqxrxsxxuxvxwxxxyxzxhxaybycydyeyfygyhyiyjykylymynyhyoypyqyrysyyuyvywyxyyyzyhyazbzczdzezfzgzhzizjzkzlzmznzhzozpzqzrzszzuzvzwzxzyzzz",

glyphs = (
{
glyphname = A;
lastChange = "2020-03-13 10:37:45 +0000";
layers = (
{
anchors = (
{
name = bottom;
position = "{318, 0}";
},
{
name = ogonek;
position = "{576, 10}";
},
{
name = top;
position = "{319, 740}";
}
);
background = {
paths = (
{
closed = 1;
nodes = (
"300 760 LINE",
"280 693 LINE",
"481 60 LINE SMOOTH",
"492 24 OFFCURVE",
"463 9 OFFCURVE",
"414 25 CURVE",
"414 0 LINE",
"655 0 LINE",
"655 25 LINE",
"606 9 OFFCURVE",
"574 24 OFFCURVE",
"563 60 CURVE SMOOTH",
"351 760 LINE"
);
},
{
closed = 1;
nodes = (
"183 325 LINE",
"438 325 LINE",
"438 343 LINE",
"183 343 LINE"
);
},
{
closed = 1;
nodes = (
"189 0 LINE",
"189 25 LINE",
"140 8 OFFCURVE",
"96 12 OFFCURVE",
"109 60 CURVE",
"116 85 LINE SMOOTH",
"179 311 OFFCURVE",
"248 535 OFFCURVE",
"313 760 CURVE",
"293 760 LINE",
"163 333 OFFCURVE",
"218 480 OFFCURVE",
"81 69 CURVE SMOOTH",
"78 60 OFFCURVE",
"74 50 OFFCURVE",
"69 40 CURVE SMOOTH",
"54 10 OFFCURVE",
"19 12 OFFCURVE",
"-20 25 CURVE",
"-20 0 LINE"
);
}
);
};
guideLines = (
{
angle = 90;
position = "{-27, 361}";
},
{
angle = 90;
position = "{655, 348}";
},
{
angle = 90;
position = "{314, 361}";
},
{
position = "{1055, -20}";
},
{
position = "{432, 370}";
},
{
angle = 107;
position = "{448, 440}";
},
{
angle = 252.0506;
position = "{241, 440}";
},
{
position = "{327, 15}";
}
);
layerId = "8BDB995E-2F86-4134-8150-9944A684F6E9";
paths = (
{
closed = 1;
nodes = (
"655 0 LINE",
"655 25 LINE",
"606 8 OFFCURVE",
"578 10 OFFCURVE",
"569 40 CURVE SMOOTH",
"351 760 LINE",
"300 760 LINE",
"280 693 LINE",
"487 40 LINE SMOOTH",
"496 11 OFFCURVE",
"463 8 OFFCURVE",
"414 25 CURVE",
"414 0 LINE"
);
},
{
closed = 1;
nodes = (
"189 0 LINE",
"189 25 LINE",
"140 8 OFFCURVE",
"96 12 OFFCURVE",
"109 60 CURVE SMOOTH",
"116 85 LINE SMOOTH",
"179 311 OFFCURVE",
"248 535 OFFCURVE",
"313 760 CURVE",
"293 760 LINE",
"81 69 LINE SMOOTH",
"78 60 OFFCURVE",
"74 50 OFFCURVE",
"69 40 CURVE SMOOTH",
"54 10 OFFCURVE",
"19 11 OFFCURVE",
"-20 25 CURVE",
"-20 0 LINE"
);
},
{
closed = 1;
nodes = (
"438 325 LINE",
"438 343 LINE",
"183 343 LINE",
"183 325 LINE"
);
}
);
width = 635;
}
);
leftKerningGroup = A;
leftMetricsKey = "=H-60";
rightKerningGroup = A;
rightMetricsKey = "=H-60";
unicode = 0041;
},
{
glyphname = AE;
lastChange = "2020-03-12 02:53:19 +0000";
layers = (
{
layerId = "8BDB995E-2F86-4134-8150-9944A684F6E9";
paths = (
{
closed = 1;
nodes = (
"239 0 LINE",
"239 25 LINE",
"190 8 OFFCURVE",
"138 14 OFFCURVE",
"159 60 CURVE SMOOTH",
"451 711 LINE",
"466 704 OFFCURVE",
"476 694 OFFCURVE",
"476 680 CURVE SMOOTH",
"476 60 LINE SMOOTH",
"476 24 OFFCURVE",
"450 9 OFFCURVE",
"401 25 CURVE",
"401 0 LINE",
"908 0 LINE",
"908 102 LINE SMOOTH",
"908 169 OFFCURVE",
"911 208 OFFCURVE",
"931 226 CURVE",
"917 226 LINE",
"861 136 OFFCURVE",
"922 10 OFFCURVE",
"669 10 CURVE SMOOTH",
"553 10 OFFCURVE",
"553 81 OFFCURVE",
"551 125 CURVE",
"551 407 LINE",
"555 407 LINE SMOOTH",
"713 407 OFFCURVE",
"753 416 OFFCURVE",
"753 380 CURVE SMOOTH",
"753 358 OFFCURVE",
"756 320 OFFCURVE",
"729 320 CURVE",
"729 307 LINE",
"768 307 LINE",
"768 534 LINE",
"729 534 LINE",
"729 521 LINE",
"756 521 OFFCURVE",
"753 483 OFFCURVE",
"753 461 CURVE SMOOTH",
"753 426 OFFCURVE",
"709 427 OFFCURVE",
"689 427 CURVE SMOOTH",
"551 427 LINE",
"551 615 LINE SMOOTH",
"553 659 OFFCURVE",
"547 730 OFFCURVE",
"663 730 CURVE SMOOTH",
"874 730 OFFCURVE",
"821 640 OFFCURVE",
"858 570 CURVE",
"874 570 LINE",
"857 612 OFFCURVE",
"859 677 OFFCURVE",
"863 711 CURVE SMOOTH",
"866 740 LINE",
"357 740 LINE",
"357 715 LINE",
"381 723 OFFCURVE",
"408 726 OFFCURVE",
"424 719 CURVE SMOOTH",
"433 715 OFFCURVE",
"428 704 OFFCURVE",
"424 695 CURVE SMOOTH",
"131 69 LINE SMOOTH",
"125 56 OFFCURVE",
"122 49 OFFCURVE",
"114 40 CURVE SMOOTH",
"99 24 OFFCURVE",
"69 11 OFFCURVE",
"30 25 CURVE",
"30 0 LINE"
);
},
{
closed = 1;
nodes = (
"488 408 LINE",
"488 426 LINE",
"308 426 LINE",
"308 408 LINE"
);
}
);
width = 951;
}
);
leftKerningGroup = A;
rightKerningGroup = E;
rightMetricsKey = "=E";
unicode = 00C6;
},
{
glyphname = B;
lastChange = "2020-03-12 00:02:39 +0000";
layers = (
{
anchors = (
{
name = bottom;
position = "{301, 0}";
},
{
name = top;
position = "{301, 740}";
}
);
layerId = "8BDB995E-2F86-4134-8150-9944A684F6E9";
paths = (
{
closed = 1;
nodes = (
"299 0 LINE SMOOTH",
"428 0 OFFCURVE",
"572 67 OFFCURVE",
"572 237 CURVE SMOOTH",
"572 365 OFFCURVE",
"415 409 OFFCURVE",
"361 413 CURVE SMOOTH",
"358 413 OFFCURVE",
"358 415 OFFCURVE",
"361 415 CURVE SMOOTH",
"415 419 OFFCURVE",
"517 481 OFFCURVE",
"517 574 CURVE SMOOTH",
"517 706 OFFCURVE",
"387 740 OFFCURVE",
"283 740 CURVE SMOOTH",
"40 740 LINE",
"40 715 LINE",
"89 731 OFFCURVE",
"114 716 OFFCURVE",
"115 680 CURVE SMOOTH",
"115 60 LINE SMOOTH",
"114 24 OFFCURVE",
"89 9 OFFCURVE",
"40 25 CURVE",
"40 0 LINE"
);
},
{
closed = 1;
nodes = (
"190 405 LINE",
"324 405 LINE SMOOTH",
"393 405 OFFCURVE",
"491 360 OFFCURVE",
"491 223 CURVE SMOOTH",
"491 109 OFFCURVE",
"421 10 OFFCURVE",
"273 10 CURVE SMOOTH",
"233 10 OFFCURVE",
"190 17 OFFCURVE",
"190 114 CURVE SMOOTH",
"190 722 LINE",
"212 726 OFFCURVE",
"241 730 OFFCURVE",
"285 730 CURVE SMOOTH",
"368 730 OFFCURVE",
"450 683 OFFCURVE",
"448 562 CURVE SMOOTH",
"448 433 OFFCURVE",
"348 425 OFFCURVE",
"324 425 CURVE SMOOTH",
"190 425 LINE"
);
}
);
width = 607;
}
);
leftKerningGroup = H;
leftMetricsKey = "=H";
rightKerningGroup = B;
rightMetricsKey = "=H-5";
unicode = 0042;
},
{
glyphname = Bstroke;
lastChange = "2020-03-11 23:14:50 +0000";
layers = (
{
components = (
{
name = B;
}
);
layerId = "8BDB995E-2F86-4134-8150-9944A684F6E9";
paths = (
{
closed = 1;
nodes = (
"296 226 LINE",
"296 244 LINE",
"41 244 LINE",
"41 226 LINE"
);
}
);
width = 602;
}
);
leftKerningGroup = H;
rightKerningGroup = B;
unicode = 0243;
},
{
glyphname = C;
lastChange = "2020-03-12 18:27:04 +0000";
layers = (
{
anchors = (
{
name = bottom;
position = "{337, 0}";
},
{
name = top;
position = "{369, 740}";
}
);
guideLines = (
{
position = "{402, -20}";
}
);
layerId = "8BDB995E-2F86-4134-8150-9944A684F6E9";
paths = (
{
closed = 1;
nodes = (
"497 -20 OFFCURVE",
"630 56 OFFCURVE",
"630 104 CURVE SMOOTH",
"630 189 OFFCURVE",
"637 241 OFFCURVE",
"659 261 CURVE",
"645 261 LINE",
"615 225 OFFCURVE",
"612 170 OFFCURVE",
"598 133 CURVE SMOOTH",
"564 56 OFFCURVE",
"490 0 OFFCURVE",
"402 0 CURVE SMOOTH",
"219 0 OFFCURVE",
"135 184 OFFCURVE",
"135 374 CURVE SMOOTH",
"135 582 OFFCURVE",
"231 740 OFFCURVE",
"369 740 CURVE SMOOTH",
"506 740 OFFCURVE",
"608 623 OFFCURVE",
"608 520 CURVE",
"629 520 LINE",
"629 743 LINE",
"612 743 LINE",
"597 668 LINE",
"560 718 OFFCURVE",
"449 760 OFFCURVE",
"383 760 CURVE SMOOTH",
"196 760 OFFCURVE",
"50 599 OFFCURVE",
"50 370 CURVE SMOOTH",
"50 160 OFFCURVE",
"207 -20 OFFCURVE",
"380 -20 CURVE SMOOTH"
);
}
);
width = 679;
}
);
leftKerningGroup = O;
leftMetricsKey = "=O";
rightKerningGroup = C;
rightMetricsKey = "=H-20";
unicode = 0043;
},
{
glyphname = D;
lastChange = "2020-03-12 02:53:19 +0000";
layers = (
{
anchors = (
{
name = bottom;
position = "{319, 0}";
},
{
name = center;
position = "{191, 370}";
},
{
name = top;
position = "{334, 740}";
}
);
layerId = "8BDB995E-2F86-4134-8150-9944A684F6E9";
paths = (
{
closed = 1;
nodes = (
"178 0 LINE",
"281 0 LINE",
"349 0 LINE SMOOTH",
"522 0 OFFCURVE",
"664 180 OFFCURVE",
"664 390 CURVE SMOOTH",
"664 600 OFFCURVE",
"522 740 OFFCURVE",
"349 740 CURVE SMOOTH",
"40 740 LINE",
"40 715 LINE",
"89 731 OFFCURVE",
"115 716 OFFCURVE",
"115 680 CURVE SMOOTH",
"115 60 LINE SMOOTH",
"115 24 OFFCURVE",
"89 9 OFFCURVE",
"40 25 CURVE",
"40 0 LINE"
);
},
{
closed = 1;
nodes = (
"219 17 OFFCURVE",
"190 25 OFFCURVE",
"190 60 CURVE SMOOTH",
"190 680 LINE SMOOTH",
"190 715 OFFCURVE",
"219 724 OFFCURVE",
"237 724 CURVE SMOOTH",
"327 724 LINE SMOOTH",
"465 724 OFFCURVE",
"585 564 OFFCURVE",
"585 374 CURVE SMOOTH",
"585 117 OFFCURVE",
"430 17 OFFCURVE",
"327 17 CURVE SMOOTH",
"237 17 LINE SMOOTH"
);
}
);
width = 704;
}
);
leftKerningGroup = H;
leftMetricsKey = "=H";
rightKerningGroup = O;
rightMetricsKey = "=O-10";
unicode = 0044;
},
{
glyphname = Eth;
lastChange = "2020-03-12 02:53:19 +0000";
layers = (
{
layerId = "8BDB995E-2F86-4134-8150-9944A684F6E9";
paths = (
{
closed = 1;
nodes = (
"182 0 LINE",
"285 0 LINE",
"353 0 LINE SMOOTH",
"526 0 OFFCURVE",
"668 180 OFFCURVE",
"668 390 CURVE SMOOTH",
"668 600 OFFCURVE",
"526 740 OFFCURVE",
"353 740 CURVE SMOOTH",
"44 740 LINE",
"44 715 LINE",
"93 731 OFFCURVE",
"119 716 OFFCURVE",
"119 680 CURVE SMOOTH",
"119 60 LINE SMOOTH",
"119 24 OFFCURVE",
"93 9 OFFCURVE",
"44 25 CURVE",
"44 0 LINE"
);
},
{
closed = 1;
nodes = (
"53 414 LINE",
"53 431 OFFCURVE",
"66 436 OFFCURVE",
"92 438 CURVE",
"248 438 LINE SMOOTH",
"268 437 OFFCURVE",
"288 434 OFFCURVE",
"288 414 CURVE",
"301 414 LINE",
"301 477 LINE",
"288 477 LINE",
"288 457 OFFCURVE",
"268 453 OFFCURVE",
"248 453 CURVE SMOOTH",
"194 453 LINE",
"96 453 LINE SMOOTH",
"66 454 OFFCURVE",
"53 460 OFFCURVE",
"53 477 CURVE",
"40 477 LINE",
"40 414 LINE"
);
},
{
closed = 1;
nodes = (
"223 17 OFFCURVE",
"194 25 OFFCURVE",
"194 60 CURVE SMOOTH",
"194 680 LINE SMOOTH",
"194 715 OFFCURVE",
"223 724 OFFCURVE",
"241 724 CURVE SMOOTH",
"331 724 LINE SMOOTH",
"469 724 OFFCURVE",
"589 564 OFFCURVE",
"589 374 CURVE SMOOTH",
"589 117 OFFCURVE",
"434 17 OFFCURVE",
"331 17 CURVE SMOOTH",
"241 17 LINE SMOOTH"
);
}
);
width = 708;
}
);
leftKerningGroup = H;
leftMetricsKey = "=D";
rightKerningGroup = O;
rightMetricsKey = "=D";
unicode = 00D0;
},
{
glyphname = E;
lastChange = "2020-03-12 02:53:19 +0000";
layers = (
{
anchors = (
{
name = bottom;
position = "{314, 0}";
},
{
name = ogonek;
position = "{537, 0}";
},
{
name = top;
position = "{286, 740}";
},
{
name = topleft;
position = "{462, 740}";
}
);
guideLines = (
{
position = "{330, 730}";
},
{
angle = 90;
position = "{407, 248}";
}
);
layerId = "8BDB995E-2F86-4134-8150-9944A684F6E9";
paths = (
{
closed = 1;
nodes = (
"547 0 LINE",
"547 102 LINE SMOOTH",
"547 169 OFFCURVE",
"550 208 OFFCURVE",
"570 226 CURVE",
"556 226 LINE",
"500 136 OFFCURVE",
"561 10 OFFCURVE",
"308 10 CURVE SMOOTH",
"192 10 OFFCURVE",
"192 81 OFFCURVE",
"190 125 CURVE",
"190 615 LINE",
"192 659 OFFCURVE",
"186 730 OFFCURVE",
"302 730 CURVE SMOOTH",
"513 730 OFFCURVE",
"460 640 OFFCURVE",
"497 570 CURVE",
"513 570 LINE",
"496 612 OFFCURVE",
"498 677 OFFCURVE",
"502 711 CURVE SMOOTH",
"505 740 LINE",
"40 740 LINE",
"40 715 LINE",
"89 731 OFFCURVE",
"115 716 OFFCURVE",
"115 680 CURVE SMOOTH",
"115 60 LINE SMOOTH",
"115 24 OFFCURVE",
"89 9 OFFCURVE",
"40 25 CURVE",
"40 0 LINE"
);
},
{
closed = 1;
nodes = (
"407 300 LINE",
"407 532 LINE",
"368 532 LINE",
"368 519 LINE",
"395 519 OFFCURVE",
"392 481 OFFCURVE",
"392 459 CURVE SMOOTH",
"392 424 OFFCURVE",
"376 425 OFFCURVE",
"328 425 CURVE SMOOTH",
"185 425 LINE",
"185 406 LINE",
"328 406 LINE SMOOTH",
"376 405 OFFCURVE",
"392 400 OFFCURVE",
"392 378 CURVE SMOOTH",
"392 356 OFFCURVE",
"395 314 OFFCURVE",
"368 314 CURVE",
"368 300 LINE"
);
}
);
width = 590;
}
);
leftKerningGroup = H;
leftMetricsKey = "=H";
rightKerningGroup = E;
rightMetricsKey = "=H-20";
unicode = 0045;
},
{
glyphname = F;
lastChange = "2020-03-12 02:53:19 +0000";
layers = (
{
guideLines = (
{
angle = 90;
position = "{382, 356}";
}
);
layerId = "8BDB995E-2F86-4134-8150-9944A684F6E9";
paths = (
{
closed = 1;
nodes = (
"265 0 LINE",
"265 25 LINE",
"216 9 OFFCURVE",
"190 24 OFFCURVE",
"190 60 CURVE SMOOTH",
"190 680 LINE SMOOTH",
"190 685 OFFCURVE",
"191 689 OFFCURVE",
"193 694 CURVE",
"207 715 OFFCURVE",
"235 730 OFFCURVE",
"289 730 CURVE SMOOTH",
"500 730 OFFCURVE",
"447 640 OFFCURVE",
"484 570 CURVE",
"500 570 LINE",
"483 612 OFFCURVE",
"485 677 OFFCURVE",
"489 711 CURVE SMOOTH",
"492 740 LINE",
"40 740 LINE",
"40 715 LINE",
"89 731 OFFCURVE",
"115 716 OFFCURVE",
"115 680 CURVE SMOOTH",
"115 60 LINE SMOOTH",
"115 24 OFFCURVE",
"89 9 OFFCURVE",
"40 25 CURVE",
"40 0 LINE"
);
},
{
closed = 1;
nodes = (
"382 300 LINE",
"382 532 LINE",
"343 532 LINE",
"343 519 LINE",
"370 519 OFFCURVE",
"367 481 OFFCURVE",
"367 459 CURVE SMOOTH",
"367 424 OFFCURVE",
"351 425 OFFCURVE",
"303 425 CURVE SMOOTH",
"160 425 LINE",
"160 406 LINE",
"303 406 LINE SMOOTH",
"351 406 OFFCURVE",
"367 400 OFFCURVE",
"367 378 CURVE SMOOTH",
"367 356 OFFCURVE",
"370 314 OFFCURVE",
"343 314 CURVE",
"343 300 LINE"
);
}
);
width = 520;
}
);
leftKerningGroup = H;
leftMetricsKey = "=H";
rightKerningGroup = F;
rightMetricsKey = "=H-20";
unicode = 0046;
},
{
glyphname = G;
lastChange = "2020-03-12 02:53:19 +0000";
layers = (
{
anchors = (
{
name = bottom;
position = "{355, 0}";
},
{
name = top;
position = "{375, 740}";
}
);
guideLines = (
{
position = "{741, 760}";
},
{
angle = 90;
position = "{212, 402}";
},
{
position = "{914, -20}";
}
);
layerId = "8BDB995E-2F86-4134-8150-9944A684F6E9";
paths = (
{
closed = 1;
nodes = (
"483 -20 OFFCURVE",
"575 63 OFFCURVE",
"615 84 CURVE SMOOTH",
"630 92 OFFCURVE",
"644 98 OFFCURVE",
"659 98 CURVE",
"659 345 LINE",
"390 345 LINE",
"390 212 LINE",
"429 212 LINE",
"429 225 LINE",
"402 227 OFFCURVE",
"407 264 OFFCURVE",
"407 298 CURVE SMOOTH",
"407 323 OFFCURVE",
"417 326 OFFCURVE",
"489 326 CURVE SMOOTH",
"513 326 OFFCURVE",
"538 325 OFFCURVE",
"562 325 CURVE SMOOTH",
"588 325 OFFCURVE",
"593 284 OFFCURVE",
"593 232 CURVE SMOOTH",
"593 128 OFFCURVE",
"525 0 OFFCURVE",
"390 0 CURVE SMOOTH",
"204 0 OFFCURVE",
"135 184 OFFCURVE",
"135 374 CURVE SMOOTH",
"135 563 OFFCURVE",
"222 740 OFFCURVE",
"366 740 CURVE SMOOTH",
"528 740 OFFCURVE",
"600 623 OFFCURVE",
"600 520 CURVE",
"632 520 LINE",
"632 743 LINE",
"615 743 LINE",
"600 645 LINE",
"563 695 OFFCURVE",
"473 760 OFFCURVE",
"376 760 CURVE SMOOTH",
"182 760 OFFCURVE",
"50 581 OFFCURVE",
"50 370 CURVE SMOOTH",
"50 160 OFFCURVE",
"195 -20 OFFCURVE",
"385 -20 CURVE SMOOTH"
);
}
);
width = 709;
}
);
leftKerningGroup = O;
leftMetricsKey = "=O";
rightKerningGroup = G;
rightMetricsKey = "=O";
unicode = 0047;
},
{
glyphname = H;
lastChange = "2020-03-12 00:00:51 +0000";
layers = (
{
anchors = (
{
name = bottom;
position = "{376, 0}";
},
{
name = center;
position = "{376, 370}";
},
{
name = top;
position = "{376, 740}";
},
{
name = topleft;
position = "{20, 740}";
}
);
guideLines = (
{
position = "{580, 0}";
},
{
position = "{240, 712}";
}
);
layerId = "8BDB995E-2F86-4134-8150-9944A684F6E9";
paths = (
{
closed = 1;
nodes = (
"711 0 LINE",
"711 25 LINE",
"662 9 OFFCURVE",
"636 24 OFFCURVE",
"636 60 CURVE SMOOTH",
"636 680 LINE SMOOTH",
"636 716 OFFCURVE",
"662 731 OFFCURVE",
"711 715 CURVE",
"711 740 LINE",
"486 740 LINE",
"486 715 LINE",
"535 731 OFFCURVE",
"561 716 OFFCURVE",
"561 680 CURVE SMOOTH",
"561 60 LINE SMOOTH",
"561 24 OFFCURVE",
"535 9 OFFCURVE",
"486 25 CURVE",
"486 0 LINE"
);
},
{
closed = 1;
nodes = (
"265 0 LINE",
"265 25 LINE",
"216 10 OFFCURVE",
"190 24 OFFCURVE",
"190 60 CURVE SMOOTH",
"190 680 LINE SMOOTH",
"190 716 OFFCURVE",
"216 731 OFFCURVE",
"265 715 CURVE",
"265 740 LINE",
"40 740 LINE",
"40 715 LINE",
"89 731 OFFCURVE",
"115 716 OFFCURVE",
"115 680 CURVE SMOOTH",
"115 60 LINE SMOOTH",
"115 24 OFFCURVE",
"89 9 OFFCURVE",
"40 25 CURVE",
"40 0 LINE"
);
},
{
closed = 1;
nodes = (
"185 403 LINE",
"585 403 LINE",
"585 423 LINE",
"186 423 LINE"
);
}
);
width = 751;
}
);
leftKerningGroup = H;
rightKerningGroup = H;
unicode = 0048;
},
{
glyphname = Hbar;
lastChange = "2020-03-11 23:15:37 +0000";
layers = (
{
layerId = "8BDB995E-2F86-4134-8150-9944A684F6E9";
paths = (
{
closed = 1;
nodes = (
"711 0 LINE",
"711 25 LINE",
"662 9 OFFCURVE",
"636 24 OFFCURVE",
"636 60 CURVE SMOOTH",
"636 680 LINE SMOOTH",
"636 716 OFFCURVE",
"662 731 OFFCURVE",
"711 715 CURVE",
"711 740 LINE",
"486 740 LINE",
"486 715 LINE",
"535 731 OFFCURVE",
"561 716 OFFCURVE",
"561 680 CURVE SMOOTH",
"561 60 LINE SMOOTH",
"561 24 OFFCURVE",
"535 9 OFFCURVE",
"486 25 CURVE",
"486 0 LINE"
);
},
{
closed = 1;
nodes = (
"265 0 LINE",
"265 25 LINE",
"216 9 OFFCURVE",
"190 24 OFFCURVE",
"190 60 CURVE SMOOTH",
"190 680 LINE SMOOTH",
"190 716 OFFCURVE",
"216 731 OFFCURVE",
"265 715 CURVE",
"265 740 LINE",
"40 740 LINE",
"40 715 LINE",
"89 731 OFFCURVE",
"115 716 OFFCURVE",
"115 680 CURVE SMOOTH",
"115 60 LINE SMOOTH",
"115 24 OFFCURVE",
"89 9 OFFCURVE",
"40 25 CURVE",
"40 0 LINE"
);
},
{
closed = 1;
nodes = (
"568 355 LINE",
"568 375 LINE",
"179 375 LINE",
"179 355 LINE"
);
},
{
closed = 1;
nodes = (
"677 516 LINE",
"677 536 LINE",
"70 536 LINE",
"70 516 LINE"
);
}
);
width = 751;
}
);
leftKerningGroup = H;
rightKerningGroup = H;
unicode = 0126;
},
{
glyphname = I;
lastChange = "2020-03-11 23:17:45 +0000";
layers = (
{
anchors = (
{
name = bottom;
position = "{153, 0}";
},
{
name = ogonek;
position = "{271, 10}";
},
{
name = top;
position = "{150, 740}";
},
{
name = topleft;
position = "{265, 740}";
}
);
layerId = "8BDB995E-2F86-4134-8150-9944A684F6E9";
paths = (
{
closed = 1;
nodes = (
"265 0 LINE",
"265 25 LINE",
"216 9 OFFCURVE",
"190 24 OFFCURVE",
"190 60 CURVE SMOOTH",
"190 680 LINE SMOOTH",
"190 716 OFFCURVE",
"216 731 OFFCURVE",
"265 715 CURVE",
"265 740 LINE",
"40 740 LINE",
"40 715 LINE",
"89 731 OFFCURVE",
"115 716 OFFCURVE",
"115 680 CURVE SMOOTH",
"115 60 LINE SMOOTH",
"115 24 OFFCURVE",
"89 9 OFFCURVE",
"40 25 CURVE",
"40 0 LINE"
);
}
);
width = 305;
}
);
leftKerningGroup = H;
leftMetricsKey = "=H";
rightKerningGroup = H;
rightMetricsKey = "=H";
unicode = 0049;
},
{
glyphname = J;
lastChange = "2020-03-12 18:58:26 +0000";
layers = (
{
anchors = (
{
name = bottom;
position = "{155, 0}";
},
{
name = top;
position = "{155, 740}";
}
);
guideLines = (
{
position = "{961, -265}";
},
{
position = "{202, -20}";
}
);
layerId = "8BDB995E-2F86-4134-8150-9944A684F6E9";
paths = (
{
closed = 1;
nodes = (
"137 -20 OFFCURVE",
"218 19 OFFCURVE",
"218 112 CURVE SMOOTH",
"218 230 LINE",
"214 680 LINE SMOOTH",
"214 716 OFFCURVE",
"240 731 OFFCURVE",
"289 715 CURVE",
"289 740 LINE",
"64 740 LINE",
"64 715 LINE",
"113 731 OFFCURVE",
"139 716 OFFCURVE",
"139 680 CURVE SMOOTH",
"143 214 LINE",
"143 112 LINE SMOOTH",
"143 19 OFFCURVE",
"124 -9 OFFCURVE",
"89 -9 CURVE SMOOTH",
"35 -9 OFFCURVE",
"78 63 OFFCURVE",
"78 107 CURVE SMOOTH",
"78 157 OFFCURVE",
"24 178 OFFCURVE",
"-10 178 CURVE",
"-10 166 LINE",
"82 166 OFFCURVE",
"3 103 OFFCURVE",
"3 59 CURVE SMOOTH",
"3 16 OFFCURVE",
"34 -20 OFFCURVE",
"78 -20 CURVE SMOOTH"
);
}
);
width = 329;
}
);
leftKerningGroup = J;
leftMetricsKey = "=H-50";
rightKerningGroup = J;
rightMetricsKey = "=H";
unicode = 004A;
},
{
glyphname = K;
lastChange = "2020-03-11 23:18:04 +0000";
layers = (
{
anchors = (
{
name = bottom;
position = "{322, 0}";
},
{
name = top;
position = "{322, 740}";
}
);
guideLines = (
{
position = "{1013, 370}";
},
{
angle = 90;
position = "{663, 581}";
},
{
angle = 90;
position = "{31, 490}";
},
{
angle = 115;
position = "{404, 417}";
},
{
position = "{474, 505}";
}
);
layerId = "8BDB995E-2F86-4134-8150-9944A684F6E9";
paths = (
{
closed = 1;
nodes = (
"684 0 LINE",
"684 25 LINE",
"635 9 OFFCURVE",
"615 22 OFFCURVE",
"592 60 CURVE SMOOTH",
"334 489 LINE",
"275 440 LINE",
"510 60 LINE SMOOTH",
"531 26 OFFCURVE",
"492 9 OFFCURVE",
"443 25 CURVE",
"443 0 LINE"
);
},
{
closed = 1;
nodes = (
"265 0 LINE",
"265 25 LINE",
"216 9 OFFCURVE",
"190 24 OFFCURVE",
"190 60 CURVE SMOOTH",
"190 680 LINE SMOOTH",
"190 716 OFFCURVE",
"216 731 OFFCURVE",
"265 715 CURVE",
"265 740 LINE",
"40 740 LINE",
"40 715 LINE",
"89 731 OFFCURVE",
"115 716 OFFCURVE",
"115 680 CURVE SMOOTH",
"115 60 LINE SMOOTH",
"115 24 OFFCURVE",
"89 9 OFFCURVE",
"40 25 CURVE",
"40 0 LINE"
);
},
{
closed = 1;
nodes = (
"184 322 LINE",
"517 684 LINE",
"547 714 OFFCURVE",
"588 728 OFFCURVE",
"627 715 CURVE",
"627 740 LINE",
"426 740 LINE",
"426 715 LINE",
"476 733 OFFCURVE",
"498 705 OFFCURVE",
"476 680 CURVE SMOOTH",
"159 322 LINE"
);
}
);
width = 644;
}
);
leftKerningGroup = H;
leftMetricsKey = "=H";
rightKerningGroup = K;
rightMetricsKey = "=H-80";
unicode = 004B;
},
{
glyphname = L;
lastChange = "2020-03-12 02:53:19 +0000";
layers = (
{
anchors = (
{
name = bottom;
position = "{305, 0}";
},
{
name = center;
position = "{248, 370}";
},
{
name = top;
position = "{149, 740}";
},
{
name = topright;
position = "{470, 740}";
}
);
guideLines = (
{
position = "{546, 226}";
}
);
layerId = "8BDB995E-2F86-4134-8150-9944A684F6E9";
paths = (
{
closed = 1;
nodes = (
"439 0 LINE",
"439 102 LINE SMOOTH",
"439 169 OFFCURVE",
"442 208 OFFCURVE",
"462 226 CURVE",
"443 226 LINE",
"387 136 OFFCURVE",
"459 10 OFFCURVE",
"280 10 CURVE SMOOTH",
"211 10 OFFCURVE",
"190 50 OFFCURVE",
"190 125 CURVE SMOOTH",
"190 716 LINE",
"115 716 LINE",
"115 60 LINE SMOOTH",
"115 24 OFFCURVE",
"89 9 OFFCURVE",
"40 25 CURVE",
"40 0 LINE"
);
},
{
closed = 1;
nodes = (
"153 690 LINE",
"190 680 LINE",
"190 716 OFFCURVE",
"216 731 OFFCURVE",
"265 715 CURVE",
"265 740 LINE",
"40 740 LINE",
"40 715 LINE",
"89 731 OFFCURVE",
"115 716 OFFCURVE",
"115 680 CURVE"
);
}
);
width = 462;
}
);
leftKerningGroup = H;
leftMetricsKey = "=H";
rightKerningGroup = L;
rightMetricsKey = "=0";
unicode = 004C;
},
{
glyphname = Lslash;
lastChange = "2020-03-11 23:18:15 +0000";
layers = (
{
components = (
{
name = L;
transform = "{1, 0, 0, 1, 16, 0}";
}
);
layerId = "8BDB995E-2F86-4134-8150-9944A684F6E9";
paths = (
{
closed = 1;
nodes = (
"399 496 LINE",
"399 535 LINE",
"40 369 LINE",
"40 328 LINE"
);
}
);
width = 581;
}
);
leftKerningGroup = H;
rightKerningGroup = L;
unicode = 0141;
},
{
glyphname = M;
lastChange = "2020-03-11 23:18:31 +0000";
layers = (
{
anchors = (
{
name = bottom;
position = "{425, 0}";
},
{
name = top;
position = "{425, 740}";
}
);
guideLines = (
{
position = "{534, -20}";
}
);
layerId = "8BDB995E-2F86-4134-8150-9944A684F6E9";
paths = (
{
closed = 1;
nodes = (
"414 -20 LINE",
"445 73 LINE",
"175 740 LINE",
"89 740 LINE",
"399 -20 LINE"
);
},
{
closed = 1;
nodes = (
"236 0 LINE",
"236 25 LINE",
"187 9 OFFCURVE",
"132 24 OFFCURVE",
"132 60 CURVE SMOOTH",
"131 740 LINE",
"20 740 LINE",
"20 715 LINE",
"69 731 OFFCURVE",
"109 716 OFFCURVE",
"109 680 CURVE SMOOTH",
"109 60 LINE SMOOTH",
"109 24 OFFCURVE",
"60 9 OFFCURVE",
"10 25 CURVE",
"10 0 LINE"
);
},
{
closed = 1;
nodes = (
"236 0 LINE",
"236 25 LINE",
"187 9 OFFCURVE",
"132 24 OFFCURVE",
"132 60 CURVE SMOOTH",
"131 740 LINE",
"20 740 LINE",
"20 715 LINE",
"69 731 OFFCURVE",
"109 716 OFFCURVE",
"109 680 CURVE SMOOTH",
"109 60 LINE SMOOTH",
"109 24 OFFCURVE",
"60 9 OFFCURVE",
"10 25 CURVE",
"10 0 LINE"
);
},
{
closed = 1;
nodes = (
"810 0 LINE",
"810 25 LINE",
"761 9 OFFCURVE",
"735 24 OFFCURVE",
"735 60 CURVE",
"698 50 LINE",
"660 60 LINE",
"660 24 OFFCURVE",
"634 9 OFFCURVE",
"585 25 CURVE",
"585 0 LINE"
);
},
{
closed = 1;
nodes = (
"660 701 LINE",
"660 740 LINE",
"640 740 LINE",
"396 -12 LINE",
"414 -20 LINE"
);
},
{
closed = 1;
nodes = (
"735 0 LINE",
"735 740 LINE",
"660 740 LINE",
"660 0 LINE"
);
},
{
closed = 1;
nodes = (
"735 716 OFFCURVE",
"761 731 OFFCURVE",
"810 715 CURVE",
"810 740 LINE",
"700 740 LINE",
"700 690 LINE",
"735 680 LINE"
);
}
);
width = 850;
}
);
leftKerningGroup = M;
leftMetricsKey = "=H-30";
rightKerningGroup = H;
rightMetricsKey = "=H";
unicode = 004D;
},
{
glyphname = N;
lastChange = "2020-03-12 18:27:45 +0000";
layers = (
{
anchors = (
{
name = bottom;
position = "{347, 0}";
},
{
name = top;
position = "{347, 740}";
}
);
guideLines = (
{
position = "{526, -20}";
},
{
angle = 90;
position = "{10, 728}";
},
{
position = "{350, -6}";
}
);
layerId = "8BDB995E-2F86-4134-8150-9944A684F6E9";
paths = (
{
closed = 1;
nodes = (
"588 -20 LINE",
"588 102 LINE",
"167 740 LINE",
"76 740 LINE",
"565 -20 LINE"
);
},
{
closed = 1;
nodes = (
"228 0 LINE",
"228 25 LINE",
"179 9 OFFCURVE",
"124 24 OFFCURVE",
"124 60 CURVE SMOOTH",
"123 740 LINE",
"10 740 LINE",
"10 715 LINE",
"59 731 OFFCURVE",
"101 716 OFFCURVE",
"101 680 CURVE SMOOTH",
"101 60 LINE SMOOTH",
"101 24 OFFCURVE",
"60 9 OFFCURVE",
"10 25 CURVE",
"10 0 LINE"
);
},
{
closed = 1;
nodes = (
"588 -20 LINE",
"588 681 LINE SMOOTH",
"588 717 OFFCURVE",
"633 732 OFFCURVE",
"682 716 CURVE",
"682 741 LINE",
"466 741 LINE",
"466 716 LINE",
"515 732 OFFCURVE",
"565 717 OFFCURVE",
"565 681 CURVE SMOOTH",
"565 -20 LINE"
);
}
);
width = 702;
}
);
leftKerningGroup = M;
leftMetricsKey = "=H-30";
rightKerningGroup = N;
rightMetricsKey = "=H-20";
unicode = 004E;
},
{
glyphname = Eng;
lastChange = "2020-03-11 23:18:35 +0000";
layers = (
{
layerId = "8BDB995E-2F86-4134-8150-9944A684F6E9";
paths = (
{
closed = 1;
nodes = (
"588 -20 LINE",
"588 102 LINE",
"167 740 LINE",
"76 740 LINE",
"565 -20 LINE"
);
},
{
closed = 1;
nodes = (
"555 -265 OFFCURVE",
"588 -226 OFFCURVE",
"588 -133 CURVE SMOOTH",
"588 65 LINE",
"565 65 LINE",
"565 -133 LINE SMOOTH",
"565 -226 OFFCURVE",
"542 -254 OFFCURVE",
"507 -254 CURVE SMOOTH",
"453 -254 OFFCURVE",
"496 -182 OFFCURVE",
"496 -138 CURVE SMOOTH",
"496 -88 OFFCURVE",
"442 -67 OFFCURVE",
"408 -67 CURVE",
"408 -79 LINE",
"500 -79 OFFCURVE",
"421 -142 OFFCURVE",
"421 -186 CURVE SMOOTH",
"421 -229 OFFCURVE",
"452 -265 OFFCURVE",
"496 -265 CURVE SMOOTH"
);
},
{
closed = 1;
nodes = (
"228 0 LINE",
"228 25 LINE",
"179 9 OFFCURVE",
"124 24 OFFCURVE",
"124 60 CURVE SMOOTH",
"123 740 LINE",
"10 740 LINE",
"10 715 LINE",
"59 731 OFFCURVE",
"101 716 OFFCURVE",
"101 680 CURVE SMOOTH",
"101 60 LINE SMOOTH",
"101 24 OFFCURVE",
"60 9 OFFCURVE",
"10 25 CURVE",
"10 0 LINE"
);
},
{
closed = 1;
nodes = (
"588 -20 LINE",
"588 681 LINE SMOOTH",
"588 717 OFFCURVE",
"633 732 OFFCURVE",
"682 716 CURVE",
"682 741 LINE",
"466 741 LINE",
"466 716 LINE",
"515 732 OFFCURVE",
"565 717 OFFCURVE",
"565 681 CURVE SMOOTH",
"565 -20 LINE"
);
}
);
width = 702;
}
);
leftKerningGroup = M;
leftMetricsKey = "=N";
rightKerningGroup = N;
rightMetricsKey = "=N";
unicode = 014A;
},
{
glyphname = O;
lastChange = "2020-03-12 18:58:39 +0000";
layers = (
{
anchors = (
{
name = bottom;
position = "{370, 0}";
},
{
name = center;
position = "{370, 370}";
},
{
name = ogonek;
position = "{666, 10}";
},
{
name = top;
position = "{367, 740}";
},
{
name = topleft;
position = "{20, 740}";
},
{
name = topright;
position = "{557, 740}";
}
);
guideLines = (
{
position = "{839, -20}";
},
{
position = "{1198, 760}";
},
{
position = "{366, -16}";
},
{
angle = 90;
position = "{367, 755}";
}
);
layerId = "8BDB995E-2F86-4134-8150-9944A684F6E9";
paths = (
{
closed = 1;
nodes = (
"589 -20 OFFCURVE",
"690 164 OFFCURVE",
"690 375 CURVE SMOOTH",
"690 542 OFFCURVE",
"608 760 OFFCURVE",
"367 760 CURVE SMOOTH",
"127 760 OFFCURVE",
"49 524 OFFCURVE",
"50 375 CURVE SMOOTH",
"51 164 OFFCURVE",
"167 -20 OFFCURVE",
"377 -20 CURVE SMOOTH"
);
},
{
closed = 1;
nodes = (
"207 0 OFFCURVE",
"132 175 OFFCURVE",
"135 375 CURVE SMOOTH",
"137 518 OFFCURVE",
"197 740 OFFCURVE",
"367 740 CURVE SMOOTH",
"537 740 OFFCURVE",
"605 534 OFFCURVE",
"606 375 CURVE SMOOTH",
"607 175 OFFCURVE",
"550 0 OFFCURVE",
"377 0 CURVE SMOOTH"
);
}
);
width = 740;
}
);
leftKerningGroup = O;
leftMetricsKey = "=50";
rightKerningGroup = O;
rightMetricsKey = "=50";
unicode = 004F;
},
{
glyphname = Oslash;
lastChange = "2020-03-11 23:18:51 +0000";
layers = (
{
anchors = (
{
name = bottom;
position = "{370, 0}";
},
{
name = center;
position = "{370, 370}";
},
{
name = ogonek;
position = "{666, 10}";
},
{
name = top;
position = "{367, 740}";
},
{
name = topleft;
position = "{20, 740}";
},
{
name = topright;
position = "{557, 740}";
}
);
layerId = "8BDB995E-2F86-4134-8150-9944A684F6E9";
paths = (
{
closed = 1;
nodes = (
"609 783 LINE",
"587 795 LINE",
"129 -34 LINE",
"151 -46 LINE"
);
},
{
closed = 1;
nodes = (
"589 -20 OFFCURVE",
"690 164 OFFCURVE",
"690 375 CURVE SMOOTH",
"690 542 OFFCURVE",
"608 760 OFFCURVE",
"367 760 CURVE SMOOTH",
"127 760 OFFCURVE",
"49 524 OFFCURVE",
"50 375 CURVE SMOOTH",
"51 164 OFFCURVE",
"167 -20 OFFCURVE",
"377 -20 CURVE SMOOTH"
);
},
{
closed = 1;
nodes = (
"207 0 OFFCURVE",
"132 175 OFFCURVE",
"135 375 CURVE SMOOTH",
"137 518 OFFCURVE",
"197 740 OFFCURVE",
"367 740 CURVE SMOOTH",
"537 740 OFFCURVE",
"605 534 OFFCURVE",
"606 375 CURVE SMOOTH",
"607 175 OFFCURVE",
"550 0 OFFCURVE",
"377 0 CURVE SMOOTH"
);
}
);
width = 740;
}
);
leftKerningGroup = O;
leftMetricsKey = "=O";
rightKerningGroup = O;
rightMetricsKey = "=O";
unicode = 00D8;
},
{
glyphname = OE;
lastChange = "2020-03-12 02:53:19 +0000";
layers = (
{
layerId = "8BDB995E-2F86-4134-8150-9944A684F6E9";
paths = (
{
closed = 1;
nodes = (
"948 0 LINE",
"948 102 LINE SMOOTH",
"948 169 OFFCURVE",
"951 208 OFFCURVE",
"971 226 CURVE",
"957 226 LINE",
"901 136 OFFCURVE",
"962 10 OFFCURVE",
"709 10 CURVE SMOOTH",
"593 10 OFFCURVE",
"593 81 OFFCURVE",
"591 125 CURVE",
"591 407 LINE",
"595 407 LINE SMOOTH",
"753 407 OFFCURVE",
"793 416 OFFCURVE",
"793 380 CURVE SMOOTH",
"793 358 OFFCURVE",
"796 320 OFFCURVE",
"769 320 CURVE",
"769 307 LINE",
"808 307 LINE",
"808 534 LINE",
"769 534 LINE",
"769 521 LINE",
"796 521 OFFCURVE",
"793 483 OFFCURVE",
"793 461 CURVE SMOOTH",
"793 426 OFFCURVE",
"749 427 OFFCURVE",
"729 427 CURVE SMOOTH",
"591 427 LINE",
"591 615 LINE SMOOTH",
"593 659 OFFCURVE",
"587 730 OFFCURVE",
"703 730 CURVE SMOOTH",
"914 730 OFFCURVE",
"861 640 OFFCURVE",
"898 570 CURVE",
"914 570 LINE",
"897 612 OFFCURVE",
"899 677 OFFCURVE",
"903 711 CURVE SMOOTH",
"906 740 LINE",
"355 740 LINE SMOOTH",
"182 740 OFFCURVE",
"40 600 OFFCURVE",
"40 390 CURVE SMOOTH",
"40 180 OFFCURVE",
"182 0 OFFCURVE",
"355 0 CURVE SMOOTH"
);
},
{
closed = 1;
nodes = (
"274 17 OFFCURVE",
"119 117 OFFCURVE",
"119 374 CURVE SMOOTH",
"119 564 OFFCURVE",
"239 724 OFFCURVE",
"377 724 CURVE SMOOTH",
"467 724 LINE SMOOTH",
"485 724 OFFCURVE",
"514 715 OFFCURVE",
"514 680 CURVE SMOOTH",
"514 60 LINE SMOOTH",
"514 25 OFFCURVE",
"485 17 OFFCURVE",
"467 17 CURVE SMOOTH",
"377 17 LINE SMOOTH"
);
}
);
width = 991;
}
);
leftKerningGroup = O;
rightKerningGroup = E;
rightMetricsKey = "=E";
unicode = 0152;
},
{
glyphname = P;
lastChange = "2020-03-12 01:45:41 +0000";
layers = (
{
guideLines = (
{
position = "{492, 663}";
}
);
layerId = "8BDB995E-2F86-4134-8150-9944A684F6E9";
paths = (
{
closed = 1;
nodes = (
"265 0 LINE",
"265 25 LINE",
"216 9 OFFCURVE",
"190 24 OFFCURVE",
"190 60 CURVE SMOOTH",
"191 740 LINE",
"40 740 LINE",
"40 715 LINE",
"89 731 OFFCURVE",
"115 716 OFFCURVE",
"115 680 CURVE SMOOTH",
"115 60 LINE SMOOTH",
"115 24 OFFCURVE",
"89 9 OFFCURVE",
"40 25 CURVE",
"40 0 LINE"
);
},
{
closed = 1;
nodes = (
"396 270 OFFCURVE",
"544 378 OFFCURVE",
"544 510 CURVE SMOOTH",
"544 665 OFFCURVE",
"400 740 OFFCURVE",
"271 740 CURVE SMOOTH",
"191 740 LINE",
"191 722 LINE",
"216 731 OFFCURVE",
"233 730 OFFCURVE",
"254 730 CURVE SMOOTH",
"387 730 OFFCURVE",
"457 603 OFFCURVE",
"457 504 CURVE SMOOTH",
"457 394 OFFCURVE",
"388 302 OFFCURVE",
"240 316 CURVE",
"240 301 LINE"
);
}
);
width = 574;
}
);
leftKerningGroup = H;
leftMetricsKey = "=H";
rightKerningGroup = P;
rightMetricsKey = "=H-10";
unicode = 0050;
},
{
glyphname = Thorn;
lastChange = "2020-03-12 02:53:19 +0000";
layers = (
{
layerId = "8BDB995E-2F86-4134-8150-9944A684F6E9";
paths = (
{
closed = 1;
nodes = (
"265 0 LINE",
"265 25 LINE",
"216 9 OFFCURVE",
"190 24 OFFCURVE",
"190 60 CURVE SMOOTH",
"190 588 LINE",
"211 594 OFFCURVE",
"235 593 OFFCURVE",
"253 593 CURVE SMOOTH",
"385 593 OFFCURVE",
"456 499 OFFCURVE",
"456 400 CURVE SMOOTH",
"456 290 OFFCURVE",
"388 226 OFFCURVE",
"292 226 CURVE SMOOTH",
"252 226 LINE",
"252 106 LINE",
"291 106 LINE",
"291 119 LINE",
"264 121 OFFCURVE",
"267 158 OFFCURVE",
"267 179 CURVE SMOOTH",
"267 206 OFFCURVE",
"285 209 OFFCURVE",
"292 209 CURVE SMOOTH",
"325 209 LINE SMOOTH",
"388 209 OFFCURVE",
"543 273 OFFCURVE",
"543 406 CURVE SMOOTH",
"543 561 OFFCURVE",
"399 603 OFFCURVE",
"270 603 CURVE SMOOTH",
"190 603 LINE",
"190 680 LINE SMOOTH",
"190 716 OFFCURVE",
"216 731 OFFCURVE",
"265 715 CURVE",
"265 740 LINE",
"40 740 LINE",
"40 715 LINE",
"89 731 OFFCURVE",
"115 716 OFFCURVE",
"115 680 CURVE SMOOTH",
"115 60 LINE SMOOTH",
"115 24 OFFCURVE",
"89 9 OFFCURVE",
"40 25 CURVE",
"40 0 LINE"
);
}
);
width = 573;
}
);
leftKerningGroup = H;
rightMetricsKey = "=P";
unicode = 00DE;
},
{
glyphname = Q;
lastChange = "2020-03-12 02:53:19 +0000";
layers = (
{
guideLines = (
{
position = "{466, -205}";
},
{
position = "{805, 760}";
},
{
position = "{1637, -20}";
},
{
position = "{-154, 515}";
}
);
layerId = "8BDB995E-2F86-4134-8150-9944A684F6E9";
paths = (
{
closed = 1;
nodes = (
"589 -20 OFFCURVE",
"690 164 OFFCURVE",
"690 375 CURVE SMOOTH",
"690 542 OFFCURVE",
"608 760 OFFCURVE",
"367 760 CURVE SMOOTH",
"127 760 OFFCURVE",
"49 524 OFFCURVE",
"50 375 CURVE SMOOTH",
"51 164 OFFCURVE",
"167 -20 OFFCURVE",
"377 -20 CURVE SMOOTH"
);
},
{
closed = 1;
nodes = (
"566 -216 OFFCURVE",
"622 -130 OFFCURVE",
"622 -20 CURVE",
"610 -22 LINE",
"619 -135 OFFCURVE",
"532 -181 OFFCURVE",
"378 -145 CURVE SMOOTH",
"304 -128 OFFCURVE",
"252 -95 OFFCURVE",
"213 -95 CURVE SMOOTH",
"209 -95 OFFCURVE",
"209 -92 OFFCURVE",
"213 -92 CURVE SMOOTH",
"297 -88 OFFCURVE",
"377 -64 OFFCURVE",
"393 -11 CURVE",
"311 -12 LINE",
"273 -70 OFFCURVE",
"214 -77 OFFCURVE",
"156 -93 CURVE SMOOTH",
"126 -101 OFFCURVE",
"137 -131 OFFCURVE",
"161 -120 CURVE SMOOTH",
"243 -82 OFFCURVE",
"306 -216 OFFCURVE",
"458 -216 CURVE SMOOTH"
);
},
{
closed = 1;
nodes = (
"207 0 OFFCURVE",
"132 175 OFFCURVE",
"135 375 CURVE SMOOTH",
"137 518 OFFCURVE",
"197 740 OFFCURVE",
"367 740 CURVE SMOOTH",
"537 740 OFFCURVE",
"605 534 OFFCURVE",
"606 375 CURVE SMOOTH",
"607 175 OFFCURVE",
"550 0 OFFCURVE",
"377 0 CURVE SMOOTH"
);
}
);
width = 740;
}
);
leftKerningGroup = O;
leftMetricsKey = "=O";
rightKerningGroup = O;
rightMetricsKey = "=O";
unicode = 0051;
},
{
glyphname = R;
lastChange = "2020-03-12 04:04:41 +0000";
layers = (
{
anchors = (
{
name = bottom;
position = "{347, 0}";
},
{
name = top;
position = "{278, 740}";
}
);
guideLines = (
{
position = "{233, 336}";
},
{
position = "{153, 25}";
},
{
position = "{402, -30}";
}
);
layerId = "8BDB995E-2F86-4134-8150-9944A684F6E9";
paths = (
{
closed = 1;
nodes = (
"618 33 LINE",
"590 11 OFFCURVE",
"570 12 OFFCURVE",
"556 17 CURVE SMOOTH",
"451 55 OFFCURVE",
"573 395 OFFCURVE",
"362 395 CURVE",
"489 403 OFFCURVE",
"546 483 OFFCURVE",
"546 564 CURVE SMOOTH",
"546 693 OFFCURVE",
"426 740 OFFCURVE",
"297 740 CURVE SMOOTH",
"40 740 LINE",
"40 715 LINE",
"89 731 OFFCURVE",
"115 716 OFFCURVE",
"115 680 CURVE SMOOTH",
"115 60 LINE SMOOTH",
"115 24 OFFCURVE",
"89 9 OFFCURVE",
"40 25 CURVE",
"40 0 LINE",
"263 0 LINE",
"263 25 LINE",
"214 9 OFFCURVE",
"190 24 OFFCURVE",
"190 60 CURVE SMOOTH",
"191 722 LINE",
"215 728 OFFCURVE",
"232 730 OFFCURVE",
"253 730 CURVE SMOOTH",
"413 730 OFFCURVE",
"462 647 OFFCURVE",
"462 572 CURVE SMOOTH",
"462 448 OFFCURVE",
"408 403 OFFCURVE",
"222 403 CURVE",
"222 389 LINE",
"254 389 LINE SMOOTH",
"537 389 OFFCURVE",
"331 -14 OFFCURVE",
"520 -14 CURVE SMOOTH",
"563 -14 OFFCURVE",
"596 -2 OFFCURVE",
"618 18 CURVE"
);
}
);
width = 638;
}
);
leftKerningGroup = H;
leftMetricsKey = "=H";
rightKerningGroup = R;
rightMetricsKey = "=20";
unicode = 0052;
},
{
glyphname = S;
lastChange = "2020-03-11 23:19:23 +0000";
layers = (
{
anchors = (
{
name = bottom;
position = "{269, 0}";
},
{
name = top;
position = "{237, 740}";
}
);
guideLines = (
{
position = "{251, 759}";
},
{
position = "{293, -67}";
}
);
hints = (
{
place = "{633, 30}";
type = Stem;
}
);
layerId = "8BDB995E-2F86-4134-8150-9944A684F6E9";
paths = (
{
closed = 1;
nodes = (
"391 -20 OFFCURVE",
"487 90 OFFCURVE",
"487 191 CURVE SMOOTH",
"487 443 OFFCURVE",
"125 384 OFFCURVE",
"125 579 CURVE SMOOTH",
"125 682 OFFCURVE",
"186 738 OFFCURVE",
"267 738 CURVE SMOOTH",
"371 738 OFFCURVE",
"415 643 OFFCURVE",
"415 559 CURVE",
"438 559 LINE",
"438 758 LINE",
"419 758 LINE",
"408 681 LINE",
"398 717 OFFCURVE",
"323 760 OFFCURVE",
"251 760 CURVE SMOOTH",
"137 760 OFFCURVE",
"50 679 OFFCURVE",
"50 564 CURVE SMOOTH",
"50 324 OFFCURVE",
"412 408 OFFCURVE",
"412 171 CURVE SMOOTH",
"412 84 OFFCURVE",
"360 -3 OFFCURVE",
"268 -3 CURVE SMOOTH",
"138 -3 OFFCURVE",
"79 117 OFFCURVE",
"79 291 CURVE",
"52 291 LINE",
"52 19 LINE",
"72 19 LINE",
"86 78 LINE",
"125 19 OFFCURVE",
"175 -20 OFFCURVE",
"278 -20 CURVE SMOOTH"
);
}
);
width = 537;
}
);
leftKerningGroup = S;
leftMetricsKey = "=H+10";
rightKerningGroup = S;
rightMetricsKey = "=H+10";
unicode = 0053;
},
{
glyphname = Germandbls;
lastChange = "2020-03-12 02:53:19 +0000";
layers = (
{
guideLines = (
{
position = "{729, 760}";
}
);
layerId = "8BDB995E-2F86-4134-8150-9944A684F6E9";
paths = (
{
closed = 1;
nodes = (
"502 -10 OFFCURVE",
"550 70 OFFCURVE",
"550 208 CURVE SMOOTH",
"550 318 OFFCURVE",
"516 402 OFFCURVE",
"399 425 CURVE SMOOTH",
"357 433 OFFCURVE",
"342 432 OFFCURVE",
"321 430 CURVE SMOOTH",
"319 430 OFFCURVE",
"318 430 OFFCURVE",
"319 432 CURVE SMOOTH",
"473 715 LINE",
"473 740 LINE",
"40 740 LINE",
"40 715 LINE",
"89 731 OFFCURVE",
"115 716 OFFCURVE",
"115 680 CURVE SMOOTH",
"115 60 LINE SMOOTH",
"115 24 OFFCURVE",
"89 9 OFFCURVE",
"40 25 CURVE",
"40 0 LINE",
"265 0 LINE",
"265 25 LINE",
"216 9 OFFCURVE",
"190 24 OFFCURVE",
"190 60 CURVE SMOOTH",
"190 680 LINE SMOOTH",
"190 717 OFFCURVE",
"235 718 OFFCURVE",
"293 718 CURVE SMOOTH",
"355 718 OFFCURVE",
"399 717 OFFCURVE",
"434 716 CURVE",
"285 429 LINE",
"290 408 LINE",
"309 410 OFFCURVE",
"318 411 OFFCURVE",
"353 408 CURVE SMOOTH",
"448 400 OFFCURVE",
"480 325 OFFCURVE",
"480 208 CURVE SMOOTH",
"480 78 OFFCURVE",
"444 10 OFFCURVE",
"350 10 CURVE SMOOTH",
"319 10 OFFCURVE",
"308 12 OFFCURVE",
"298 15 CURVE",
"298 -8 LINE",
"308 -9 OFFCURVE",
"319 -10 OFFCURVE",
"350 -10 CURVE SMOOTH"
);
}
);
width = 585;
}
);
leftKerningGroup = H;
rightMetricsKey = "=B";
unicode = 1E9E;
},
{
glyphname = T;
lastChange = "2020-03-12 18:48:46 +0000";
layers = (
{
anchors = (
{
name = bottom;
position = "{267, 0}";
},
{
name = center;
position = "{267, 370}";
},
{
name = top;
position = "{267, 740}";
}
);
layerId = "8BDB995E-2F86-4134-8150-9944A684F6E9";
paths = (
{
closed = 1;
nodes = (
"304 0 LINE",
"304 740 LINE",
"229 740 LINE",
"229 0 LINE"
);
},
{
closed = 1;
nodes = (
"379 0 LINE",
"379 25 LINE",
"330 9 OFFCURVE",
"304 24 OFFCURVE",
"304 60 CURVE",
"267 50 LINE",
"229 60 LINE",
"229 24 OFFCURVE",
"203 9 OFFCURVE",
"154 25 CURVE",
"154 0 LINE"
);
},
{
closed = 1;
nodes = (
"6 570 LINE",
"43 640 OFFCURVE",
"-10 730 OFFCURVE",
"201 730 CURVE SMOOTH",
"215 730 OFFCURVE",
"227 729 OFFCURVE",
"237 727 CURVE",
"237 740 LINE",
"-2 740 LINE",
"1 711 LINE SMOOTH",
"5 677 OFFCURVE",
"7 612 OFFCURVE",
"-10 570 CURVE"
);
},
{
closed = 1;
nodes = (
"544 570 LINE",
"527 612 OFFCURVE",
"529 677 OFFCURVE",
"533 711 CURVE SMOOTH",
"536 740 LINE",
"297 740 LINE",
"297 727 LINE",
"307 729 OFFCURVE",
"319 730 OFFCURVE",
"333 730 CURVE SMOOTH",
"544 730 OFFCURVE",
"491 640 OFFCURVE",
"528 570 CURVE"
);
}
);
width = 534;
}
);
leftKerningGroup = T;
leftMetricsKey = "=H-50";
rightKerningGroup = T;
rightMetricsKey = "=H-50";
unicode = 0054;
},
{
glyphname = U;
lastChange = "2020-03-12 02:53:19 +0000";
layers = (
{
anchors = (
{
name = bottom;
position = "{354, 0}";
},
{
name = ogonek;
position = "{391, -15}";
},
{
name = top;
position = "{376, 737}";
},
{
name = topright;
position = "{687, 740}";
}
);
guideLines = (
{
position = "{524, -20}";
},
{
position = "{153, 249}";
},
{
angle = 270;
position = "{486, 701}";
},
{
angle = 90;
position = "{711, 705}";
},
{
angle = 270;
position = "{40, 701}";
},
{
angle = 90;
position = "{265, 705}";
}
);
layerId = "8BDB995E-2F86-4134-8150-9944A684F6E9";
paths = (
{
closed = 1;
nodes = (
"528 -20 OFFCURVE",
"599 106 OFFCURVE",
"601 249 CURVE SMOOTH",
"601 681 LINE SMOOTH",
"601 717 OFFCURVE",
"638 732 OFFCURVE",
"687 716 CURVE",
"687 740 LINE",
"474 740 LINE",
"474 716 LINE",
"523 732 OFFCURVE",
"572 717 OFFCURVE",
"572 681 CURVE SMOOTH",
"572 256 LINE SMOOTH",
"572 155 OFFCURVE",
"541 -1 OFFCURVE",
"375 -1 CURVE SMOOTH",
"294 -1 OFFCURVE",
"190 61 OFFCURVE",
"190 249 CURVE SMOOTH",
"190 680 LINE SMOOTH",
"190 716 OFFCURVE",
"216 731 OFFCURVE",
"265 715 CURVE",
"265 740 LINE",
"228 739 OFFCURVE",
"193 737 OFFCURVE",
"154 737 CURVE SMOOTH",
"115 737 OFFCURVE",
"78 739 OFFCURVE",
"40 740 CURVE",
"40 715 LINE",
"89 731 OFFCURVE",
"115 716 OFFCURVE",
"115 680 CURVE SMOOTH",
"115 237 LINE SMOOTH",
"120 42 OFFCURVE",
"251 -20 OFFCURVE",
"371 -20 CURVE SMOOTH"
);
}
);
width = 707;
}
);
leftKerningGroup = U;
leftMetricsKey = "=H";
rightKerningGroup = U;
rightMetricsKey = "=H-20";
unicode = 0055;
},
{
glyphname = V;
lastChange = "2020-03-12 18:49:20 +0000";
layers = (
{
layerId = "8BDB995E-2F86-4134-8150-9944A684F6E9";
paths = (
{
closed = 1;
nodes = (
"329 0 LINE",
"349 47 LINE",
"164 680 LINE SMOOTH",
"153 716 OFFCURVE",
"182 731 OFFCURVE",
"231 715 CURVE",
"231 740 LINE",
"-10 740 LINE",
"-10 715 LINE",
"39 731 OFFCURVE",
"72 716 OFFCURVE",
"82 680 CURVE SMOOTH",
"278 0 LINE"
);
},
{
closed = 1;
nodes = (
"337 0 LINE",
"507 671 LINE SMOOTH",
"510 680 OFFCURVE",
"514 690 OFFCURVE",
"519 700 CURVE SMOOTH",
"534 730 OFFCURVE",
"569 728 OFFCURVE",
"608 715 CURVE",
"608 740 LINE",
"399 740 LINE",
"399 715 LINE",
"448 732 OFFCURVE",
"492 728 OFFCURVE",
"479 680 CURVE SMOOTH",
"472 655 LINE",
"317 0 LINE"
);
}
);
width = 588;
}
);
leftKerningGroup = V;
leftMetricsKey = "=W+10";
rightKerningGroup = V;
rightMetricsKey = "=W-10";
unicode = 0056;
},
{
glyphname = W;
lastChange = "2020-03-12 18:48:50 +0000";
layers = (
{
anchors = (
{
name = bottom;
position = "{459, 0}";
},
{
name = top;
position = "{479, 740}";
}
);
guideLines = (
{
angle = 90;
position = "{609, 728}";
},
{
angle = 90;
position = "{738, 728}";
},
{
angle = 90;
position = "{350, 728}";
}
);
hints = (
{
horizontal = 1;
place = "{724.07, 15.93}";
type = Stem;
},
{
horizontal = 1;
place = "{721.35, 18.65}";
type = Stem;
},
{
place = "{-10, 2000}";
type = Stem;
},
{
place = "{831.29, 126.71}";
type = Stem;
}
);
layerId = "8BDB995E-2F86-4134-8150-9944A684F6E9";
paths = (
{
closed = 1;
nodes = (
"319 0 LINE",
"339 47 LINE",
"154 680 LINE SMOOTH",
"143 716 OFFCURVE",
"172 731 OFFCURVE",
"221 715 CURVE",
"221 740 LINE",
"-20 740 LINE",
"-20 715 LINE",
"29 731 OFFCURVE",
"62 716 OFFCURVE",
"72 680 CURVE SMOOTH",
"268 0 LINE"
);
},
{
closed = 1;
nodes = (
"326 0 LINE",
"486 630 LINE",
"455 630 LINE",
"306 0 LINE"
);
},
{
closed = 1;
nodes = (
"669 0 LINE",
"689 47 LINE",
"504 680 LINE SMOOTH",
"493 716 OFFCURVE",
"560 731 OFFCURVE",
"609 715 CURVE",
"609 740 LINE",
"350 740 LINE",
"350 715 LINE",
"399 731 OFFCURVE",
"412 716 OFFCURVE",
"422 680 CURVE SMOOTH",
"618 0 LINE"
);
},
{
closed = 0;
nodes = (
"221 715 LINE",
"221 740 LINE"
);
},
{
closed = 1;
nodes = (
"677 0 LINE",
"846 666 OFFCURVE",
"844 664 OFFCURVE",
"855 700 CURVE SMOOTH",
"861 721 OFFCURVE",
"889 728 OFFCURVE",
"928 715 CURVE",
"928 740 LINE",
"739 740 LINE",
"739 715 LINE",
"788 732 OFFCURVE",
"833 728 OFFCURVE",
"820 680 CURVE SMOOTH",
"657 0 LINE"
);
}
);
width = 918;
}
);
leftKerningGroup = W;
leftMetricsKey = "=T-10";
rightKerningGroup = W;
rightMetricsKey = "=T";
unicode = 0057;
},
{
glyphname = X;
lastChange = "2020-03-12 18:26:16 +0000";
layers = (
{
layerId = "8BDB995E-2F86-4134-8150-9944A684F6E9";
paths = (
{
closed = 1;
nodes = (
"199 0 LINE",
"199 25 LINE",
"150 8 OFFCURVE",
"91 18 OFFCURVE",
"114 62 CURVE SMOOTH",
"126 84 LINE SMOOTH",
"178 169 OFFCURVE",
"227 253 OFFCURVE",
"276 337 CURVE",
"428 60 LINE SMOOTH",
"449 22 OFFCURVE",
"410 9 OFFCURVE",
"361 25 CURVE",
"361 0 LINE",
"602 0 LINE",
"602 25 LINE",
"553 9 OFFCURVE",
"530 24 OFFCURVE",
"510 60 CURVE SMOOTH",
"505 69 LINE",
"318 410 LINE",
"373 506 OFFCURVE",
"429 602 OFFCURVE",
"487 700 CURVE SMOOTH",
"505 730 OFFCURVE",
"533 728 OFFCURVE",
"572 715 CURVE",
"572 740 LINE",
"363 740 LINE",
"363 715 LINE",
"412 732 OFFCURVE",
"471 722 OFFCURVE",
"448 678 CURVE SMOOTH",
"436 655 LINE",
"306 432 LINE",
"170 680 LINE SMOOTH",
"150 717 OFFCURVE",
"188 731 OFFCURVE",
"237 715 CURVE",
"237 740 LINE",
"-4 740 LINE",
"-4 715 LINE",
"45 731 OFFCURVE",
"68 717 OFFCURVE",
"88 680 CURVE SMOOTH",
"264 360 LINE",
"119 113 LINE SMOOTH",
"105 89 OFFCURVE",
"90 65 OFFCURVE",
"75 40 CURVE SMOOTH",
"57 10 OFFCURVE",
"29 12 OFFCURVE",
"-10 25 CURVE",
"-10 0 LINE"
);
}
);
width = 602;
}
);
leftKerningGroup = X;
leftMetricsKey = "=T";
rightKerningGroup = X;
rightMetricsKey = "=T+10";
unicode = 0058;
},
{
glyphname = Y;
lastChange = "2020-03-12 18:49:08 +0000";
layers = (
{
anchors = (
{
name = bottom;
position = "{273, 0}";
},
{
name = top;
position = "{278, 740}";
},
{
name = topleft;
position = "{5, 740}";
}
);
layerId = "8BDB995E-2F86-4134-8150-9944A684F6E9";
paths = (
{
closed = 1;
nodes = (
"390 0 LINE",
"390 25 LINE",
"341 9 OFFCURVE",
"317 24 OFFCURVE",
"317 60 CURVE SMOOTH",
"317 346 LINE",
"389 471 OFFCURVE",
"436 573 OFFCURVE",
"514 700 CURVE SMOOTH",
"525 718 OFFCURVE",
"547 728 OFFCURVE",
"586 715 CURVE",
"586 740 LINE",
"390 740 LINE",
"390 715 LINE",
"439 732 OFFCURVE",
"498 722 OFFCURVE",
"475 678 CURVE SMOOTH",
"463 655 LINE",
"304 370 LINE",
"144 680 LINE SMOOTH",
"125 717 OFFCURVE",
"162 731 OFFCURVE",
"211 715 CURVE",
"211 740 LINE",
"-30 740 LINE",
"-30 715 LINE",
"19 731 OFFCURVE",
"42 717 OFFCURVE",
"62 680 CURVE SMOOTH",
"238 346 LINE",
"238 60 LINE SMOOTH",
"238 24 OFFCURVE",
"214 9 OFFCURVE",
"165 25 CURVE",
"165 0 LINE"
);
}
);
width = 556;
}
);
leftKerningGroup = Y;
leftMetricsKey = "=T-20";
rightKerningGroup = Y;
rightMetricsKey = "=T-20";
unicode = 0059;
},
{
glyphname = Z;
lastChange = "2020-03-12 18:28:25 +0000";
layers = (
{
anchors = (
{
name = bottom;
position = "{264, 0}";
},
{
name = center;
position = "{264, 370}";
},
{
name = top;
position = "{238, 740}";
}
);
layerId = "8BDB995E-2F86-4134-8150-9944A684F6E9";
paths = (
{
closed = 1;
nodes = (
"507 0 LINE",
"507 102 LINE SMOOTH",
"507 169 OFFCURVE",
"510 236 OFFCURVE",
"530 254 CURVE",
"516 254 LINE",
"460 164 OFFCURVE",
"512 10 OFFCURVE",
"264 10 CURVE SMOOTH",
"130 10 OFFCURVE",
"81 19 OFFCURVE",
"153 150 CURVE SMOOTH",
"423 636 LINE SMOOTH",
"438 663 OFFCURVE",
"464 699 OFFCURVE",
"475 711 CURVE SMOOTH",
"484 720 OFFCURVE",
"508 720 OFFCURVE",
"518 715 CURVE",
"518 740 LINE",
"13 740 LINE",
"16 711 LINE SMOOTH",
"20 677 OFFCURVE",
"22 597 OFFCURVE",
"5 555 CURVE",
"21 555 LINE",
"58 625 OFFCURVE",
"-1 730 OFFCURVE",
"224 730 CURVE SMOOTH",
"300 730 OFFCURVE",
"366 730 OFFCURVE",
"366 672 CURVE SMOOTH",
"366 654 OFFCURVE",
"328 597 OFFCURVE",
"313 570 CURVE SMOOTH",
"53 100 LINE SMOOTH",
"35 68 OFFCURVE",
"20 27 OFFCURVE",
"6 22 CURVE SMOOTH",
"-3 19 OFFCURVE",
"-19 19 OFFCURVE",
"-30 25 CURVE",
"-30 0 LINE"
);
}
);
width = 528;
}
);
leftKerningGroup = Z;
rightKerningGroup = Z;
unicode = 005A;
},
{
glyphname = R.alt;
lastChange = "2020-03-12 01:51:50 +0000";
layers = (
{
anchors = (
{
name = bottom;
position = "{347, 0}";
},
{
name = top;
position = "{278, 740}";
}
);
guideLines = (
{
position = "{233, 336}";
},
{
position = "{153, 25}";
},
{
position = "{402, -30}";
}
);
layerId = "8BDB995E-2F86-4134-8150-9944A684F6E9";
paths = (
{
closed = 1;
nodes = (
"657 -20 OFFCURVE",
"693 6 OFFCURVE",
"728 65 CURVE",
"720 78 LINE",
"706 53 OFFCURVE",
"669 6 OFFCURVE",
"628 6 CURVE SMOOTH",
"488 6 OFFCURVE",
"488 340 OFFCURVE",
"363 345 CURVE",
"463 368 OFFCURVE",
"546 429 OFFCURVE",
"546 527 CURVE SMOOTH",
"546 682 OFFCURVE",
"426 740 OFFCURVE",
"297 740 CURVE SMOOTH",
"40 740 LINE",
"40 715 LINE",
"89 731 OFFCURVE",
"115 716 OFFCURVE",
"115 680 CURVE SMOOTH",
"115 60 LINE SMOOTH",
"115 24 OFFCURVE",
"89 9 OFFCURVE",
"40 25 CURVE",
"40 0 LINE",
"292 0 LINE",
"292 25 LINE",
"243 9 OFFCURVE",
"190 24 OFFCURVE",
"190 60 CURVE SMOOTH",
"191 722 LINE",
"215 728 OFFCURVE",
"232 730 OFFCURVE",
"253 730 CURVE SMOOTH",
"413 730 OFFCURVE",
"462 620 OFFCURVE",
"462 521 CURVE SMOOTH",
"462 411 OFFCURVE",
"399 344 OFFCURVE",
"222 344 CURVE",
"222 335 LINE",
"481 335 OFFCURVE",
"349 -20 OFFCURVE",
"592 -20 CURVE SMOOTH"
);
}
);
width = 658;
}
);
leftKerningGroup = H;
leftMetricsKey = "=H";
rightKerningGroup = R;
},
{
glyphname = B.ss01;
lastChange = "2020-03-11 23:56:42 +0000";
layers = (
{
anchors = (
{
name = bottom;
position = "{301, 0}";
},
{
name = top;
position = "{301, 740}";
}
);
layerId = "8BDB995E-2F86-4134-8150-9944A684F6E9";
paths = (
{
closed = 1;
nodes = (
"299 0 LINE SMOOTH",
"428 0 OFFCURVE",
"572 67 OFFCURVE",
"572 237 CURVE SMOOTH",
"572 365 OFFCURVE",
"415 409 OFFCURVE",
"361 413 CURVE SMOOTH",
"358 413 OFFCURVE",
"358 415 OFFCURVE",
"361 415 CURVE SMOOTH",
"415 419 OFFCURVE",
"517 481 OFFCURVE",
"517 574 CURVE SMOOTH",
"517 706 OFFCURVE",
"387 740 OFFCURVE",
"283 740 CURVE SMOOTH",
"40 740 LINE",
"40 715 LINE",
"89 731 OFFCURVE",
"114 716 OFFCURVE",
"115 680 CURVE SMOOTH",
"115 60 LINE SMOOTH",
"114 24 OFFCURVE",
"89 9 OFFCURVE",
"40 25 CURVE",
"40 0 LINE"
);
},
{
closed = 1;
nodes = (
"190 722 LINE",
"212 726 OFFCURVE",
"241 730 OFFCURVE",
"285 730 CURVE SMOOTH",
"368 730 OFFCURVE",
"450 683 OFFCURVE",
"448 562 CURVE SMOOTH",
"448 433 OFFCURVE",
"359 426 OFFCURVE",
"321 425 CURVE SMOOTH",
"292 426 OFFCURVE",
"282 431 OFFCURVE",
"282 459 CURVE SMOOTH",
"282 481 OFFCURVE",
"279 519 OFFCURVE",
"306 519 CURVE",
"306 532 LINE",
"267 532 LINE",
"267 300 LINE",
"306 300 LINE",
"306 314 LINE",
"279 314 OFFCURVE",
"282 356 OFFCURVE",
"282 378 CURVE SMOOTH",
"282 397 OFFCURVE",
"294 403 OFFCURVE",
"330 405 CURVE",
"419 400 OFFCURVE",
"491 360 OFFCURVE",
"491 223 CURVE SMOOTH",
"491 109 OFFCURVE",
"421 10 OFFCURVE",
"273 10 CURVE SMOOTH",
"233 10 OFFCURVE",
"190 17 OFFCURVE",
"190 114 CURVE SMOOTH"
);
}
);
width = 607;
}
);
leftKerningGroup = H;
leftMetricsKey = "=H";
rightKerningGroup = B;
rightMetricsKey = "=H-5";
},
{
glyphname = D.ss01;
lastChange = "2020-03-12 02:53:19 +0000";
layers = (
{
anchors = (
{
name = bottom;
position = "{319, 0}";
},
{
name = center;
position = "{191, 370}";
},
{
name = top;
position = "{334, 740}";
}
);
layerId = "8BDB995E-2F86-4134-8150-9944A684F6E9";
paths = (
{
closed = 1;
nodes = (
"178 0 LINE",
"281 0 LINE",
"349 0 LINE SMOOTH",
"522 0 OFFCURVE",
"664 180 OFFCURVE",
"664 390 CURVE SMOOTH",
"664 600 OFFCURVE",
"522 740 OFFCURVE",
"349 740 CURVE SMOOTH",
"40 740 LINE",
"40 715 LINE",
"89 731 OFFCURVE",
"115 716 OFFCURVE",
"115 680 CURVE SMOOTH",
"115 60 LINE SMOOTH",
"115 24 OFFCURVE",
"89 9 OFFCURVE",
"40 25 CURVE",
"40 0 LINE"
);
},
{
closed = 1;
nodes = (
"219 17 OFFCURVE",
"190 25 OFFCURVE",
"190 60 CURVE SMOOTH",
"190 680 LINE SMOOTH",
"190 715 OFFCURVE",
"219 724 OFFCURVE",
"237 724 CURVE SMOOTH",
"327 724 LINE SMOOTH",
"465 724 OFFCURVE",
"585 564 OFFCURVE",
"585 374 CURVE SMOOTH",
"585 117 OFFCURVE",
"430 17 OFFCURVE",
"327 17 CURVE SMOOTH",
"237 17 LINE SMOOTH"
);
},
{
closed = 1;
nodes = (
"396 300 LINE",
"396 314 LINE",
"378 314 OFFCURVE",
"371 325 OFFCURVE",
"371 352 CURVE SMOOTH",
"371 480 LINE SMOOTH",
"371 507 OFFCURVE",
"377 518 OFFCURVE",
"395 518 CURVE",
"395 532 LINE",
"331 532 LINE",
"331 518 LINE",
"349 518 OFFCURVE",
"355 507 OFFCURVE",
"355 480 CURVE SMOOTH",
"355 352 LINE SMOOTH",
"355 325 OFFCURVE",
"348 314 OFFCURVE",
"331 314 CURVE",
"331 300 LINE"
);
}
);
width = 704;
}
);
leftKerningGroup = H;
leftMetricsKey = "=H";
rightKerningGroup = O;
rightMetricsKey = "=O-10";
},
{
glyphname = H.ss01;
lastChange = "2020-03-12 02:53:19 +0000";
layers = (
{
anchors = (
{
name = bottom;
position = "{376, 0}";
},
{
name = center;
position = "{376, 370}";
},
{
name = top;
position = "{376, 740}";
},
{
name = topleft;
position = "{20, 740}";
}
);
guideLines = (
{
position = "{580, 0}";
},
{
position = "{240, 712}";
}
);
layerId = "8BDB995E-2F86-4134-8150-9944A684F6E9";
paths = (
{
closed = 1;
nodes = (
"711 0 LINE",
"711 25 LINE",
"662 9 OFFCURVE",
"636 24 OFFCURVE",
"636 60 CURVE SMOOTH",
"636 680 LINE SMOOTH",
"636 716 OFFCURVE",
"662 731 OFFCURVE",
"711 715 CURVE",
"711 740 LINE",
"486 740 LINE",
"486 715 LINE",
"535 731 OFFCURVE",
"561 716 OFFCURVE",
"561 680 CURVE SMOOTH",
"561 60 LINE SMOOTH",
"561 24 OFFCURVE",
"535 9 OFFCURVE",
"486 25 CURVE",
"486 0 LINE"
);
},
{
closed = 1;
nodes = (
"265 0 LINE",
"265 25 LINE",
"216 10 OFFCURVE",
"190 24 OFFCURVE",
"190 60 CURVE SMOOTH",
"190 680 LINE SMOOTH",
"190 716 OFFCURVE",
"216 731 OFFCURVE",
"265 715 CURVE",
"265 740 LINE",
"40 740 LINE",
"40 715 LINE",
"89 731 OFFCURVE",
"115 716 OFFCURVE",
"115 680 CURVE SMOOTH",
"115 60 LINE SMOOTH",
"115 24 OFFCURVE",
"89 9 OFFCURVE",
"40 25 CURVE",
"40 0 LINE"
);
},
{
closed = 1;
nodes = (
"190 356 OFFCURVE",
"274 380 OFFCURVE",
"308 380 CURVE SMOOTH",
"354 380 LINE SMOOTH",
"366 380 OFFCURVE",
"369 384 OFFCURVE",
"369 402 CURVE SMOOTH",
"369 532 LINE",
"324 532 LINE",
"324 519 LINE",
"351 519 OFFCURVE",
"357 468 OFFCURVE",
"357 446 CURVE SMOOTH",
"357 404 OFFCURVE",
"338 393 OFFCURVE",
"320 393 CURVE SMOOTH",
"262 393 OFFCURVE",
"190 367 OFFCURVE",
"190 342 CURVE SMOOTH",
"190 238 LINE SMOOTH"
);
},
{
closed = 1;
nodes = (
"427 241 LINE",
"427 254 LINE",
"400 254 OFFCURVE",
"394 305 OFFCURVE",
"394 327 CURVE SMOOTH",
"394 369 OFFCURVE",
"413 380 OFFCURVE",
"431 380 CURVE SMOOTH",
"489 380 OFFCURVE",
"561 406 OFFCURVE",
"561 431 CURVE SMOOTH",
"561 535 LINE SMOOTH",
"561 417 OFFCURVE",
"477 393 OFFCURVE",
"443 393 CURVE SMOOTH",
"397 393 LINE SMOOTH",
"385 393 OFFCURVE",
"382 389 OFFCURVE",
"382 371 CURVE SMOOTH",
"382 241 LINE"
);
}
);
width = 751;
}
);
leftKerningGroup = H;
rightKerningGroup = H;
},
{
glyphname = O.ss01;
lastChange = "2020-03-11 23:59:39 +0000";
layers = (
{
anchors = (
{
name = bottom;
position = "{370, 0}";
},
{
name = center;
position = "{370, 370}";
},
{
name = ogonek;
position = "{666, 10}";
},
{
name = top;
position = "{367, 740}";
},
{
name = topleft;
position = "{20, 740}";
},
{
name = topright;
position = "{557, 740}";
}
);
guideLines = (
{
position = "{839, -20}";
},
{
position = "{1198, 760}";
},
{
position = "{366, -16}";
},
{
angle = 90;
position = "{367, 755}";
}
);
layerId = "8BDB995E-2F86-4134-8150-9944A684F6E9";
paths = (
{
closed = 1;
nodes = (
"589 -20 OFFCURVE",
"690 164 OFFCURVE",
"690 375 CURVE SMOOTH",
"690 542 OFFCURVE",
"608 760 OFFCURVE",
"367 760 CURVE SMOOTH",
"127 760 OFFCURVE",
"49 524 OFFCURVE",
"50 375 CURVE SMOOTH",
"51 164 OFFCURVE",
"167 -20 OFFCURVE",
"377 -20 CURVE SMOOTH"
);
},
{
closed = 1;
nodes = (
"207 0 OFFCURVE",
"132 175 OFFCURVE",
"135 375 CURVE SMOOTH",
"137 518 OFFCURVE",
"197 740 OFFCURVE",
"367 740 CURVE SMOOTH",
"537 740 OFFCURVE",
"605 534 OFFCURVE",
"606 375 CURVE SMOOTH",
"607 175 OFFCURVE",
"550 0 OFFCURVE",
"377 0 CURVE SMOOTH"
);
},
{
closed = 1;
nodes = (
"401 300 LINE",
"401 314 LINE",
"383 314 OFFCURVE",
"376 325 OFFCURVE",
"376 352 CURVE SMOOTH",
"376 480 LINE SMOOTH",
"376 507 OFFCURVE",
"382 518 OFFCURVE",
"400 518 CURVE",
"400 532 LINE",
"336 532 LINE",
"336 518 LINE",
"354 518 OFFCURVE",
"360 507 OFFCURVE",
"360 480 CURVE SMOOTH",
"360 352 LINE SMOOTH",
"360 325 OFFCURVE",
"353 314 OFFCURVE",
"336 314 CURVE",
"336 300 LINE"
);
}
);
width = 740;
}
);
leftKerningGroup = O;
leftMetricsKey = "=50";
rightKerningGroup = O;
rightMetricsKey = "=50";
},
{
glyphname = P.ss01;
lastChange = "2020-03-12 02:53:19 +0000";
layers = (
{
guideLines = (
{
position = "{492, 663}";
}
);
layerId = "8BDB995E-2F86-4134-8150-9944A684F6E9";
paths = (
{
closed = 1;
nodes = (
"265 0 LINE",
"265 25 LINE",
"216 9 OFFCURVE",
"190 24 OFFCURVE",
"190 60 CURVE SMOOTH",
"191 740 LINE",
"40 740 LINE",
"40 715 LINE",
"89 731 OFFCURVE",
"115 716 OFFCURVE",
"115 680 CURVE SMOOTH",
"115 60 LINE SMOOTH",
"115 24 OFFCURVE",
"89 9 OFFCURVE",
"40 25 CURVE",
"40 0 LINE"
);
},
{
closed = 1;
nodes = (
"292 197 LINE",
"292 210 LINE",
"265 212 OFFCURVE",
"268 249 OFFCURVE",
"268 270 CURVE SMOOTH",
"268 297 OFFCURVE",
"286 300 OFFCURVE",
"293 300 CURVE",
"293 317 LINE",
"253 317 LINE",
"253 294 LINE",
"253 197 LINE"
);
},
{
closed = 1;
nodes = (
"326 300 LINE SMOOTH",
"389 300 OFFCURVE",
"544 376 OFFCURVE",
"544 510 CURVE SMOOTH",
"544 665 OFFCURVE",
"400 740 OFFCURVE",
"271 740 CURVE SMOOTH",
"191 740 LINE",
"191 722 LINE",
"216 731 OFFCURVE",
"233 730 OFFCURVE",
"254 730 CURVE SMOOTH",
"387 730 OFFCURVE",
"457 603 OFFCURVE",
"457 504 CURVE SMOOTH",
"457 394 OFFCURVE",
"390 320 OFFCURVE",
"293 317 CURVE",
"293 300 LINE"
);
},
{
closed = 1;
nodes = (
"326 300 LINE SMOOTH",
"389 300 OFFCURVE",
"544 376 OFFCURVE",
"544 510 CURVE SMOOTH",
"544 665 OFFCURVE",
"400 740 OFFCURVE",
"271 740 CURVE SMOOTH",
"191 740 LINE",
"191 722 LINE",
"216 731 OFFCURVE",
"233 730 OFFCURVE",
"254 730 CURVE SMOOTH",
"387 730 OFFCURVE",
"457 603 OFFCURVE",
"457 504 CURVE SMOOTH",
"457 394 OFFCURVE",
"389 319 OFFCURVE",
"293 317 CURVE",
"293 300 LINE"
);
}
);
width = 574;
}
);
leftKerningGroup = H;
leftMetricsKey = "=H";
rightKerningGroup = P;
rightMetricsKey = "=H-10";
},
{
glyphname = Q.ss01;
lastChange = "2020-03-12 02:53:19 +0000";
layers = (
{
guideLines = (
{
position = "{466, -205}";
},
{
position = "{805, 760}";
},
{
position = "{1637, -20}";
},
{
position = "{-154, 515}";
}
);
layerId = "8BDB995E-2F86-4134-8150-9944A684F6E9";
paths = (
{
closed = 1;
nodes = (
"589 -20 OFFCURVE",
"690 164 OFFCURVE",
"690 375 CURVE SMOOTH",
"690 542 OFFCURVE",
"608 760 OFFCURVE",
"367 760 CURVE SMOOTH",
"127 760 OFFCURVE",
"49 524 OFFCURVE",
"50 375 CURVE SMOOTH",
"51 164 OFFCURVE",
"167 -20 OFFCURVE",
"377 -20 CURVE SMOOTH"
);
},
{
closed = 1;
nodes = (
"566 -216 OFFCURVE",
"622 -130 OFFCURVE",
"622 -20 CURVE",
"610 -22 LINE",
"619 -135 OFFCURVE",
"532 -181 OFFCURVE",
"378 -145 CURVE SMOOTH",
"304 -128 OFFCURVE",
"252 -95 OFFCURVE",
"213 -95 CURVE SMOOTH",
"209 -95 OFFCURVE",
"209 -92 OFFCURVE",
"213 -92 CURVE SMOOTH",
"297 -88 OFFCURVE",
"377 -64 OFFCURVE",
"393 -11 CURVE",
"311 -12 LINE",
"273 -70 OFFCURVE",
"214 -77 OFFCURVE",
"156 -93 CURVE SMOOTH",
"126 -101 OFFCURVE",
"137 -131 OFFCURVE",
"161 -120 CURVE SMOOTH",
"243 -82 OFFCURVE",
"306 -216 OFFCURVE",
"458 -216 CURVE SMOOTH"
);
},
{
closed = 1;
nodes = (
"207 0 OFFCURVE",
"132 175 OFFCURVE",
"135 375 CURVE SMOOTH",
"137 518 OFFCURVE",
"197 740 OFFCURVE",
"367 740 CURVE SMOOTH",
"537 740 OFFCURVE",
"605 534 OFFCURVE",
"606 375 CURVE SMOOTH",
"607 175 OFFCURVE",
"550 0 OFFCURVE",
"377 0 CURVE SMOOTH"
);
},
{
closed = 1;
nodes = (
"401 300 LINE",
"401 314 LINE",
"383 314 OFFCURVE",
"376 325 OFFCURVE",
"376 352 CURVE SMOOTH",
"376 480 LINE SMOOTH",
"376 507 OFFCURVE",
"382 518 OFFCURVE",
"400 518 CURVE",
"400 532 LINE",
"336 532 LINE",
"336 518 LINE",
"354 518 OFFCURVE",
"360 507 OFFCURVE",
"360 480 CURVE SMOOTH",
"360 352 LINE SMOOTH",
"360 325 OFFCURVE",
"353 314 OFFCURVE",
"336 314 CURVE",
"336 300 LINE"
);
}
);
width = 740;
}
);
leftKerningGroup = O;
leftMetricsKey = "=O";
rightKerningGroup = O;
rightMetricsKey = "=O";
},
{
glyphname = O.ss02;
lastChange = "2020-03-12 02:53:19 +0000";
layers = (
{
guideLines = (
{
position = "{322, 760}";
}
);
layerId = "8BDB995E-2F86-4134-8150-9944A684F6E9";
paths = (
{
closed = 1;
nodes = (
"409 -52 OFFCURVE",
"592 84 OFFCURVE",
"646 288 CURVE SMOOTH",
"701 492 OFFCURVE",
"610 702 OFFCURVE",
"443 746 CURVE SMOOTH",
"276 791 OFFCURVE",
"90 656 OFFCURVE",
"36 452 CURVE SMOOTH",
"-19 249 OFFCURVE",
"74 38 OFFCURVE",
"241 -7 CURVE SMOOTH"
);
},
{
closed = 1;
nodes = (
"23 124 OFFCURVE",
"46 327 OFFCURVE",
"141 492 CURVE SMOOTH",
"236 656 OFFCURVE",
"397 771 OFFCURVE",
"509 706 CURVE SMOOTH",
"636 633 OFFCURVE",
"644 423 OFFCURVE",
"548 257 CURVE SMOOTH",
"419 34 OFFCURVE",
"264 -15 OFFCURVE",
"182 33 CURVE SMOOTH"
);
},
{
closed = 1;
nodes = (
"318 297 LINE",
"303 305 OFFCURVE",
"305 319 OFFCURVE",
"316 342 CURVE",
"377 448 LINE SMOOTH",
"388 465 OFFCURVE",
"401 481 OFFCURVE",
"418 471 CURVE",
"425 482 LINE",
"370 514 LINE",
"363 502 LINE",
"381 492 OFFCURVE",
"373 473 OFFCURVE",
"364 456 CURVE SMOOTH",
"354 438 LINE",
"305 353 LINE SMOOTH",
"289 328 OFFCURVE",
"278 320 OFFCURVE",
"263 328 CURVE",
"256 317 LINE",
"311 285 LINE"
);
}
);
width = 682;
}
);
leftMetricsKey = "=H-20";
rightMetricsKey = "=H-20";
},
{
glyphname = Q.ss02;
lastChange = "2020-03-12 02:53:19 +0000";
layers = (
{
guideLines = (
{
position = "{471, -205}";
},
{
position = "{810, 760}";
},
{
position = "{1642, -20}";
},
{
position = "{-149, 515}";
}
);
layerId = "8BDB995E-2F86-4134-8150-9944A684F6E9";
paths = (
{
closed = 1;
nodes = (
"428 -52 OFFCURVE",
"612 85 OFFCURVE",
"666 288 CURVE SMOOTH",
"721 492 OFFCURVE",
"630 702 OFFCURVE",
"463 746 CURVE SMOOTH",
"296 791 OFFCURVE",
"110 656 OFFCURVE",
"56 452 CURVE SMOOTH",
"1 249 OFFCURVE",
"94 38 OFFCURVE",
"261 -7 CURVE SMOOTH"
);
},
{
closed = 1;
nodes = (
"593 -205 OFFCURVE",
"678 -130 OFFCURVE",
"678 -20 CURVE",
"666 -22 LINE",
"675 -135 OFFCURVE",
"539 -153 OFFCURVE",
"385 -130 CURVE SMOOTH",
"303 -118 OFFCURVE",
"184 -65 OFFCURVE",
"144 -72 CURVE",
"178 -42 OFFCURVE",
"285 -22 OFFCURVE",
"363 0 CURVE",
"245 10 LINE",
"205 -26 OFFCURVE",
"145 -58 OFFCURVE",
"87 -74 CURVE SMOOTH",
"57 -82 OFFCURVE",
"68 -110 OFFCURVE",
"92 -101 CURVE SMOOTH",
"106 -96 OFFCURVE",
"105 -91 OFFCURVE",
"155 -91 CURVE SMOOTH",
"215 -91 OFFCURVE",
"366 -205 OFFCURVE",
"485 -205 CURVE SMOOTH"
);
},
{
closed = 1;
nodes = (
"43 124 OFFCURVE",
"66 327 OFFCURVE",
"161 492 CURVE SMOOTH",
"256 656 OFFCURVE",
"417 771 OFFCURVE",
"529 706 CURVE SMOOTH",
"656 633 OFFCURVE",
"664 423 OFFCURVE",
"568 257 CURVE SMOOTH",
"439 34 OFFCURVE",
"284 -15 OFFCURVE",
"202 33 CURVE SMOOTH"
);
},
{
closed = 1;
nodes = (
"338 297 LINE",
"323 305 OFFCURVE",
"325 319 OFFCURVE",
"336 342 CURVE",
"397 448 LINE SMOOTH",
"408 465 OFFCURVE",
"421 481 OFFCURVE",
"438 471 CURVE",
"445 482 LINE",
"390 514 LINE",
"383 502 LINE",
"401 492 OFFCURVE",
"393 473 OFFCURVE",
"384 456 CURVE SMOOTH",
"374 438 LINE",
"325 353 LINE SMOOTH",
"309 328 OFFCURVE",
"298 320 OFFCURVE",
"283 328 CURVE",
"276 317 LINE",
"331 285 LINE"
);
}
);
width = 702;
}
);
leftMetricsKey = "=H";
rightMetricsKey = "=H-20";
},
{
glyphname = O.ss03;
lastChange = "2020-03-11 23:59:37 +0000";
layers = (
{
anchors = (
{
name = bottom;
position = "{370, 0}";
},
{
name = center;
position = "{370, 370}";
},
{
name = ogonek;
position = "{666, 10}";
},
{
name = top;
position = "{367, 740}";
},
{
name = topleft;
position = "{20, 740}";
},
{
name = topright;
position = "{557, 740}";
}
);
guideLines = (
{
position = "{839, -20}";
},
{
position = "{1198, 760}";
},
{
position = "{366, -16}";
},
{
angle = 90;
position = "{367, 755}";
}
);
layerId = "8BDB995E-2F86-4134-8150-9944A684F6E9";
paths = (
{
closed = 1;
nodes = (
"589 -20 OFFCURVE",
"690 164 OFFCURVE",
"690 375 CURVE SMOOTH",
"690 542 OFFCURVE",
"608 760 OFFCURVE",
"367 760 CURVE SMOOTH",
"127 760 OFFCURVE",
"49 524 OFFCURVE",
"50 375 CURVE SMOOTH",
"51 164 OFFCURVE",
"167 -20 OFFCURVE",
"377 -20 CURVE SMOOTH"
);
},
{
closed = 1;
nodes = (
"207 0 OFFCURVE",
"132 175 OFFCURVE",
"135 375 CURVE SMOOTH",
"137 518 OFFCURVE",
"197 740 OFFCURVE",
"367 740 CURVE SMOOTH",
"537 740 OFFCURVE",
"605 534 OFFCURVE",
"606 375 CURVE SMOOTH",
"607 175 OFFCURVE",
"550 0 OFFCURVE",
"377 0 CURVE SMOOTH"
);
},
{
closed = 1;
nodes = (
"401 300 LINE",
"401 314 LINE",
"383 314 OFFCURVE",
"376 325 OFFCURVE",
"376 352 CURVE SMOOTH",
"376 480 LINE SMOOTH",
"376 507 OFFCURVE",
"382 518 OFFCURVE",
"400 518 CURVE",
"400 532 LINE",
"336 532 LINE",
"336 518 LINE",
"354 518 OFFCURVE",
"360 507 OFFCURVE",
"360 480 CURVE SMOOTH",
"360 352 LINE SMOOTH",
"360 325 OFFCURVE",
"353 314 OFFCURVE",
"336 314 CURVE",
"336 300 LINE"
);
},
{
closed = 1;
nodes = (
"266 384 LINE",
"266 402 OFFCURVE",
"277 409 OFFCURVE",
"304 409 CURVE SMOOTH",
"432 409 LINE SMOOTH",
"459 409 OFFCURVE",
"470 403 OFFCURVE",
"470 385 CURVE",
"484 385 LINE",
"484 449 LINE",
"470 449 LINE",
"470 431 OFFCURVE",
"459 425 OFFCURVE",
"432 425 CURVE SMOOTH",
"304 425 LINE SMOOTH",
"277 425 OFFCURVE",
"266 432 OFFCURVE",
"266 449 CURVE",
"252 449 LINE",
"252 384 LINE"
);
}
);
width = 740;
}
);
leftKerningGroup = O;
leftMetricsKey = "=50";
rightKerningGroup = O;
rightMetricsKey = "=50";
},
{
glyphname = Q.ss03;
lastChange = "2020-03-12 02:53:19 +0000";
layers = (
{
guideLines = (
{
position = "{466, -205}";
},
{
position = "{805, 760}";
},
{
position = "{1637, -20}";
},
{
position = "{-154, 515}";
}
);
layerId = "8BDB995E-2F86-4134-8150-9944A684F6E9";
paths = (
{
closed = 1;
nodes = (
"589 -20 OFFCURVE",
"690 164 OFFCURVE",
"690 375 CURVE SMOOTH",
"690 542 OFFCURVE",
"608 760 OFFCURVE",
"367 760 CURVE SMOOTH",
"127 760 OFFCURVE",
"49 524 OFFCURVE",
"50 375 CURVE SMOOTH",
"51 164 OFFCURVE",
"167 -20 OFFCURVE",
"377 -20 CURVE SMOOTH"
);
},
{
closed = 1;
nodes = (
"566 -216 OFFCURVE",
"622 -130 OFFCURVE",
"622 -20 CURVE",
"610 -22 LINE",
"619 -135 OFFCURVE",
"532 -181 OFFCURVE",
"378 -145 CURVE SMOOTH",
"304 -128 OFFCURVE",
"252 -95 OFFCURVE",
"213 -95 CURVE SMOOTH",
"209 -95 OFFCURVE",
"209 -92 OFFCURVE",
"213 -92 CURVE SMOOTH",
"297 -88 OFFCURVE",
"377 -64 OFFCURVE",
"393 -11 CURVE",
"311 -12 LINE",
"273 -70 OFFCURVE",
"214 -77 OFFCURVE",
"156 -93 CURVE SMOOTH",
"126 -101 OFFCURVE",
"137 -131 OFFCURVE",
"161 -120 CURVE SMOOTH",
"243 -82 OFFCURVE",
"306 -216 OFFCURVE",
"458 -216 CURVE SMOOTH"
);
},
{
closed = 1;
nodes = (
"207 0 OFFCURVE",
"132 175 OFFCURVE",
"135 375 CURVE SMOOTH",
"137 518 OFFCURVE",
"197 740 OFFCURVE",
"367 740 CURVE SMOOTH",
"537 740 OFFCURVE",
"605 534 OFFCURVE",
"606 375 CURVE SMOOTH",
"607 175 OFFCURVE",
"550 0 OFFCURVE",
"377 0 CURVE SMOOTH"
);
},
{
closed = 1;
nodes = (
"401 300 LINE",
"401 314 LINE",
"383 314 OFFCURVE",
"376 325 OFFCURVE",
"376 352 CURVE SMOOTH",
"376 480 LINE SMOOTH",
"376 507 OFFCURVE",
"382 518 OFFCURVE",
"400 518 CURVE",
"400 532 LINE",
"336 532 LINE",
"336 518 LINE",
"354 518 OFFCURVE",
"360 507 OFFCURVE",
"360 480 CURVE SMOOTH",
"360 352 LINE SMOOTH",
"360 325 OFFCURVE",
"353 314 OFFCURVE",
"336 314 CURVE",
"336 300 LINE"
);
},
{
closed = 1;
nodes = (
"266 384 LINE",
"266 402 OFFCURVE",
"277 409 OFFCURVE",
"304 409 CURVE SMOOTH",
"432 409 LINE SMOOTH",
"459 409 OFFCURVE",
"470 403 OFFCURVE",
"470 385 CURVE",
"484 385 LINE",
"484 449 LINE",
"470 449 LINE",
"470 431 OFFCURVE",
"459 425 OFFCURVE",
"432 425 CURVE SMOOTH",
"304 425 LINE SMOOTH",
"277 425 OFFCURVE",
"266 432 OFFCURVE",
"266 449 CURVE",
"252 449 LINE",
"252 384 LINE"
);
}
);
width = 740;
}
);
leftKerningGroup = O;
leftMetricsKey = "=O";
rightKerningGroup = O;
rightMetricsKey = "=O";
},
{
glyphname = U.vietnamese;
lastChange = "2020-03-12 02:53:19 +0000";
layers = (
{
anchors = (
{
name = _topright;
position = "{636, 740}";
},
{
name = bottom;
position = "{354, 0}";
},
{
name = ogonek;
position = "{391, -15}";
},
{
name = top;
position = "{376, 737}";
}
);
guideLines = (
{
position = "{524, -20}";
},
{
position = "{153, 249}";
},
{
angle = 270;
position = "{486, 701}";
},
{
angle = 90;
position = "{711, 705}";
},
{
angle = 270;
position = "{40, 701}";
},
{
angle = 90;
position = "{265, 705}";
}
);
layerId = "8BDB995E-2F86-4134-8150-9944A684F6E9";
paths = (
{
closed = 1;
nodes = (
"618 740 LINE",
"474 740 LINE",
"474 719 LINE",
"523 735 OFFCURVE",
"572 720 OFFCURVE",
"572 681 CURVE SMOOTH",
"572 256 LINE SMOOTH",
"572 155 OFFCURVE",
"541 -1 OFFCURVE",
"375 -1 CURVE SMOOTH",
"294 -1 OFFCURVE",
"190 61 OFFCURVE",
"190 249 CURVE SMOOTH",
"190 680 LINE SMOOTH",
"190 716 OFFCURVE",
"216 731 OFFCURVE",
"265 715 CURVE",
"265 740 LINE",
"228 739 OFFCURVE",
"193 737 OFFCURVE",
"154 737 CURVE SMOOTH",
"115 737 OFFCURVE",
"78 739 OFFCURVE",
"40 740 CURVE",
"40 715 LINE",
"89 731 OFFCURVE",
"115 716 OFFCURVE",
"115 680 CURVE SMOOTH",
"115 237 LINE SMOOTH",
"120 42 OFFCURVE",
"251 -20 OFFCURVE",
"371 -20 CURVE SMOOTH",
"528 -20 OFFCURVE",
"599 106 OFFCURVE",
"601 249 CURVE SMOOTH",
"601 681 LINE SMOOTH",
"601 711 OFFCURVE",
"598 727 OFFCURVE",
"618 725 CURVE"
);
}
);
width = 651;
}
);
leftKerningGroup = O;
leftMetricsKey = "=H";
rightMetricsKey = "=33";
},
{
glyphname = a;
lastChange = "2020-03-12 18:22:35 +0000";
layers = (
{
anchors = (
{
name = bottom;
position = "{213, 0}";
},
{
name = ogonek;
position = "{379, 10}";
},
{
name = top;
position = "{227, 467}";
}
);
guideLines = (
{
position = "{628, -260}";
}
);
layerId = "8BDB995E-2F86-4134-8150-9944A684F6E9";
paths = (
{
closed = 1;
nodes = (
"298 -10 OFFCURVE",
"323 141 OFFCURVE",
"323 150 CURVE SMOOTH",
"323 76 OFFCURVE",
"315 -10 OFFCURVE",
"378 -10 CURVE SMOOTH",
"412 -10 OFFCURVE",
"452 14 OFFCURVE",
"452 67 CURVE",
"442 67 LINE",
"442 48 OFFCURVE",
"428 26 OFFCURVE",
"415 26 CURVE SMOOTH",
"383 26 OFFCURVE",
"383 81 OFFCURVE",
"383 101 CURVE SMOOTH",
"383 318 LINE SMOOTH",
"383 382 OFFCURVE",
"348 488 OFFCURVE",
"219 488 CURVE SMOOTH",
"126 488 OFFCURVE",
"58 407 OFFCURVE",
"58 336 CURVE",
"189 336 LINE",
"189 363 LINE",
"180 363 LINE",
"180 354 OFFCURVE",
"167 346 OFFCURVE",
"153 346 CURVE SMOOTH",
"128 346 OFFCURVE",
"125 354 OFFCURVE",
"125 370 CURVE SMOOTH",
"125 430 OFFCURVE",
"148 475 OFFCURVE",
"204 475 CURVE SMOOTH",
"297 475 OFFCURVE",
"323 390 OFFCURVE",
"323 307 CURVE",
"313 273 OFFCURVE",
"213 269 OFFCURVE",
"139 246 CURVE SMOOTH",
"98 233 OFFCURVE",
"40 191 OFFCURVE",
"40 123 CURVE SMOOTH",
"40 33 OFFCURVE",
"103 -10 OFFCURVE",
"172 -10 CURVE SMOOTH"
);
},
{
closed = 1;
nodes = (
"129 18 OFFCURVE",
"100 76 OFFCURVE",
"100 129 CURVE SMOOTH",
"100 177 OFFCURVE",
"126 221 OFFCURVE",
"191 245 CURVE SMOOTH",
"265 272 OFFCURVE",
"321 277 OFFCURVE",
"321 285 CURVE SMOOTH",
"321 171 LINE SMOOTH",
"321 124 OFFCURVE",
"268 18 OFFCURVE",
"195 18 CURVE SMOOTH"
);
}
);
width = 472;
}
);
leftKerningGroup = a;
leftMetricsKey = "=s";
rightKerningGroup = a;
rightMetricsKey = "=n";
unicode = 0061;
},
{
glyphname = ae;
lastChange = "2020-03-12 02:53:19 +0000";
layers = (
{
anchors = (
{
name = bottom;
position = "{482, 0}";
},
{
name = ogonek;
position = "{481, -1}";
},
{
name = top;
position = "{486, 467}";
}
);
layerId = "8BDB995E-2F86-4134-8150-9944A684F6E9";
paths = (
{
closed = 1;
nodes = (
"288 -10 OFFCURVE",
"318 124 OFFCURVE",
"321 141 CURVE",
"329 141 LINE",
"347 39 OFFCURVE",
"395 -10 OFFCURVE",
"496 -10 CURVE SMOOTH",
"595 -10 OFFCURVE",
"666 79 OFFCURVE",
"660 155 CURVE",
"533 155 LINE",
"533 128 LINE",
"542 128 LINE",
"542 152 OFFCURVE",
"599 159 OFFCURVE",
"597 112 CURVE SMOOTH",
"595 66 OFFCURVE",
"570 6 OFFCURVE",
"502 6 CURVE SMOOTH",
"409 6 OFFCURVE",
"379 115 OFFCURVE",
"377 241 CURVE",
"667 241 LINE",
"668 250 LINE SMOOTH",
"679 348 OFFCURVE",
"651 487 OFFCURVE",
"494 487 CURVE SMOOTH",
"426 487 OFFCURVE",
"370 440 OFFCURVE",
"350 391 CURVE",
"331 436 OFFCURVE",
"287 488 OFFCURVE",
"209 488 CURVE SMOOTH",
"116 488 OFFCURVE",
"48 407 OFFCURVE",
"48 336 CURVE",
"179 336 LINE",
"179 363 LINE",
"170 363 LINE",
"170 354 OFFCURVE",
"157 346 OFFCURVE",
"143 346 CURVE SMOOTH",
"118 346 OFFCURVE",
"115 354 OFFCURVE",
"115 370 CURVE SMOOTH",
"115 430 OFFCURVE",
"138 475 OFFCURVE",
"194 475 CURVE SMOOTH",
"287 475 OFFCURVE",
"313 390 OFFCURVE",
"313 307 CURVE",
"303 273 OFFCURVE",
"203 269 OFFCURVE",
"129 246 CURVE SMOOTH",
"88 233 OFFCURVE",
"30 191 OFFCURVE",
"30 123 CURVE SMOOTH",
"30 33 OFFCURVE",
"93 -10 OFFCURVE",
"162 -10 CURVE SMOOTH"
);
},
{
closed = 1;
nodes = (
"119 18 OFFCURVE",
"90 76 OFFCURVE",
"90 129 CURVE SMOOTH",
"90 177 OFFCURVE",
"116 221 OFFCURVE",
"181 245 CURVE SMOOTH",
"255 272 OFFCURVE",
"311 277 OFFCURVE",
"311 285 CURVE SMOOTH",
"311 171 LINE SMOOTH",
"311 124 OFFCURVE",
"258 18 OFFCURVE",
"185 18 CURVE SMOOTH"
);
},
{
closed = 1;
nodes = (
"378 373 OFFCURVE",
"396 475 OFFCURVE",
"490 475 CURVE SMOOTH",
"585 475 OFFCURVE",
"603 372 OFFCURVE",
"598 277 CURVE SMOOTH",
"597 259 OFFCURVE",
"597 256 OFFCURVE",
"572 256 CURVE SMOOTH",
"377 256 LINE"
);
}
);
width = 705;
}
);
leftKerningGroup = a;
rightKerningGroup = e;
rightMetricsKey = "=e";
unicode = 00E6;
},
{
glyphname = b;
lastChange = "2020-03-12 18:03:48 +0000";
layers = (
{
anchors = (
{
name = bottom;
position = "{267, 0}";
},
{
name = top;
position = "{245, 900}";
}
);
backgroundImage = {
alpha = 10;
crop = "{{0, 0}, {1375, 543}}";
imagePath = "../../../../Screen Shot 2019-04-06 at 19.33.46.png";
locked = "1";
transform = "{3.18934, 0, 0, 3.18934, -2396, -692}";
};
guideLines = (
{
position = "{567, 477}";
},
{
position = "{624, 487}";
},
{
angle = 270;
position = "{486, 259}";
},
{
position = "{427, 242}";
},
{
angle = 40.9144;
position = "{273, 497}";
}
);
layerId = "8BDB995E-2F86-4134-8150-9944A684F6E9";
paths = (
{
closed = 1;
nodes = (
"40 741 OFFCURVE",
"58 743 OFFCURVE",
"73 748 CURVE",
"73 0 LINE",
"109 0 LINE",
"132 73 LINE",
"150 73 LINE",
"174 24 OFFCURVE",
"215 -10 OFFCURVE",
"284 -10 CURVE SMOOTH",
"418 -10 OFFCURVE",
"459 120 OFFCURVE",
"459 258 CURVE SMOOTH",
"459 377 OFFCURVE",
"402 487 OFFCURVE",
"283 487 CURVE SMOOTH",
"215 487 OFFCURVE",
"170 441 OFFCURVE",
"144 386 CURVE",
"128 386 LINE",
"127 800 LINE",
"109 800 LINE",
"95 780 OFFCURVE",
"76 755 OFFCURVE",
"54 755 CURVE SMOOTH",
"41 755 OFFCURVE",
"29 763 OFFCURVE",
"29 772 CURVE",
"20 772 LINE",
"20 745 LINE"
);
},
{
closed = 1;
nodes = (
"140 326 OFFCURVE",
"175 475 OFFCURVE",
"268 475 CURVE SMOOTH",
"357 475 OFFCURVE",
"389 359 OFFCURVE",
"389 243 CURVE SMOOTH",
"389 127 OFFCURVE",
"360 8 OFFCURVE",
"266 8 CURVE SMOOTH",
"160 8 OFFCURVE",
"140 129 OFFCURVE",
"140 242 CURVE SMOOTH"
);
}
);
width = 499;
}
);
leftKerningGroup = h;
leftMetricsKey = "=h";
rightKerningGroup = o;
rightMetricsKey = "=o";
unicode = 0062;
},
{
glyphname = c;
lastChange = "2020-03-12 18:20:57 +0000";
layers = (
{
anchors = (
{
name = bottom;
position = "{234, 0}";
},
{
name = top;
position = "{239, 467}";
}
);
backgroundImage = {
alpha = 10;
crop = "{{0, 0}, {408, 394}}";
imagePath = "../../../GY167/Desktop/Screen Shot 2019-04-14 at 22.48.12.png";
locked = "1";
transform = "{3.27832, 0, 0, 3.27832, -70, -302}";
};
guideLines = (
{
position = "{383, 487}";
},
{
position = "{314, -10}";
},
{
position = "{361, 155}";
},
{
angle = 90;
position = "{245, 354}";
},
{
angle = 90;
position = "{40, 252}";
},
{
angle = 90;
position = "{398, 318}";
},
{
angle = 90;
position = "{328, 319}";
}
);
layerId = "8BDB995E-2F86-4134-8150-9944A684F6E9";
paths = (
{
closed = 1;
nodes = (
"329 -10 OFFCURVE",
"387 51 OFFCURVE",
"405 116 CURVE",
"383 116 LINE",
"370 61 OFFCURVE",
"327 9 OFFCURVE",
"255 9 CURVE SMOOTH",
"150 9 OFFCURVE",
"110 112 OFFCURVE",
"110 230 CURVE SMOOTH",
"110 394 OFFCURVE",
"164 475 OFFCURVE",
"245 475 CURVE SMOOTH",
"275 475 OFFCURVE",
"330 454 OFFCURVE",
"334 413 CURVE SMOOTH",
"338 374 OFFCURVE",
"295 327 OFFCURVE",
"358 327 CURVE SMOOTH",
"392 327 OFFCURVE",
"405 357 OFFCURVE",
"398 395 CURVE SMOOTH",
"388 450 OFFCURVE",
"308 487 OFFCURVE",
"235 487 CURVE SMOOTH",
"104 487 OFFCURVE",
"40 361 OFFCURVE",
"40 239 CURVE SMOOTH",
"40 116 OFFCURVE",
"97 -10 OFFCURVE",
"252 -10 CURVE SMOOTH"
);
}
);
width = 435;
}
);
leftKerningGroup = o;
leftMetricsKey = "=o";
rightKerningGroup = c;
rightMetricsKey = "=o-10";
unicode = 0063;
},
{
glyphname = d;
lastChange = "2020-03-12 02:53:19 +0000";
layers = (
{
anchors = (
{
name = bottom;
position = "{239, 0}";
},
{
name = center;
position = "{299, 694}";
},
{
name = top;
position = "{207, 467}";
},
{
name = topright;
position = "{485, 467}";
}
);
layerId = "8BDB995E-2F86-4134-8150-9944A684F6E9";
paths = (
{
closed = 1;
nodes = (
"284 -10 OFFCURVE",
"325 24 OFFCURVE",
"349 73 CURVE",
"367 73 LINE",
"390 0 LINE",
"475 0 LINE",
"475 15 LINE",
"436 2 OFFCURVE",
"427 15 OFFCURVE",
"426 39 CURVE SMOOTH",
"426 800 LINE",
"412 800 LINE",
"398 780 OFFCURVE",
"375 755 OFFCURVE",
"353 755 CURVE SMOOTH",
"340 755 OFFCURVE",
"328 763 OFFCURVE",
"328 772 CURVE",
"319 772 LINE",
"319 745 LINE",
"339 741 OFFCURVE",
"357 743 OFFCURVE",
"372 748 CURVE",
"372 647 LINE",
"371 386 LINE",
"355 386 LINE",
"329 441 OFFCURVE",
"284 487 OFFCURVE",
"216 487 CURVE SMOOTH",
"97 487 OFFCURVE",
"40 377 OFFCURVE",
"40 258 CURVE SMOOTH",
"40 120 OFFCURVE",
"81 -10 OFFCURVE",
"215 -10 CURVE SMOOTH"
);
},
{
closed = 1;
nodes = (
"139 8 OFFCURVE",
"110 127 OFFCURVE",
"110 243 CURVE SMOOTH",
"110 359 OFFCURVE",
"142 475 OFFCURVE",
"231 475 CURVE SMOOTH",
"324 475 OFFCURVE",
"359 326 OFFCURVE",
"359 242 CURVE SMOOTH",
"359 129 OFFCURVE",
"339 8 OFFCURVE",
"233 8 CURVE SMOOTH"
);
}
);
width = 505;
}
);
leftKerningGroup = o;
leftMetricsKey = "=o";
rightKerningGroup = d;
rightMetricsKey = "=|n";
unicode = 0064;
},
{
glyphname = eth;
lastChange = "2020-03-12 02:53:19 +0000";
layers = (
{
layerId = "8BDB995E-2F86-4134-8150-9944A684F6E9";
paths = (
{
closed = 1;
nodes = (
"367 -10 OFFCURVE",
"431 105 OFFCURVE",
"443 233 CURVE SMOOTH",
"451 320 OFFCURVE",
"443 440 OFFCURVE",
"420 517 CURVE SMOOTH",
"376 665 OFFCURVE",
"299 767 OFFCURVE",
"145 800 CURVE",
"140 780 LINE",
"210 761 OFFCURVE",
"347 686 OFFCURVE",
"370 399 CURVE SMOOTH",
"370 391 OFFCURVE",
"367 387 OFFCURVE",
"361 390 CURVE",
"328 430 OFFCURVE",
"300 467 OFFCURVE",
"206 466 CURVE SMOOTH",
"116 465 OFFCURVE",
"35 364 OFFCURVE",
"35 239 CURVE SMOOTH",
"35 125 OFFCURVE",
"73 -10 OFFCURVE",
"230 -10 CURVE SMOOTH"
);
},
{
closed = 1;
nodes = (
"108 8 OFFCURVE",
"104 138 OFFCURVE",
"104 239 CURVE SMOOTH",
"104 347 OFFCURVE",
"140 448 OFFCURVE",
"220 451 CURVE SMOOTH",
"320 455 OFFCURVE",
"364 356 OFFCURVE",
"364 235 CURVE SMOOTH",
"364 125 OFFCURVE",
"332 8 OFFCURVE",
"230 8 CURVE SMOOTH"
);
},
{
closed = 1;
nodes = (
"424 749 LINE",
"406 770 LINE",
"141 569 LINE",
"159 548 LINE"
);
}
);
width = 481;
}
);
unicode = 00F0;
},
{
glyphname = dcaron;
lastChange = "2020-03-12 02:53:19 +0000";
layers = (
{
anchors = (
{
name = _topleft;
position = "{32, 740}";
}
);
layerId = "8BDB995E-2F86-4134-8150-9944A684F6E9";
paths = (
{
closed = 1;
nodes = (
"284 -10 OFFCURVE",
"325 24 OFFCURVE",
"349 73 CURVE",
"367 73 LINE",
"390 0 LINE",
"475 0 LINE",
"475 15 LINE",
"436 2 OFFCURVE",
"427 15 OFFCURVE",
"426 39 CURVE SMOOTH",
"426 800 LINE",
"412 800 LINE",
"398 780 OFFCURVE",
"375 755 OFFCURVE",
"353 755 CURVE SMOOTH",
"340 755 OFFCURVE",
"328 763 OFFCURVE",
"328 772 CURVE",
"319 772 LINE",
"319 745 LINE",
"339 741 OFFCURVE",
"357 743 OFFCURVE",
"372 748 CURVE",
"372 647 LINE",
"371 386 LINE",
"355 386 LINE",
"329 441 OFFCURVE",
"284 487 OFFCURVE",
"216 487 CURVE SMOOTH",
"97 487 OFFCURVE",
"40 377 OFFCURVE",
"40 258 CURVE SMOOTH",
"40 120 OFFCURVE",
"81 -10 OFFCURVE",
"215 -10 CURVE SMOOTH"
);
},
{
closed = 1;
nodes = (
"139 8 OFFCURVE",
"110 127 OFFCURVE",
"110 243 CURVE SMOOTH",
"110 359 OFFCURVE",
"142 475 OFFCURVE",
"231 475 CURVE SMOOTH",
"324 475 OFFCURVE",
"359 326 OFFCURVE",
"359 242 CURVE SMOOTH",
"359 129 OFFCURVE",
"339 8 OFFCURVE",
"233 8 CURVE SMOOTH"
);
},
{
closed = 1;
nodes = (
"502 590 OFFCURVE",
"522 590 OFFCURVE",
"522 612 CURVE SMOOTH",
"523 660 OFFCURVE",
"542 711 OFFCURVE",
"542 763 CURVE SMOOTH",
"542 789 OFFCURVE",
"528 806 OFFCURVE",
"512 806 CURVE SMOOTH",
"495 806 OFFCURVE",
"482 789 OFFCURVE",
"482 763 CURVE SMOOTH",
"482 711 OFFCURVE",
"502 662 OFFCURVE",
"502 612 CURVE SMOOTH"
);
}
);
width = 505;
}
);
leftKerningGroup = o;
rightKerningGroup = d;
unicode = 010F;
},
{
glyphname = dcroat;
lastChange = "2020-03-12 02:53:19 +0000";
layers = (
{
layerId = "8BDB995E-2F86-4134-8150-9944A684F6E9";
paths = (
{
closed = 1;
nodes = (
"284 -10 OFFCURVE",
"325 24 OFFCURVE",
"349 73 CURVE",
"367 73 LINE",
"390 0 LINE",
"475 0 LINE",
"475 15 LINE",
"436 2 OFFCURVE",
"427 15 OFFCURVE",
"426 39 CURVE SMOOTH",
"426 800 LINE",
"412 800 LINE",
"398 780 OFFCURVE",
"375 755 OFFCURVE",
"353 755 CURVE SMOOTH",
"340 755 OFFCURVE",
"328 763 OFFCURVE",
"328 772 CURVE",
"319 772 LINE",
"319 745 LINE",
"339 741 OFFCURVE",
"357 743 OFFCURVE",
"372 748 CURVE",
"372 647 LINE",
"371 386 LINE",
"355 386 LINE",
"329 441 OFFCURVE",
"284 487 OFFCURVE",
"216 487 CURVE SMOOTH",
"97 487 OFFCURVE",
"40 377 OFFCURVE",
"40 258 CURVE SMOOTH",
"40 120 OFFCURVE",
"81 -10 OFFCURVE",
"215 -10 CURVE SMOOTH"
);
},
{
closed = 1;
nodes = (
"139 8 OFFCURVE",
"110 127 OFFCURVE",
"110 243 CURVE SMOOTH",
"110 359 OFFCURVE",
"142 475 OFFCURVE",
"231 475 CURVE SMOOTH",
"324 475 OFFCURVE",
"359 326 OFFCURVE",
"359 242 CURVE SMOOTH",
"359 129 OFFCURVE",
"339 8 OFFCURVE",
"233 8 CURVE SMOOTH"
);
},
{
closed = 1;
nodes = (
"506 614 LINE",
"506 638 LINE",
"233 638 LINE",
"233 614 LINE"
);
}
);
width = 506;
}
);
leftKerningGroup = o;
leftMetricsKey = "=o";
rightKerningGroup = d;
unicode = 0111;
},
{
glyphname = e;
lastChange = "2020-03-12 18:22:27 +0000";
layers = (
{
anchors = (
{
name = bottom;
position = "{228, 0}";
},
{
name = ogonek;
position = "{264, 0}";
},
{
name = top;
position = "{232, 467}";
}
);
guideLines = (
{
position = "{498, -10}";
},
{
position = "{384, 487}";
},
{
angle = 90;
position = "{235, 239}";
}
);
layerId = "8BDB995E-2F86-4134-8150-9944A684F6E9";
paths = (
{
closed = 1;
nodes = (
"339 -7 OFFCURVE",
"410 79 OFFCURVE",
"404 155 CURVE",
"277 155 LINE",
"277 128 LINE",
"286 128 LINE",
"286 152 OFFCURVE",
"343 159 OFFCURVE",
"341 112 CURVE SMOOTH",
"339 66 OFFCURVE",
"314 6 OFFCURVE",
"235 6 CURVE SMOOTH",
"142 6 OFFCURVE",
"112 104 OFFCURVE",
"110 230 CURVE",
"411 230 LINE",
"412 239 LINE SMOOTH",
"423 337 OFFCURVE",
"397 487 OFFCURVE",
"227 487 CURVE SMOOTH",
"96 487 OFFCURVE",
"40 361 OFFCURVE",
"40 239 CURVE SMOOTH",
"40 79 OFFCURVE",
"101 -10 OFFCURVE",
"229 -10 CURVE SMOOTH"
);
},
{
closed = 1;
nodes = (
"111 360 OFFCURVE",
"129 475 OFFCURVE",
"223 475 CURVE SMOOTH",
"331 475 OFFCURVE",
"351 361 OFFCURVE",
"344 266 CURVE SMOOTH",
"343 248 OFFCURVE",
"343 245 OFFCURVE",
"318 245 CURVE SMOOTH",
"110 245 LINE"
);
}
);
width = 449;
}
);
leftKerningGroup = o;
leftMetricsKey = "=o";
rightKerningGroup = o;
rightMetricsKey = "=o-5";
unicode = 0065;
},
{
glyphname = f;
lastChange = "2020-03-12 17:59:10 +0000";
layers = (
{
guideLines = (
{
position = "{424, 166}";
},
{
position = "{8, 477}";
},
{
angle = 270;
position = "{-4, 468}";
},
{
angle = 90;
position = "{125, 422}";
},
{
angle = 270;
position = "{206, 468}";
},
{
angle = 180;
position = "{128, 468}";
},
{
position = "{209, 804}";
}
);
layerId = "8BDB995E-2F86-4134-8150-9944A684F6E9";
paths = (
{
closed = 1;
nodes = (
"201 0 LINE",
"201 15 LINE",
"152 -1 OFFCURVE",
"151 24 OFFCURVE",
"151 60 CURVE SMOOTH",
"151 453 LINE",
"230 453 LINE",
"230 468 LINE",
"151 468 LINE",
"151 643 LINE SMOOTH",
"151 770 OFFCURVE",
"171 795 OFFCURVE",
"201 795 CURVE SMOOTH",
"268 795 OFFCURVE",
"239 715 OFFCURVE",
"239 676 CURVE SMOOTH",
"239 619 OFFCURVE",
"273 571 OFFCURVE",
"324 571 CURVE",
"324 581 LINE",
"257 581 OFFCURVE",
"306 672 OFFCURVE",
"306 716 CURVE SMOOTH",
"306 774 OFFCURVE",
"268 804 OFFCURVE",
"208 804 CURVE SMOOTH",
"167 804 OFFCURVE",
"89 770 OFFCURVE",
"89 643 CURVE SMOOTH",
"89 468 LINE",
"20 468 LINE",
"20 453 LINE",
"89 453 LINE",
"89 60 LINE SMOOTH",
"89 24 OFFCURVE",
"85 -1 OFFCURVE",
"36 15 CURVE",
"36 0 LINE"
);
}
);
width = 244;
}
);
leftKerningGroup = i;
leftMetricsKey = "=n-10";
rightKerningGroup = f;
rightMetricsKey = "=n-100";
unicode = 0066;
},
{
glyphname = g;
lastChange = "2020-03-12 18:22:30 +0000";
layers = (
{
anchors = (
{
name = bottom;
position = "{224, -360}";
},
{
name = top;
position = "{224, 467}";
}
);
guideLines = (
{
position = "{255, 154}";
},
{
position = "{209, 166}";
},
{
position = "{46, -264}";
},
{
angle = 270;
position = "{223, 161}";
},
{
angle = 90;
position = "{406, -74}";
},
{
angle = 90;
position = "{438, 309}";
},
{
angle = 90;
position = "{30, -74}";
},
{
angle = 90;
position = "{62, 309}";
}
);
layerId = "8BDB995E-2F86-4134-8150-9944A684F6E9";
paths = (
{
closed = 1;
nodes = (
"354 -264 OFFCURVE",
"438 -170 OFFCURVE",
"438 -74 CURVE SMOOTH",
"438 0 OFFCURVE",
"390 78 OFFCURVE",
"268 80 CURVE SMOOTH",
"160 82 LINE SMOOTH",
"122 82 OFFCURVE",
"75 89 OFFCURVE",
"73 126 CURVE SMOOTH",
"72 147 OFFCURVE",
"81 192 OFFCURVE",
"138 192 CURVE",
"136 201 LINE",
"67 201 OFFCURVE",
"43 141 OFFCURVE",
"43 106 CURVE SMOOTH",
"43 71 OFFCURVE",
"65 35 OFFCURVE",
"173 35 CURVE SMOOTH",
"275 35 OFFCURVE",
"373 12 OFFCURVE",
"373 -81 CURVE SMOOTH",
"373 -184 OFFCURVE",
"318 -246 OFFCURVE",
"223 -246 CURVE SMOOTH",
"128 -246 OFFCURVE",
"91 -182 OFFCURVE",
"91 -117 CURVE SMOOTH",
"91 -61 OFFCURVE",
"102 -8 OFFCURVE",
"175 -8 CURVE",
"175 0 LINE",
"68 0 OFFCURVE",
"30 -67 OFFCURVE",
"30 -117 CURVE SMOOTH",
"30 -197 OFFCURVE",
"114 -264 OFFCURVE",
"223 -264 CURVE SMOOTH"
);
},
{
closed = 1;
nodes = (
"342 154 OFFCURVE",
"389 228 OFFCURVE",
"389 320 CURVE SMOOTH",
"389 404 OFFCURVE",
"342 487 OFFCURVE",
"223 487 CURVE SMOOTH",
"107 487 OFFCURVE",
"62 404 OFFCURVE",
"62 320 CURVE SMOOTH",
"62 228 OFFCURVE",
"107 154 OFFCURVE",
"223 154 CURVE SMOOTH"
);
},
{
closed = 1;
nodes = (
"149 166 OFFCURVE",
"130 234 OFFCURVE",
"130 320 CURVE SMOOTH",
"130 399 OFFCURVE",
"149 475 OFFCURVE",
"223 475 CURVE SMOOTH",
"299 475 OFFCURVE",
"319 399 OFFCURVE",
"319 320 CURVE SMOOTH",
"319 234 OFFCURVE",
"299 166 OFFCURVE",
"223 166 CURVE SMOOTH"
);
},
{
closed = 1;
nodes = (
"458 446 OFFCURVE",
"439 474 OFFCURVE",
"411 484 CURVE SMOOTH",
"383 494 OFFCURVE",
"331 473 OFFCURVE",
"317 440 CURVE",
"328 435 LINE",
"332 446 OFFCURVE",
"356 472 OFFCURVE",
"373 468 CURVE SMOOTH",
"399 462 OFFCURVE",
"404 378 OFFCURVE",
"439 422 CURVE SMOOTH"
);
}
);
width = 457;
}
);
leftKerningGroup = g;
leftMetricsKey = "=n";
rightKerningGroup = g;
rightMetricsKey = "=10";
unicode = 0067;
},
{
glyphname = h;
lastChange = "2020-03-12 18:02:46 +0000";
layers = (
{
anchors = (
{
name = bottom;
position = "{257, 0}";
},
{
name = center;
position = "{242, 450}";
},
{
name = top;
position = "{242, 900}";
}
);
layerId = "8BDB995E-2F86-4134-8150-9944A684F6E9";
paths = (
{
closed = 1;
nodes = (
"484 0 LINE",
"484 15 LINE",
"435 -1 OFFCURVE",
"431 24 OFFCURVE",
"431 60 CURVE SMOOTH",
"431 328 LINE SMOOTH",
"431 429 OFFCURVE",
"344 488 OFFCURVE",
"270 488 CURVE SMOOTH",
"146 488 OFFCURVE",
"118 324 OFFCURVE",
"118 269 CURVE",
"143 269 LINE",
"143 339 OFFCURVE",
"165 475 OFFCURVE",
"261 475 CURVE SMOOTH",
"320 475 OFFCURVE",
"364 435 OFFCURVE",
"364 340 CURVE SMOOTH",
"364 60 LINE SMOOTH",
"364 24 OFFCURVE",
"363 -1 OFFCURVE",
"314 15 CURVE",
"314 0 LINE"
);
},
{
closed = 1;
nodes = (
"193 0 LINE",
"193 15 LINE",
"144 -1 OFFCURVE",
"143 24 OFFCURVE",
"143 60 CURVE SMOOTH",
"143 386 LINE",
"128 386 LINE",
"127 800 LINE",
"106 800 LINE",
"92 780 OFFCURVE",
"76 755 OFFCURVE",
"54 755 CURVE SMOOTH",
"41 755 OFFCURVE",
"29 763 OFFCURVE",
"29 772 CURVE",
"20 772 LINE",
"20 745 LINE",
"40 741 OFFCURVE",
"58 743 OFFCURVE",
"73 748 CURVE",
"73 60 LINE SMOOTH",
"73 24 OFFCURVE",
"69 -1 OFFCURVE",
"20 15 CURVE",
"20 0 LINE"
);
}
);
width = 504;
}
);
leftKerningGroup = h;
leftMetricsKey = "=20";
rightKerningGroup = n;
rightMetricsKey = "=n";
unicode = 0068;
},
{
glyphname = hbar;
lastChange = "2020-03-12 02:53:19 +0000";
layers = (
{
layerId = "8BDB995E-2F86-4134-8150-9944A684F6E9";
paths = (
{
closed = 1;
nodes = (
"499 0 LINE",
"499 15 LINE",
"450 -1 OFFCURVE",
"446 24 OFFCURVE",
"446 60 CURVE SMOOTH",
"446 328 LINE SMOOTH",
"446 429 OFFCURVE",
"359 488 OFFCURVE",
"285 488 CURVE SMOOTH",
"161 488 OFFCURVE",
"133 324 OFFCURVE",
"133 269 CURVE",
"158 269 LINE",
"158 339 OFFCURVE",
"180 475 OFFCURVE",
"276 475 CURVE SMOOTH",
"335 475 OFFCURVE",
"379 435 OFFCURVE",
"379 340 CURVE SMOOTH",
"379 60 LINE SMOOTH",
"379 24 OFFCURVE",
"378 -1 OFFCURVE",
"329 15 CURVE",
"329 0 LINE"
);
},
{
closed = 1;
nodes = (
"208 0 LINE",
"208 15 LINE",
"159 -1 OFFCURVE",
"158 24 OFFCURVE",
"158 60 CURVE SMOOTH",
"158 386 LINE",
"143 386 LINE",
"142 800 LINE",
"121 800 LINE",
"107 780 OFFCURVE",
"91 755 OFFCURVE",
"69 755 CURVE SMOOTH",
"56 755 OFFCURVE",
"44 763 OFFCURVE",
"44 772 CURVE",
"35 772 LINE",
"35 745 LINE",
"55 741 OFFCURVE",
"73 743 OFFCURVE",
"88 748 CURVE",
"88 60 LINE SMOOTH",
"88 24 OFFCURVE",
"84 -1 OFFCURVE",
"35 15 CURVE",
"35 0 LINE"
);
},
{
closed = 1;
nodes = (
"278 599 LINE",
"278 619 LINE",
"37 619 LINE",
"37 599 LINE"
);
}
);
width = 529;
}
);
leftKerningGroup = h;
rightKerningGroup = n;
unicode = 0127;
},
{
glyphname = i;
lastChange = "2020-03-12 18:13:42 +0000";
layers = (
{
anchors = (
{
name = bottom;
position = "{123, 0}";
}
);
guideLines = (
{
angle = 90;
position = "{155, 264}";
},
{
angle = 180;
position = "{141, 468}";
}
);
layerId = "8BDB995E-2F86-4134-8150-9944A684F6E9";
paths = (
{
closed = 1;
nodes = (
"205 0 LINE",
"205 15 LINE",
"156 -1 OFFCURVE",
"155 24 OFFCURVE",
"155 60 CURVE SMOOTH",
"155 468 LINE",
"126 468 LINE",
"112 448 OFFCURVE",
"96 423 OFFCURVE",
"74 423 CURVE SMOOTH",
"61 423 OFFCURVE",
"49 431 OFFCURVE",
"49 440 CURVE",
"40 440 LINE",
"40 413 LINE",
"60 409 OFFCURVE",
"78 411 OFFCURVE",
"93 416 CURVE",
"93 60 LINE SMOOTH",
"93 24 OFFCURVE",
"89 -1 OFFCURVE",
"40 15 CURVE",
"40 0 LINE"
);
},
{
closed = 1;
nodes = (
"154 532 OFFCURVE",
"171 548 OFFCURVE",
"171 571 CURVE SMOOTH",
"171 593 OFFCURVE",
"152 610 OFFCURVE",
"128 610 CURVE SMOOTH",
"104 610 OFFCURVE",
"86 593 OFFCURVE",
"86 571 CURVE SMOOTH",
"86 548 OFFCURVE",
"104 532 OFFCURVE",
"128 532 CURVE SMOOTH"
);
}
);
width = 235;
}
);
leftKerningGroup = i;
leftMetricsKey = "=n+10";
rightKerningGroup = i;
rightMetricsKey = "=|n";
unicode = 0069;
},
{
glyphname = idotless;
lastChange = "2020-03-11 23:22:21 +0000";
layers = (
{
anchors = (
{
name = bottom;
position = "{118, 0}";
},
{
name = ogonek;
position = "{212, 10}";
},
{
name = top;
position = "{113, 467}";
}
);
layerId = "8BDB995E-2F86-4134-8150-9944A684F6E9";
paths = (
{
closed = 1;
nodes = (
"200 0 LINE",
"200 15 LINE",
"151 -1 OFFCURVE",
"150 24 OFFCURVE",
"150 60 CURVE SMOOTH",
"150 468 LINE",
"121 468 LINE",
"107 448 OFFCURVE",
"91 423 OFFCURVE",
"69 423 CURVE SMOOTH",
"56 423 OFFCURVE",
"44 431 OFFCURVE",
"44 440 CURVE",
"35 440 LINE",
"35 413 LINE",
"55 409 OFFCURVE",
"73 411 OFFCURVE",
"88 416 CURVE",
"88 60 LINE SMOOTH",
"88 24 OFFCURVE",
"84 -1 OFFCURVE",
"35 15 CURVE",
"35 0 LINE"
);
}
);
width = 235;
}
);
leftKerningGroup = i;
rightKerningGroup = i;
unicode = 0131;
},
{
glyphname = j;
lastChange = "2020-03-12 18:49:30 +0000";
layers = (
{
layerId = "8BDB995E-2F86-4134-8150-9944A684F6E9";
paths = (
{
closed = 1;
nodes = (
"77 -265 OFFCURVE",
"144 -226 OFFCURVE",
"144 -133 CURVE SMOOTH",
"144 468 LINE",
"115 468 LINE",
"101 448 OFFCURVE",
"85 423 OFFCURVE",
"63 423 CURVE SMOOTH",
"50 423 OFFCURVE",
"38 431 OFFCURVE",
"38 440 CURVE",
"29 440 LINE",
"29 413 LINE",
"49 409 OFFCURVE",
"67 411 OFFCURVE",
"82 416 CURVE",
"82 -133 LINE SMOOTH",
"82 -226 OFFCURVE",
"64 -254 OFFCURVE",
"29 -254 CURVE SMOOTH",
"-25 -254 OFFCURVE",
"18 -182 OFFCURVE",
"18 -138 CURVE SMOOTH",
"18 -88 OFFCURVE",
"-36 -67 OFFCURVE",
"-70 -67 CURVE",
"-70 -79 LINE",
"22 -79 OFFCURVE",
"-57 -142 OFFCURVE",
"-57 -186 CURVE SMOOTH",
"-57 -229 OFFCURVE",
"-26 -265 OFFCURVE",
"18 -265 CURVE SMOOTH"
);
},
{
closed = 1;
nodes = (
"129 533 OFFCURVE",
"145 548 OFFCURVE",
"145 570 CURVE SMOOTH",
"145 591 OFFCURVE",
"128 607 OFFCURVE",
"105 607 CURVE SMOOTH",
"82 607 OFFCURVE",
"65 591 OFFCURVE",
"65 570 CURVE SMOOTH",
"65 548 OFFCURVE",
"82 533 OFFCURVE",
"105 533 CURVE SMOOTH"
);
}
);
width = 210;
}
);
leftKerningGroup = j;
leftMetricsKey = "=n-100";
rightKerningGroup = j;
rightMetricsKey = "=n+45";
unicode = 006A;
},
{
glyphname = k;
lastChange = "2020-03-12 17:58:34 +0000";
layers = (
{
anchors = (
{
name = bottom;
position = "{229, 0}";
},
{
name = top;
position = "{204, 900}";
}
);
guideLines = (
{
position = "{203, 15}";
}
);
layerId = "8BDB995E-2F86-4134-8150-9944A684F6E9";
paths = (
{
closed = 1;
nodes = (
"180 0 LINE",
"180 15 LINE",
"131 -1 OFFCURVE",
"130 24 OFFCURVE",
"130 60 CURVE SMOOTH",
"131 800 LINE",
"115 800 LINE",
"115 772 OFFCURVE",
"89 755 OFFCURVE",
"60 755 CURVE SMOOTH",
"47 755 OFFCURVE",
"29 763 OFFCURVE",
"29 772 CURVE",
"20 772 LINE",
"20 745 LINE",
"40 741 OFFCURVE",
"58 740 OFFCURVE",
"73 745 CURVE",
"73 60 LINE SMOOTH",
"73 24 OFFCURVE",
"69 -1 OFFCURVE",
"20 15 CURVE",
"20 0 LINE"
);
},
{
closed = 1;
nodes = (
"487 0 LINE",
"487 15 LINE",
"440 3 OFFCURVE",
"420 32 OFFCURVE",
"360 121 CURVE SMOOTH",
"213 343 LINE",
"166 297 LINE",
"229 203 OFFCURVE",
"276 138 OFFCURVE",
"337 46 CURVE SMOOTH",
"349 28 OFFCURVE",
"337 3 OFFCURVE",
"288 15 CURVE",
"288 0 LINE"
);
},
{
closed = 1;
nodes = (
"125 250 LINE",
"183 307 OFFCURVE",
"232 346 OFFCURVE",
"294 408 CURVE SMOOTH",
"327 441 OFFCURVE",
"358 468 OFFCURVE",
"407 452 CURVE",
"407 467 LINE",
"237 467 LINE",
"237 452 LINE",
"286 468 OFFCURVE",
"312 443 OFFCURVE",
"279 411 CURVE SMOOTH",
"218 352 OFFCURVE",
"164 307 OFFCURVE",
"106 250 CURVE"
);
}
);
width = 427;
}
);
leftKerningGroup = h;
leftMetricsKey = "=h";
rightKerningGroup = k;
rightMetricsKey = "=n-80";
unicode = 006B;
},
{
glyphname = l;
lastChange = "2020-03-12 18:35:07 +0000";
layers = (
{
anchors = (
{
name = bottom;
position = "{103, 0}";
},
{
name = center;
position = "{103, 450}";
},
{
name = top;
position = "{88, 783}";
},
{
name = topright;
position = "{205, 807}";
}
);
layerId = "8BDB995E-2F86-4134-8150-9944A684F6E9";
paths = (
{
closed = 1;
nodes = (
"185 0 LINE",
"185 15 LINE",
"136 -1 OFFCURVE",
"135 24 OFFCURVE",
"135 60 CURVE SMOOTH",
"136 800 LINE",
"117 800 LINE",
"117 772 OFFCURVE",
"89 755 OFFCURVE",
"60 755 CURVE SMOOTH",
"47 755 OFFCURVE",
"29 763 OFFCURVE",
"29 772 CURVE",
"20 772 LINE",
"20 745 LINE",
"40 741 OFFCURVE",
"58 740 OFFCURVE",
"73 745 CURVE",
"73 60 LINE SMOOTH",
"73 24 OFFCURVE",
"69 -1 OFFCURVE",
"20 15 CURVE",
"20 0 LINE"
);
}
);
width = 205;
}
);
leftKerningGroup = h;
leftMetricsKey = "=h";
rightKerningGroup = l;
rightMetricsKey = "=|h";
unicode = 006C;
},
{
glyphname = lslash;
lastChange = "2020-03-12 17:58:34 +0000";
layers = (
{
layerId = "8BDB995E-2F86-4134-8150-9944A684F6E9";
paths = (
{
closed = 1;
nodes = (
"196 0 LINE",
"196 15 LINE",
"147 -1 OFFCURVE",
"146 24 OFFCURVE",
"146 60 CURVE SMOOTH",
"147 800 LINE",
"128 800 LINE",
"128 772 OFFCURVE",
"100 755 OFFCURVE",
"71 755 CURVE SMOOTH",
"58 755 OFFCURVE",
"40 763 OFFCURVE",
"40 772 CURVE",
"31 772 LINE",
"31 745 LINE",
"51 741 OFFCURVE",
"69 740 OFFCURVE",
"84 745 CURVE",
"84 60 LINE SMOOTH",
"84 24 OFFCURVE",
"80 -1 OFFCURVE",
"31 15 CURVE",
"31 0 LINE"
);
},
{
closed = 1;
nodes = (
"246 431 LINE",
"246 470 LINE",
"20 369 LINE",
"20 328 LINE"
);
}
);
width = 266;
}
);
leftKerningGroup = h;
leftMetricsKey = "=h";
rightKerningGroup = l;
rightMetricsKey = "=|h";
unicode = 0142;
},
{
glyphname = m;
lastChange = "2020-03-12 18:22:44 +0000";
layers = (
{
guideLines = (
{
position = "{193, 386}";
},
{
position = "{669, 489}";
}
);
layerId = "8BDB995E-2F86-4134-8150-9944A684F6E9";
paths = (
{
closed = 1;
nodes = (
"485 0 LINE",
"485 15 LINE",
"436 -1 OFFCURVE",
"432 24 OFFCURVE",
"432 60 CURVE SMOOTH",
"432 155 OFFCURVE",
"431 246 OFFCURVE",
"431 341 CURVE SMOOTH",
"431 392 OFFCURVE",
"475 476 OFFCURVE",
"542 476 CURVE SMOOTH",
"601 476 OFFCURVE",
"649 436 OFFCURVE",
"649 341 CURVE SMOOTH",
"649 61 LINE SMOOTH",
"649 25 OFFCURVE",
"648 0 OFFCURVE",
"599 16 CURVE",
"599 1 LINE",
"769 1 LINE",
"769 16 LINE",
"720 0 OFFCURVE",
"716 25 OFFCURVE",
"716 61 CURVE SMOOTH",
"716 329 LINE SMOOTH",
"716 430 OFFCURVE",
"625 489 OFFCURVE",
"551 489 CURVE SMOOTH",
"483 489 OFFCURVE",
"436 423 OFFCURVE",
"425 386 CURVE",
"415 386 LINE",
"415 395 OFFCURVE",
"410 406 OFFCURVE",
"408 410 CURVE SMOOTH",
"382 462 OFFCURVE",
"328 488 OFFCURVE",
"277 488 CURVE SMOOTH",
"153 488 OFFCURVE",
"129 324 OFFCURVE",
"129 269 CURVE",
"150 269 LINE",
"150 347 OFFCURVE",
"172 475 OFFCURVE",
"268 475 CURVE SMOOTH",
"327 475 OFFCURVE",
"371 435 OFFCURVE",
"371 340 CURVE SMOOTH",
"371 60 LINE SMOOTH",
"371 24 OFFCURVE",
"370 -1 OFFCURVE",
"321 15 CURVE",
"321 0 LINE"
);
},
{
closed = 1;
nodes = (
"208 0 LINE",
"208 15 LINE",
"159 -1 OFFCURVE",
"158 24 OFFCURVE",
"158 60 CURVE SMOOTH",
"158 386 LINE",
"134 386 LINE",
"134 468 LINE",
"91 425 LINE",
"91 61 LINE SMOOTH",
"91 25 OFFCURVE",
"87 -1 OFFCURVE",
"38 15 CURVE",
"38 0 LINE"
);
},
{
closed = 1;
nodes = (
"90 402 OFFCURVE",
"134 441 OFFCURVE",
"134 461 CURVE SMOOTH",
"134 468 LINE",
"116 468 LINE",
"102 448 OFFCURVE",
"86 423 OFFCURVE",
"64 423 CURVE SMOOTH",
"51 423 OFFCURVE",
"39 431 OFFCURVE",
"39 440 CURVE",
"30 440 LINE",
"30 413 LINE"
);
}
);
width = 789;
}
);
leftKerningGroup = i;
leftMetricsKey = "=n";
rightKerningGroup = n;
rightMetricsKey = "=n";
unicode = 006D;
},
{
glyphname = n;
lastChange = "2020-03-12 18:11:13 +0000";
layers = (
{
anchors = (
{
name = bottom;
position = "{261, 0}";
},
{
name = top;
position = "{248, 467}";
}
);
backgroundImage = {
alpha = 10;
crop = "{{0, 0}, {1375, 543}}";
imagePath = "../../../../Screen Shot 2019-04-06 at 19.33.46.png";
locked = "1";
transform = "{3.062, 0, 0, 3.062, -3501, -645}";
};
guideLines = (
{
position = "{317, 487}";
},
{
angle = 90;
position = "{438, 267}";
},
{
angle = 90;
position = "{30, 411}";
},
{
position = "{269, 15}";
}
);
layerId = "8BDB995E-2F86-4134-8150-9944A684F6E9";
paths = (
{
closed = 1;
nodes = (
"491 0 LINE",
"491 15 LINE",
"442 -1 OFFCURVE",
"438 24 OFFCURVE",
"438 60 CURVE SMOOTH",
"438 328 LINE SMOOTH",
"438 429 OFFCURVE",
"351 488 OFFCURVE",
"277 488 CURVE SMOOTH",
"153 488 OFFCURVE",
"125 324 OFFCURVE",
"125 269 CURVE",
"150 269 LINE",
"150 339 OFFCURVE",
"172 475 OFFCURVE",
"268 475 CURVE SMOOTH",
"327 475 OFFCURVE",
"371 423 OFFCURVE",
"371 328 CURVE SMOOTH",
"371 60 LINE SMOOTH",
"371 24 OFFCURVE",
"370 -1 OFFCURVE",
"321 15 CURVE",
"321 0 LINE"
);
},
{
closed = 1;
nodes = (
"200 0 LINE",
"200 15 LINE",
"151 -1 OFFCURVE",
"150 24 OFFCURVE",
"150 60 CURVE SMOOTH",
"150 386 LINE",
"135 386 LINE",
"134 467 LINE",
"116 467 LINE",
"102 447 OFFCURVE",
"86 422 OFFCURVE",
"64 422 CURVE SMOOTH",
"51 422 OFFCURVE",
"39 430 OFFCURVE",
"39 439 CURVE",
"30 439 LINE",
"30 412 LINE",
"50 408 OFFCURVE",
"68 410 OFFCURVE",
"83 415 CURVE",
"83 60 LINE SMOOTH",
"83 24 OFFCURVE",
"79 -1 OFFCURVE",
"30 15 CURVE",
"30 0 LINE"
);
}
);
width = 511;
}
);
leftKerningGroup = i;
rightKerningGroup = n;
unicode = 006E;
},
{
glyphname = eng;
lastChange = "2020-03-12 18:11:13 +0000";
layers = (
{
layerId = "8BDB995E-2F86-4134-8150-9944A684F6E9";
paths = (
{
closed = 1;
nodes = (
"371 -265 OFFCURVE",
"438 -226 OFFCURVE",
"438 -133 CURVE SMOOTH",
"438 328 LINE SMOOTH",
"438 429 OFFCURVE",
"351 488 OFFCURVE",
"277 488 CURVE SMOOTH",
"153 488 OFFCURVE",
"125 324 OFFCURVE",
"125 269 CURVE",
"150 269 LINE",
"150 339 OFFCURVE",
"172 475 OFFCURVE",
"268 475 CURVE SMOOTH",
"327 475 OFFCURVE",
"371 423 OFFCURVE",
"371 328 CURVE SMOOTH",
"371 -133 LINE SMOOTH",
"371 -226 OFFCURVE",
"358 -254 OFFCURVE",
"323 -254 CURVE SMOOTH",
"269 -254 OFFCURVE",
"312 -182 OFFCURVE",
"312 -138 CURVE SMOOTH",
"312 -88 OFFCURVE",
"258 -67 OFFCURVE",
"224 -67 CURVE",
"224 -79 LINE",
"316 -79 OFFCURVE",
"237 -142 OFFCURVE",
"237 -186 CURVE SMOOTH",
"237 -229 OFFCURVE",
"268 -265 OFFCURVE",
"312 -265 CURVE SMOOTH"
);
},
{
closed = 1;
nodes = (
"200 0 LINE",
"200 15 LINE",
"151 -1 OFFCURVE",
"150 24 OFFCURVE",
"150 60 CURVE SMOOTH",
"150 386 LINE",
"135 386 LINE",
"134 468 LINE",
"116 468 LINE",
"102 448 OFFCURVE",
"86 423 OFFCURVE",
"64 423 CURVE SMOOTH",
"51 423 OFFCURVE",
"39 431 OFFCURVE",
"39 440 CURVE",
"30 440 LINE",
"30 413 LINE",
"50 409 OFFCURVE",
"68 411 OFFCURVE",
"83 416 CURVE",
"83 60 LINE SMOOTH",
"83 24 OFFCURVE",
"79 -1 OFFCURVE",
"30 15 CURVE",
"30 0 LINE"
);
}
);
width = 508;
}
);
leftKerningGroup = i;
leftMetricsKey = "=n";
rightKerningGroup = eng;
rightMetricsKey = "=n+50";
unicode = 014B;
},
{
glyphname = o;
lastChange = "2020-03-12 18:18:44 +0000";
layers = (
{
anchors = (
{
name = bottom;
position = "{239, 0}";
},
{
name = center;
position = "{240, 239}";
},
{
name = ogonek;
position = "{267, 2}";
},
{
name = top;
position = "{239, 467}";
},
{
name = topright;
position = "{354, 431}";
}
);
guideLines = (
{
position = "{447, 475}";
},
{
position = "{378, 487}";
},
{
position = "{309, -10}";
},
{
angle = 90;
position = "{390, 365}";
},
{
position = "{239, 2}";
},
{
position = "{-83, 151}";
},
{
angle = 90;
position = "{40, 376}";
}
);
layerId = "8BDB995E-2F86-4134-8150-9944A684F6E9";
paths = (
{
closed = 1;
nodes = (
"390 -10 OFFCURVE",
"439 101 OFFCURVE",
"439 239 CURVE SMOOTH",
"439 362 OFFCURVE",
"390 487 OFFCURVE",
"239 487 CURVE SMOOTH",
"88 487 OFFCURVE",
"40 362 OFFCURVE",
"40 239 CURVE SMOOTH",
"40 101 OFFCURVE",
"88 -10 OFFCURVE",
"239 -10 CURVE SMOOTH"
);
},
{
closed = 1;
nodes = (
"144 2 OFFCURVE",
"110 109 OFFCURVE",
"110 239 CURVE SMOOTH",
"110 356 OFFCURVE",
"144 475 OFFCURVE",
"239 475 CURVE SMOOTH",
"334 475 OFFCURVE",
"369 356 OFFCURVE",
"369 239 CURVE SMOOTH",
"369 109 OFFCURVE",
"335 2 OFFCURVE",
"239 2 CURVE SMOOTH"
);
}
);
width = 479;
}
);
leftKerningGroup = o;
rightKerningGroup = o;
unicode = 006F;
},
{
glyphname = oslash;
lastChange = "2020-03-12 16:58:21 +0000";
layers = (
{
layerId = "8BDB995E-2F86-4134-8150-9944A684F6E9";
paths = (
{
closed = 1;
nodes = (
"385 -10 OFFCURVE",
"434 101 OFFCURVE",
"434 239 CURVE SMOOTH",
"434 362 OFFCURVE",
"385 487 OFFCURVE",
"234 487 CURVE SMOOTH",
"83 487 OFFCURVE",
"35 362 OFFCURVE",
"35 239 CURVE SMOOTH",
"35 101 OFFCURVE",
"83 -10 OFFCURVE",
"234 -10 CURVE SMOOTH"
);
},
{
closed = 1;
nodes = (
"396 486 LINE",
"374 498 LINE",
"55 0 LINE",
"77 -12 LINE"
);
},
{
closed = 1;
nodes = (
"139 2 OFFCURVE",
"105 109 OFFCURVE",
"105 239 CURVE SMOOTH",
"105 356 OFFCURVE",
"139 475 OFFCURVE",
"234 475 CURVE SMOOTH",
"329 475 OFFCURVE",
"364 356 OFFCURVE",
"364 239 CURVE SMOOTH",
"364 109 OFFCURVE",
"330 2 OFFCURVE",
"234 2 CURVE SMOOTH"
);
}
);
width = 469;
}
);
leftKerningGroup = o;
rightKerningGroup = o;
unicode = 00F8;
},
{
glyphname = oe;
lastChange = "2020-03-12 16:58:21 +0000";
layers = (
{
anchors = (
{
name = bottom;
position = "{690, 0}";
},
{
name = center;
position = "{223, 239}";
},
{
name = ogonek;
position = "{689, -1}";
},
{
name = top;
position = "{694, 467}";
},
{
name = topright;
position = "{388, 467}";
}
);
guideLines = (
{
position = "{30, 149}";
}
);
layerId = "8BDB995E-2F86-4134-8150-9944A684F6E9";
paths = (
{
closed = 1;
nodes = (
"317 -10 OFFCURVE",
"364 28 OFFCURVE",
"393 87 CURVE",
"419 24 OFFCURVE",
"467 -10 OFFCURVE",
"545 -10 CURVE SMOOTH",
"644 -10 OFFCURVE",
"715 79 OFFCURVE",
"709 155 CURVE",
"582 155 LINE",
"582 128 LINE",
"591 128 LINE",
"591 152 OFFCURVE",
"648 159 OFFCURVE",
"646 112 CURVE SMOOTH",
"644 66 OFFCURVE",
"619 6 OFFCURVE",
"551 6 CURVE SMOOTH",
"458 6 OFFCURVE",
"428 115 OFFCURVE",
"426 241 CURVE",
"716 241 LINE",
"717 250 LINE SMOOTH",
"728 348 OFFCURVE",
"700 487 OFFCURVE",
"543 487 CURVE SMOOTH",
"470 487 OFFCURVE",
"420 448 OFFCURVE",
"392 386 CURVE",
"362 445 OFFCURVE",
"316 487 OFFCURVE",
"229 487 CURVE SMOOTH",
"95 487 OFFCURVE",
"40 362 OFFCURVE",
"40 239 CURVE SMOOTH",
"40 101 OFFCURVE",
"95 -10 OFFCURVE",
"229 -10 CURVE SMOOTH"
);
},
{
closed = 1;
nodes = (
"151 2 OFFCURVE",
"110 109 OFFCURVE",
"110 239 CURVE SMOOTH",
"110 356 OFFCURVE",
"151 475 OFFCURVE",
"229 475 CURVE SMOOTH",
"324 475 OFFCURVE",
"352 356 OFFCURVE",
"352 239 CURVE SMOOTH",
"352 109 OFFCURVE",
"325 2 OFFCURVE",
"229 2 CURVE SMOOTH"
);
},
{
closed = 1;
nodes = (
"427 373 OFFCURVE",
"445 475 OFFCURVE",
"539 475 CURVE SMOOTH",
"634 475 OFFCURVE",
"652 373 OFFCURVE",
"647 277 CURVE SMOOTH",
"646 259 OFFCURVE",
"646 256 OFFCURVE",
"621 256 CURVE SMOOTH",
"426 256 LINE"
);
}
);
width = 754;
}
);
leftKerningGroup = o;
leftMetricsKey = "=o";
rightKerningGroup = o;
rightMetricsKey = "=e";
unicode = 0153;
},
{
glyphname = p;
lastChange = "2020-03-12 18:21:23 +0000";
layers = (
{
guideLines = (
{
position = "{716, -10}";
}
);
layerId = "8BDB995E-2F86-4134-8150-9944A684F6E9";
paths = (
{
closed = 1;
nodes = (
"191 -260 LINE",
"191 -245 LINE",
"142 -261 OFFCURVE",
"141 -236 OFFCURVE",
"141 -200 CURVE SMOOTH",
"141 -170 LINE",
"142 91 LINE",
"158 91 LINE",
"184 36 OFFCURVE",
"229 -10 OFFCURVE",
"297 -10 CURVE SMOOTH",
"416 -10 OFFCURVE",
"473 100 OFFCURVE",
"473 219 CURVE SMOOTH",
"473 357 OFFCURVE",
"432 487 OFFCURVE",
"298 487 CURVE SMOOTH",
"229 487 OFFCURVE",
"188 453 OFFCURVE",
"164 404 CURVE",
"146 404 LINE",
"146 467 LINE",
"116 467 LINE",
"102 447 OFFCURVE",
"86 422 OFFCURVE",
"64 422 CURVE SMOOTH",
"51 422 OFFCURVE",
"39 430 OFFCURVE",
"39 439 CURVE",
"30 439 LINE",
"30 412 LINE",
"50 408 OFFCURVE",
"68 410 OFFCURVE",
"83 415 CURVE",
"83 -200 LINE SMOOTH",
"83 -236 OFFCURVE",
"79 -261 OFFCURVE",
"30 -245 CURVE",
"30 -260 LINE"
);
},
{
closed = 1;
nodes = (
"154 348 OFFCURVE",
"174 469 OFFCURVE",
"280 469 CURVE SMOOTH",
"374 469 OFFCURVE",
"403 350 OFFCURVE",
"403 234 CURVE SMOOTH",
"403 118 OFFCURVE",
"371 2 OFFCURVE",
"282 2 CURVE SMOOTH",
"189 2 OFFCURVE",
"154 151 OFFCURVE",
"154 235 CURVE SMOOTH"
);
}
);
width = 513;
}
);
leftKerningGroup = p;
leftMetricsKey = "=n";
rightKerningGroup = o;
rightMetricsKey = "=o";
unicode = 0070;
},
{
glyphname = thorn;
lastChange = "2020-03-12 17:58:34 +0000";
layers = (
{
layerId = "8BDB995E-2F86-4134-8150-9944A684F6E9";
paths = (
{
closed = 1;
nodes = (
"245 -260 LINE",
"245 -235 LINE",
"196 -251 OFFCURVE",
"170 -236 OFFCURVE",
"170 -200 CURVE SMOOTH",
"169 457 LINE",
"192 465 OFFCURVE",
"216 464 OFFCURVE",
"236 464 CURVE SMOOTH",
"369 464 OFFCURVE",
"439 337 OFFCURVE",
"439 238 CURVE SMOOTH",
"439 128 OFFCURVE",
"371 51 OFFCURVE",
"275 51 CURVE SMOOTH",
"235 51 LINE",
"235 -69 LINE",
"274 -69 LINE",
"274 -56 LINE",
"247 -54 OFFCURVE",
"250 -17 OFFCURVE",
"250 4 CURVE SMOOTH",
"250 31 OFFCURVE",
"268 34 OFFCURVE",
"275 34 CURVE SMOOTH",
"308 34 LINE SMOOTH",
"371 34 OFFCURVE",
"526 111 OFFCURVE",
"526 244 CURVE SMOOTH",
"526 399 OFFCURVE",
"382 474 OFFCURVE",
"253 474 CURVE SMOOTH",
"169 474 LINE",
"168 800 LINE",
"125 800 LINE",
"111 780 OFFCURVE",
"95 755 OFFCURVE",
"73 755 CURVE SMOOTH",
"60 755 OFFCURVE",
"48 763 OFFCURVE",
"48 772 CURVE",
"39 772 LINE",
"39 745 LINE",
"59 741 OFFCURVE",
"77 743 OFFCURVE",
"92 748 CURVE",
"95 -200 LINE SMOOTH",
"95 -236 OFFCURVE",
"69 -251 OFFCURVE",
"20 -235 CURVE",
"20 -260 LINE"
);
}
);
width = 566;
}
);
leftKerningGroup = h;
leftMetricsKey = "=h";
rightKerningGroup = o;
rightMetricsKey = "=p";
unicode = 00FE;
},
{
glyphname = q;
lastChange = "2020-03-12 17:42:46 +0000";
layers = (
{
layerId = "8BDB995E-2F86-4134-8150-9944A684F6E9";
paths = (
{
closed = 1;
nodes = (
"40 100 OFFCURVE",
"97 -10 OFFCURVE",
"216 -10 CURVE SMOOTH",
"284 -10 OFFCURVE",
"329 36 OFFCURVE",
"355 91 CURVE",
"371 91 LINE",
"372 -170 LINE",
"372 -200 LINE SMOOTH",
"372 -236 OFFCURVE",
"371 -261 OFFCURVE",
"322 -245 CURVE",
"322 -260 LINE",
"483 -260 LINE",
"483 -245 LINE",
"434 -261 OFFCURVE",
"430 -236 OFFCURVE",
"430 -200 CURVE SMOOTH",
"430 415 LINE",
"445 410 OFFCURVE",
"463 408 OFFCURVE",
"483 412 CURVE",
"483 439 LINE",
"474 439 LINE",
"474 430 OFFCURVE",
"462 422 OFFCURVE",
"449 422 CURVE SMOOTH",
"427 422 OFFCURVE",
"411 447 OFFCURVE",
"397 467 CURVE",
"367 467 LINE",
"367 404 LINE",
"349 404 LINE",
"325 453 OFFCURVE",
"284 487 OFFCURVE",
"215 487 CURVE SMOOTH",
"81 487 OFFCURVE",
"40 357 OFFCURVE",
"40 219 CURVE SMOOTH"
);
},
{
closed = 1;
nodes = (
"110 350 OFFCURVE",
"139 469 OFFCURVE",
"233 469 CURVE SMOOTH",
"339 469 OFFCURVE",
"359 348 OFFCURVE",
"359 235 CURVE SMOOTH",
"359 151 OFFCURVE",
"324 2 OFFCURVE",
"231 2 CURVE SMOOTH",
"142 2 OFFCURVE",
"110 118 OFFCURVE",
"110 234 CURVE SMOOTH"
);
}
);
width = 503;
}
);
leftKerningGroup = o;
leftMetricsKey = "=o";
rightKerningGroup = q;
rightMetricsKey = "=n";
unicode = 0071;
},
{
glyphname = r;
lastChange = "2020-03-12 18:10:25 +0000";
layers = (
{
anchors = (
{
name = bottom;
position = "{150, 0}";
},
{
name = top;
position = "{175, 467}";
}
);
guideLines = (
{
position = "{601, 487}";
}
);
layerId = "8BDB995E-2F86-4134-8150-9944A684F6E9";
paths = (
{
closed = 1;
nodes = (
"195 0 LINE",
"195 15 LINE",
"146 -1 OFFCURVE",
"145 24 OFFCURVE",
"145 60 CURVE SMOOTH",
"145 386 LINE",
"127 386 LINE",
"126 467 LINE",
"116 467 LINE",
"102 447 OFFCURVE",
"86 423 OFFCURVE",
"64 423 CURVE SMOOTH",
"51 423 OFFCURVE",
"39 431 OFFCURVE",
"39 440 CURVE",
"30 440 LINE",
"30 413 LINE",
"50 409 OFFCURVE",
"68 411 OFFCURVE",
"83 416 CURVE",
"83 60 LINE SMOOTH",
"83 24 OFFCURVE",
"79 -1 OFFCURVE",
"30 15 CURVE",
"30 0 LINE"
);
},
{
closed = 1;
nodes = (
"145 269 LINE",
"145 368 OFFCURVE",
"165 474 OFFCURVE",
"206 474 CURVE SMOOTH",
"233 474 OFFCURVE",
"239 459 OFFCURVE",
"227 399 CURVE SMOOTH",
"217 349 OFFCURVE",
"227 293 OFFCURVE",
"300 293 CURVE",
"300 303 LINE",
"245 303 OFFCURVE",
"284 352 OFFCURVE",
"288 394 CURVE SMOOTH",
"292 432 OFFCURVE",
"271 487 OFFCURVE",
"216 487 CURVE SMOOTH",
"175 487 OFFCURVE",
"126 436 OFFCURVE",
"126 269 CURVE"
);
}
);
width = 310;
}
);
leftKerningGroup = i;
leftMetricsKey = "=n";
rightKerningGroup = r;
rightMetricsKey = "=n-10";
unicode = 0072;
},
{
glyphname = s;
lastChange = "2020-03-12 18:37:08 +0000";
layers = (
{
anchors = (
{
name = bottom;
position = "{181, 0}";
},
{
name = top;
position = "{181, 467}";
}
);
guideLines = (
{
position = "{364, 487}";
},
{
position = "{295, -10}";
}
);
layerId = "8BDB995E-2F86-4134-8150-9944A684F6E9";
paths = (
{
closed = 1;
nodes = (
"275 -10 OFFCURVE",
"332 67 OFFCURVE",
"332 133 CURVE SMOOTH",
"332 287 OFFCURVE",
"105 279 OFFCURVE",
"105 381 CURVE SMOOTH",
"105 442 OFFCURVE",
"133 470 OFFCURVE",
"186 470 CURVE SMOOTH",
"248 470 OFFCURVE",
"284 411 OFFCURVE",
"284 356 CURVE",
"299 356 LINE",
"299 487 LINE",
"286 487 LINE",
"279 436 LINE",
"273 460 OFFCURVE",
"223 487 OFFCURVE",
"176 487 CURVE SMOOTH",
"101 487 OFFCURVE",
"40 443 OFFCURVE",
"40 359 CURVE SMOOTH",
"40 232 OFFCURVE",
"265 251 OFFCURVE",
"265 126 CURVE SMOOTH",
"265 64 OFFCURVE",
"239 10 OFFCURVE",
"172 10 CURVE SMOOTH",
"97 10 OFFCURVE",
"59 64 OFFCURVE",
"59 179 CURVE",
"41 179 LINE",
"41 0 LINE",
"54 0 LINE",
"63 54 LINE",
"89 16 OFFCURVE",
"129 -10 OFFCURVE",
"190 -10 CURVE SMOOTH"
);
}
);
width = 372;
}
);
leftKerningGroup = s;
leftMetricsKey = "=40";
rightKerningGroup = s;
rightMetricsKey = "=40";
unicode = 0073;
},
{
glyphname = germandbls;
lastChange = "2020-03-12 02:53:19 +0000";
layers = (
{
guideLines = (
{
position = "{212, 804}";
}
);
layerId = "8BDB995E-2F86-4134-8150-9944A684F6E9";
paths = (
{
closed = 1;
nodes = (
"425 -10 OFFCURVE",
"474 101 OFFCURVE",
"474 239 CURVE SMOOTH",
"474 349 OFFCURVE",
"435 460 OFFCURVE",
"320 483 CURVE",
"377 503 OFFCURVE",
"403 561 OFFCURVE",
"403 626 CURVE SMOOTH",
"403 698 OFFCURVE",
"362 804 OFFCURVE",
"242 804 CURVE SMOOTH",
"162 804 OFFCURVE",
"93 770 OFFCURVE",
"93 643 CURVE SMOOTH",
"93 60 LINE SMOOTH",
"93 24 OFFCURVE",
"89 -1 OFFCURVE",
"40 15 CURVE",
"40 0 LINE",
"205 0 LINE",
"205 15 LINE",
"156 -1 OFFCURVE",
"155 24 OFFCURVE",
"155 60 CURVE SMOOTH",
"155 643 LINE SMOOTH",
"155 770 OFFCURVE",
"163 798 OFFCURVE",
"242 798 CURVE SMOOTH",
"337 798 OFFCURVE",
"338 694 OFFCURVE",
"338 626 CURVE SMOOTH",
"338 550 OFFCURVE",
"330 487 OFFCURVE",
"273 487 CURVE SMOOTH",
"261 487 OFFCURVE",
"251 487 OFFCURVE",
"242 490 CURVE",
"242 471 LINE",
"252 474 OFFCURVE",
"263 475 OFFCURVE",
"274 475 CURVE SMOOTH",
"369 475 OFFCURVE",
"404 356 OFFCURVE",
"404 239 CURVE SMOOTH",
"404 109 OFFCURVE",
"370 2 OFFCURVE",
"274 2 CURVE SMOOTH",
"263 2 OFFCURVE",
"252 4 OFFCURVE",
"242 7 CURVE",
"242 -8 LINE",
"252 -9 OFFCURVE",
"263 -10 OFFCURVE",
"274 -10 CURVE SMOOTH"
);
}
);
width = 514;
}
);
unicode = 00DF;
},
{
glyphname = t;
lastChange = "2020-03-12 17:41:34 +0000";
layers = (
{
anchors = (
{
name = bottom;
position = "{118, 0}";
},
{
name = center;
position = "{119, 234}";
},
{
name = top;
position = "{105, 588}";
},
{
name = topright;
position = "{218, 467}";
}
);
backgroundImage = {
alpha = 10;
crop = "{{0, 0}, {1399, 450}}";
imagePath = "../../1_Sketch/Screen Shot 2019-04-07 at 20.57.06.png";
locked = "1";
transform = "{3.11, 0, 0, 3.11, -406, -425}";
};
guideLines = (
{
position = "{504, -10}";
},
{
angle = 270;
position = "{10, 450}";
},
{
angle = 90;
position = "{139, 404}";
},
{
angle = 270;
position = "{220, 450}";
},
{
angle = 180;
position = "{116, 468}";
}
);
layerId = "8BDB995E-2F86-4134-8150-9944A684F6E9";
paths = (
{
closed = 1;
nodes = (
"199 -10 OFFCURVE",
"238 67 OFFCURVE",
"238 120 CURVE",
"228 120 LINE",
"228 101 OFFCURVE",
"213 26 OFFCURVE",
"169 26 CURVE SMOOTH",
"146 26 OFFCURVE",
"137 48 OFFCURVE",
"137 101 CURVE SMOOTH",
"138 453 LINE",
"220 453 LINE",
"220 468 LINE",
"138 468 LINE",
"139 618 LINE",
"118 618 LINE",
"118 603 OFFCURVE",
"108 575 OFFCURVE",
"76 575 CURVE",
"76 468 LINE",
"10 468 LINE",
"10 453 LINE",
"76 453 LINE",
"76 150 LINE SMOOTH",
"77 76 OFFCURVE",
"66 -10 OFFCURVE",
"134 -10 CURVE SMOOTH"
);
}
);
width = 258;
}
);
leftKerningGroup = t;
leftMetricsKey = "=n-20";
rightKerningGroup = t;
rightMetricsKey = "=20";
unicode = 0074;
},
{
glyphname = tbar;
lastChange = "2020-03-12 17:58:34 +0000";
layers = (
{
components = (
{
name = t;
}
);
guideLines = (
{
angle = 90;
position = "{225, 417}";
}
);
layerId = "8BDB995E-2F86-4134-8150-9944A684F6E9";
paths = (
{
closed = 1;
nodes = (
"225 286 LINE",
"225 300 LINE",
"15 300 LINE",
"15 286 LINE"
);
}
);
width = 258;
}
);
leftKerningGroup = t;
rightKerningGroup = t;
rightMetricsKey = "=t";
unicode = 0167;
},
{
glyphname = u;
lastChange = "2020-03-12 18:36:58 +0000";
layers = (
{
anchors = (
{
name = bottom;
position = "{219, 0}";
},
{
name = ogonek;
position = "{364, 10}";
},
{
name = top;
position = "{235, 467}";
},
{
name = topright;
position = "{428, 477}";
}
);
guideLines = (
{
position = "{400, -10}";
},
{
angle = 90;
position = "{412, 543}";
},
{
angle = 90;
position = "{345, 554}";
}
);
layerId = "8BDB995E-2F86-4134-8150-9944A684F6E9";
paths = (
{
closed = 1;
nodes = (
"269 -10 OFFCURVE",
"316 44 OFFCURVE",
"343 99 CURVE",
"353 99 LINE",
"353 0 LINE",
"462 0 LINE",
"462 15 LINE",
"413 -1 OFFCURVE",
"412 24 OFFCURVE",
"412 60 CURVE SMOOTH",
"412 477 LINE",
"394 477 LINE",
"380 457 OFFCURVE",
"364 432 OFFCURVE",
"342 432 CURVE SMOOTH",
"329 432 OFFCURVE",
"317 440 OFFCURVE",
"317 449 CURVE",
"308 449 LINE",
"308 422 LINE",
"321 420 OFFCURVE",
"334 420 OFFCURVE",
"345 421 CURVE",
"345 199 LINE SMOOTH",
"345 111 OFFCURVE",
"301 3 OFFCURVE",
"205 3 CURVE SMOOTH",
"146 3 OFFCURVE",
"123 43 OFFCURVE",
"123 138 CURVE SMOOTH",
"124 469 LINE",
"124 477 LINE",
"106 477 LINE",
"92 457 OFFCURVE",
"76 432 OFFCURVE",
"54 432 CURVE SMOOTH",
"41 432 OFFCURVE",
"29 440 OFFCURVE",
"29 449 CURVE",
"20 449 LINE",
"20 422 LINE",
"33 420 OFFCURVE",
"46 420 OFFCURVE",
"57 421 CURVE",
"58 150 LINE SMOOTH",
"58 49 OFFCURVE",
"122 -10 OFFCURVE",
"196 -10 CURVE SMOOTH"
);
}
);
width = 482;
}
);
leftKerningGroup = u;
leftMetricsKey = "=h";
rightKerningGroup = u;
rightMetricsKey = "=h";
unicode = 0075;
},
{
glyphname = uhorn_vietnam;
lastChange = "2020-03-12 17:58:34 +0000";
layers = (
{
anchors = (
{
name = bottom;
position = "{230, 0}";
},
{
name = ogonek;
position = "{364, 10}";
},
{
name = top;
position = "{256, 467}";
},
{
name = topright;
position = "{426, 432}";
}
);
layerId = "8BDB995E-2F86-4134-8150-9944A684F6E9";
paths = (
{
closed = 1;
nodes = (
"269 -10 OFFCURVE",
"316 44 OFFCURVE",
"343 99 CURVE",
"353 99 LINE",
"353 0 LINE",
"462 0 LINE",
"462 15 LINE",
"413 -1 OFFCURVE",
"412 24 OFFCURVE",
"412 60 CURVE SMOOTH",
"412 438 LINE",
"346 427 LINE",
"345 199 LINE SMOOTH",
"345 111 OFFCURVE",
"301 3 OFFCURVE",
"205 3 CURVE SMOOTH",
"146 3 OFFCURVE",
"123 43 OFFCURVE",
"123 138 CURVE SMOOTH",
"124 469 LINE",
"124 477 LINE",
"106 477 LINE",
"92 457 OFFCURVE",
"76 432 OFFCURVE",
"54 432 CURVE SMOOTH",
"41 432 OFFCURVE",
"29 440 OFFCURVE",
"29 449 CURVE",
"20 449 LINE",
"20 422 LINE",
"33 420 OFFCURVE",
"46 420 OFFCURVE",
"57 421 CURVE",
"58 150 LINE SMOOTH",
"58 49 OFFCURVE",
"122 -10 OFFCURVE",
"196 -10 CURVE SMOOTH"
);
},
{
closed = 1;
nodes = (
"443 416 OFFCURVE",
"489 445 OFFCURVE",
"485 483 CURVE SMOOTH",
"480 535 OFFCURVE",
"413 554 OFFCURVE",
"382 498 CURVE",
"392 495 LINE",
"436 554 OFFCURVE",
"481 446 OFFCURVE",
"388 434 CURVE",
"389 421 LINE"
);
}
);
width = 495;
}
);
leftKerningGroup = u;
leftMetricsKey = "=u";
rightKerningGroup = u;
rightMetricsKey = "=u-10";
},
{
glyphname = v;
lastChange = "2020-03-12 18:36:42 +0000";
layers = (
{
guideLines = (
{
angle = 73.7775;
position = "{280, 205}";
}
);
layerId = "8BDB995E-2F86-4134-8150-9944A684F6E9";
paths = (
{
closed = 1;
nodes = (
"220 0 LINE",
"96 428 LINE",
"89 445 OFFCURVE",
"99 463 OFFCURVE",
"145 452 CURVE",
"145 467 LINE",
"-30 467 LINE",
"-30 452 LINE",
"-4 459 OFFCURVE",
"28 461 OFFCURVE",
"42 401 CURVE",
"164 0 LINE"
);
},
{
closed = 1;
nodes = (
"220 0 LINE",
"349 409 LINE SMOOTH",
"355 428 OFFCURVE",
"384 468 OFFCURVE",
"433 452 CURVE",
"433 467 LINE",
"280 467 LINE",
"280 452 LINE",
"329 468 OFFCURVE",
"344 444 OFFCURVE",
"333 409 CURVE SMOOTH",
"203 0 LINE"
);
}
);
width = 383;
}
);
leftKerningGroup = v;
leftMetricsKey = "=n-60";
rightKerningGroup = v;
rightMetricsKey = "=n-70";
unicode = 0076;
},
{
glyphname = w;
lastChange = "2020-03-12 18:37:02 +0000";
layers = (
{
anchors = (
{
name = bottom;
position = "{320, 0}";
},
{
name = top;
position = "{320, 467}";
}
);
guideLines = (
{
angle = 90;
position = "{410, 460}";
},
{
angle = 270;
position = "{494, 460}";
}
);
layerId = "8BDB995E-2F86-4134-8150-9944A684F6E9";
paths = (
{
closed = 1;
nodes = (
"220 0 LINE",
"96 428 LINE",
"89 445 OFFCURVE",
"99 463 OFFCURVE",
"145 452 CURVE",
"145 467 LINE",
"-30 467 LINE",
"-30 452 LINE",
"-4 459 OFFCURVE",
"28 461 OFFCURVE",
"42 401 CURVE",
"164 0 LINE"
);
},
{
closed = 1;
nodes = (
"220 0 LINE",
"332 382 LINE",
"315 382 LINE",
"203 0 LINE"
);
},
{
closed = 1;
nodes = (
"457 0 LINE",
"333 428 LINE",
"326 445 OFFCURVE",
"364 463 OFFCURVE",
"410 452 CURVE",
"410 467 LINE",
"229 467 LINE",
"229 452 LINE",
"255 459 OFFCURVE",
"265 461 OFFCURVE",
"279 401 CURVE",
"401 0 LINE"
);
},
{
closed = 1;
nodes = (
"457 0 LINE",
"576 409 LINE SMOOTH",
"582 428 OFFCURVE",
"611 468 OFFCURVE",
"660 452 CURVE",
"660 467 LINE",
"494 467 LINE",
"494 452 LINE",
"543 468 OFFCURVE",
"570 444 OFFCURVE",
"560 409 CURVE SMOOTH",
"440 0 LINE"
);
}
);
width = 610;
}
);
leftKerningGroup = w;
leftMetricsKey = "=v";
rightKerningGroup = w;
rightMetricsKey = "=v";
unicode = 0077;
},
{
glyphname = x;
lastChange = "2020-03-12 18:23:00 +0000";
layers = (
{
guideLines = (
{
angle = 180;
position = "{63, 467}";
}
);
layerId = "8BDB995E-2F86-4134-8150-9944A684F6E9";
paths = (
{
closed = 1;
nodes = (
"414 0 LINE",
"414 15 LINE",
"367 3 OFFCURVE",
"349 38 OFFCURVE",
"297 123 CURVE SMOOTH",
"237 221 OFFCURVE",
"162 333 OFFCURVE",
"107 428 CURVE",
"100 445 OFFCURVE",
"110 463 OFFCURVE",
"156 452 CURVE",
"156 467 LINE",
"-30 467 LINE",
"-30 452 LINE",
"-4 459 OFFCURVE",
"18 451 OFFCURVE",
"53 401 CURVE",
"276 42 LINE SMOOTH",
"288 24 OFFCURVE",
"264 3 OFFCURVE",
"215 15 CURVE",
"215 0 LINE"
);
},
{
closed = 1;
nodes = (
"125 0 LINE",
"125 15 LINE",
"76 -1 OFFCURVE",
"55 26 OFFCURVE",
"77 58 CURVE SMOOTH",
"202 244 LINE",
"184 244 LINE",
"56 58 LINE SMOOTH",
"43 39 OFFCURVE",
"21 -1 OFFCURVE",
"-28 15 CURVE",
"-28 0 LINE"
);
},
{
closed = 1;
nodes = (
"210 251 LINE",
"319 409 LINE SMOOTH",
"332 428 OFFCURVE",
"349 468 OFFCURVE",
"398 452 CURVE",
"398 467 LINE",
"245 467 LINE",
"245 452 LINE",
"294 468 OFFCURVE",
"320 441 OFFCURVE",
"298 409 CURVE SMOOTH",
"192 251 LINE"
);
}
);
width = 374;
}
);
leftKerningGroup = x;
leftMetricsKey = "=v";
rightKerningGroup = x;
rightMetricsKey = "=v+10";
unicode = 0078;
},
{
glyphname = y;
lastChange = "2020-03-12 18:37:22 +0000";
layers = (
{
anchors = (
{
name = bottom;
position = "{271, 0}";
},
{
name = top;
position = "{190, 467}";
}
);
guideLines = (
{
position = "{7, -264}";
},
{
angle = 73.7775;
position = "{280, 205}";
},
{
angle = 270;
position = "{-30, 460}";
}
);
layerId = "8BDB995E-2F86-4134-8150-9944A684F6E9";
paths = (
{
closed = 1;
nodes = (
"115 -254 OFFCURVE",
"138 -196 OFFCURVE",
"158 -135 CURVE SMOOTH",
"340 409 LINE SMOOTH",
"347 430 OFFCURVE",
"375 468 OFFCURVE",
"424 452 CURVE",
"424 467 LINE",
"271 467 LINE",
"271 452 LINE",
"320 468 OFFCURVE",
"335 444 OFFCURVE",
"324 409 CURVE SMOOTH",
"217 85 LINE",
"175 197 OFFCURVE",
"112 384 OFFCURVE",
"95 428 CURVE SMOOTH",
"88 445 OFFCURVE",
"110 463 OFFCURVE",
"156 452 CURVE",
"156 467 LINE",
"-30 467 LINE",
"-30 452 LINE",
"-4 459 OFFCURVE",
"23 447 OFFCURVE",
"40 401 CURVE SMOOTH",
"86 275 OFFCURVE",
"177 51 OFFCURVE",
"190 1 CURVE",
"145 -134 LINE SMOOTH",
"136 -162 OFFCURVE",
"117 -195 OFFCURVE",
"87 -198 CURVE SMOOTH",
"48 -202 OFFCURVE",
"1 -159 OFFCURVE",
"1 -222 CURVE SMOOTH",
"1 -256 OFFCURVE",
"31 -269 OFFCURVE",
"69 -262 CURVE SMOOTH"
);
}
);
width = 374;
}
);
leftKerningGroup = y;
leftMetricsKey = "=v";
rightKerningGroup = y;
rightMetricsKey = "=v";
unicode = 0079;
},
{
glyphname = z;
lastChange = "2020-03-12 18:37:17 +0000";
layers = (
{
anchors = (
{
name = bottom;
position = "{177, 0}";
},
{
name = center;
position = "{177, 234}";
},
{
name = top;
position = "{156, 467}";
}
);
guideLines = (
{
angle = 180;
position = "{6, 467}";
},
{
angle = 90;
position = "{364, 460}";
}
);
layerId = "8BDB995E-2F86-4134-8150-9944A684F6E9";
paths = (
{
closed = 1;
nodes = (
"364 0 LINE",
"364 93 LINE",
"351 93 LINE",
"351 30 OFFCURVE",
"322 8 OFFCURVE",
"262 8 CURVE SMOOTH",
"84 8 OFFCURVE",
"78 0 OFFCURVE",
"121 86 CURVE SMOOTH",
"178 200 OFFCURVE",
"238 310 OFFCURVE",
"296 422 CURVE SMOOTH",
"308 448 OFFCURVE",
"328 459 OFFCURVE",
"354 452 CURVE",
"354 467 LINE",
"23 467 LINE",
"24 385 LINE",
"36 385 LINE",
"36 404 OFFCURVE",
"30 460 OFFCURVE",
"115 460 CURVE SMOOTH",
"254 460 OFFCURVE",
"247 448 OFFCURVE",
"208 376 CURVE SMOOTH",
"155 278 OFFCURVE",
"123 210 OFFCURVE",
"71 110 CURVE SMOOTH",
"55 79 OFFCURVE",
"31 6 OFFCURVE",
"-5 15 CURVE",
"-5 0 LINE"
);
}
);
width = 354;
}
);
leftKerningGroup = z;
leftMetricsKey = "=n-35";
rightKerningGroup = z;
rightMetricsKey = "=n-30";
unicode = 007A;
},
{
glyphname = j.001;
layers = (
{
layerId = "8BDB995E-2F86-4134-8150-9944A684F6E9";
paths = (
{
closed = 1;
nodes = (
"77 -265 OFFCURVE",
"144 -226 OFFCURVE",
"144 -133 CURVE SMOOTH",
"144 468 LINE",
"115 468 LINE",
"101 448 OFFCURVE",
"85 423 OFFCURVE",
"63 423 CURVE SMOOTH",
"50 423 OFFCURVE",
"38 431 OFFCURVE",
"38 440 CURVE",
"29 440 LINE",
"29 413 LINE",
"49 409 OFFCURVE",
"67 411 OFFCURVE",
"82 416 CURVE",
"82 -133 LINE SMOOTH",
"82 -226 OFFCURVE",
"64 -254 OFFCURVE",
"29 -254 CURVE SMOOTH",
"-25 -254 OFFCURVE",
"18 -182 OFFCURVE",
"18 -138 CURVE SMOOTH",
"18 -88 OFFCURVE",
"-36 -67 OFFCURVE",
"-70 -67 CURVE",
"-70 -79 LINE",
"22 -79 OFFCURVE",
"-57 -142 OFFCURVE",
"-57 -186 CURVE SMOOTH",
"-57 -229 OFFCURVE",
"-26 -265 OFFCURVE",
"18 -265 CURVE SMOOTH"
);
},
{
closed = 1;
nodes = (
"129 533 OFFCURVE",
"145 548 OFFCURVE",
"145 570 CURVE SMOOTH",
"145 591 OFFCURVE",
"128 607 OFFCURVE",
"105 607 CURVE SMOOTH",
"82 607 OFFCURVE",
"65 591 OFFCURVE",
"65 570 CURVE SMOOTH",
"65 548 OFFCURVE",
"82 533 OFFCURVE",
"105 533 CURVE SMOOTH"
);
}
);
width = 210;
}
);
leftKerningGroup = j;
leftMetricsKey = "=n-100";
rightKerningGroup = j;
rightMetricsKey = "=n+45";
},
{
glyphname = j.alt;
lastChange = "2020-03-12 17:19:43 +0000";
layers = (
{
layerId = "8BDB995E-2F86-4134-8150-9944A684F6E9";
paths = (
{
closed = 1;
nodes = (
"-62 -133 LINE",
"-64 -177 OFFCURVE",
"-65 -265 OFFCURVE",
"47 -265 CURVE SMOOTH",
"106 -265 OFFCURVE",
"188 -219 OFFCURVE",
"188 -111 CURVE SMOOTH",
"188 468 LINE",
"159 468 LINE",
"145 448 OFFCURVE",
"129 423 OFFCURVE",
"107 423 CURVE SMOOTH",
"94 423 OFFCURVE",
"82 431 OFFCURVE",
"82 440 CURVE",
"73 440 LINE",
"73 413 LINE",
"93 409 OFFCURVE",
"111 411 OFFCURVE",
"126 416 CURVE",
"126 -91 LINE SMOOTH",
"126 -219 OFFCURVE",
"82 -254 OFFCURVE",
"47 -254 CURVE SMOOTH",
"-57 -254 OFFCURVE",
"-36 -170 OFFCURVE",
"-21 -133 CURVE"
);
},
{
closed = 1;
nodes = (
"173 533 OFFCURVE",
"189 548 OFFCURVE",
"189 570 CURVE SMOOTH",
"189 591 OFFCURVE",
"172 607 OFFCURVE",
"149 607 CURVE SMOOTH",
"126 607 OFFCURVE",
"109 591 OFFCURVE",
"109 570 CURVE SMOOTH",
"109 548 OFFCURVE",
"126 533 OFFCURVE",
"149 533 CURVE SMOOTH"
);
}
);
width = 254;
}
);
rightKerningGroup = j;
},
{
glyphname = j.alt02;
lastChange = "2020-04-12 22:07:36 +0000";
layers = (
{
layerId = "8BDB995E-2F86-4134-8150-9944A684F6E9";
paths = (
{
closed = 1;
nodes = (
"-61 -235 LINE",
"-63 -279 OFFCURVE",
"-65 -360 OFFCURVE",
"29 -360 CURVE SMOOTH",
"106 -360 OFFCURVE",
"153 -314 OFFCURVE",
"153 -206 CURVE SMOOTH",
"153 468 LINE",
"124 468 LINE",
"110 448 OFFCURVE",
"94 423 OFFCURVE",
"72 423 CURVE SMOOTH",
"59 423 OFFCURVE",
"47 431 OFFCURVE",
"47 440 CURVE",
"38 440 LINE",
"38 413 LINE",
"58 409 OFFCURVE",
"76 411 OFFCURVE",
"91 416 CURVE",
"91 -186 LINE SMOOTH",
"91 -314 OFFCURVE",
"82 -349 OFFCURVE",
"29 -349 CURVE SMOOTH",
"-26 -349 OFFCURVE",
"-20 -272 OFFCURVE",
"-20 -235 CURVE"
);
},
{
closed = 1;
nodes = (
"138 533 OFFCURVE",
"154 548 OFFCURVE",
"154 570 CURVE SMOOTH",
"154 591 OFFCURVE",
"137 607 OFFCURVE",
"114 607 CURVE SMOOTH",
"91 607 OFFCURVE",
"74 591 OFFCURVE",
"74 570 CURVE SMOOTH",
"74 548 OFFCURVE",
"91 533 OFFCURVE",
"114 533 CURVE SMOOTH"
);
}
);
width = 219;
}
);
rightKerningGroup = j;
rightMetricsKey = "=65";
},
{
glyphname = T_h;
lastChange = "2020-03-12 04:03:03 +0000";
layers = (
{
guideLines = (
{
angle = 270;
position = "{535, 218}";
}
);
layerId = "8BDB995E-2F86-4134-8150-9944A684F6E9";
paths = (
{
closed = 1;
nodes = (
"639 0 LINE",
"639 15 LINE",
"590 -1 OFFCURVE",
"589 24 OFFCURVE",
"589 60 CURVE SMOOTH",
"589 386 LINE",
"574 386 LINE",
"573 800 LINE",
"552 800 LINE",
"549 760 OFFCURVE",
"515 740 OFFCURVE",
"467 740 CURVE SMOOTH",
"297 740 LINE",
"297 727 LINE",
"307 729 OFFCURVE",
"319 730 OFFCURVE",
"333 730 CURVE SMOOTH",
"510 730 LINE SMOOTH",
"517 730 OFFCURVE",
"519 727 OFFCURVE",
"519 722 CURVE SMOOTH",
"519 60 LINE SMOOTH",
"519 24 OFFCURVE",
"515 -1 OFFCURVE",
"466 15 CURVE",
"466 0 LINE"
);
},
{
closed = 1;
nodes = (
"379 0 LINE",
"379 25 LINE",
"330 9 OFFCURVE",
"304 24 OFFCURVE",
"304 60 CURVE",
"267 50 LINE",
"229 60 LINE",
"229 24 OFFCURVE",
"203 9 OFFCURVE",
"154 25 CURVE",
"154 0 LINE"
);
},
{
closed = 1;
nodes = (
"304 0 LINE",
"304 740 LINE",
"229 740 LINE",
"229 0 LINE"
);
},
{
closed = 1;
nodes = (
"6 570 LINE",
"43 640 OFFCURVE",
"-10 730 OFFCURVE",
"201 730 CURVE SMOOTH",
"215 730 OFFCURVE",
"227 729 OFFCURVE",
"237 727 CURVE",
"237 740 LINE",
"-2 740 LINE",
"1 711 LINE SMOOTH",
"5 677 OFFCURVE",
"7 612 OFFCURVE",
"-10 570 CURVE"
);
},
{
closed = 1;
nodes = (
"930 0 LINE",
"930 15 LINE",
"881 -1 OFFCURVE",
"877 24 OFFCURVE",
"877 60 CURVE SMOOTH",
"877 328 LINE SMOOTH",
"877 429 OFFCURVE",
"790 488 OFFCURVE",
"716 488 CURVE SMOOTH",
"592 488 OFFCURVE",
"564 324 OFFCURVE",
"564 269 CURVE",
"589 269 LINE",
"589 339 OFFCURVE",
"611 475 OFFCURVE",
"707 475 CURVE SMOOTH",
"766 475 OFFCURVE",
"810 435 OFFCURVE",
"810 340 CURVE SMOOTH",
"810 60 LINE SMOOTH",
"810 24 OFFCURVE",
"809 -1 OFFCURVE",
"760 15 CURVE",
"760 0 LINE"
);
}
);
width = 950;
}
);
leftMetricsKey = T;
rightMetricsKey = h;
},
{
glyphname = c_t;
lastChange = "2020-03-12 17:54:50 +0000";
layers = (
{
layerId = "8BDB995E-2F86-4134-8150-9944A684F6E9";
paths = (
{
closed = 1;
nodes = (
"628 -10 OFFCURVE",
"667 67 OFFCURVE",
"667 120 CURVE",
"657 120 LINE",
"657 101 OFFCURVE",
"642 26 OFFCURVE",
"598 26 CURVE SMOOTH",
"575 26 OFFCURVE",
"566 48 OFFCURVE",
"566 101 CURVE SMOOTH",
"567 453 LINE",
"649 453 LINE",
"649 468 LINE",
"567 468 LINE",
"568 614 LINE SMOOTH",
"569 710 OFFCURVE",
"486 757 OFFCURVE",
"402 760 CURVE SMOOTH",
"300 764 OFFCURVE",
"220 721 OFFCURVE",
"194 652 CURVE SMOOTH",
"168 584 OFFCURVE",
"198 490 OFFCURVE",
"256 475 CURVE",
"256 485 LINE",
"209 507 OFFCURVE",
"225 616 OFFCURVE",
"237 644 CURVE SMOOTH",
"258 694 OFFCURVE",
"301 749 OFFCURVE",
"403 745 CURVE SMOOTH",
"483 742 OFFCURVE",
"547 701 OFFCURVE",
"547 614 CURVE SMOOTH",
"547 599 OFFCURVE",
"537 571 OFFCURVE",
"505 571 CURVE",
"505 468 LINE",
"439 468 LINE",
"439 453 LINE",
"505 453 LINE",
"505 150 LINE SMOOTH",
"505 76 OFFCURVE",
"495 -10 OFFCURVE",
"563 -10 CURVE SMOOTH"
);
},
{
closed = 1;
nodes = (
"324 -10 OFFCURVE",
"382 51 OFFCURVE",
"400 116 CURVE",
"378 116 LINE",
"365 61 OFFCURVE",
"322 9 OFFCURVE",
"250 9 CURVE SMOOTH",
"145 9 OFFCURVE",
"105 112 OFFCURVE",
"105 230 CURVE SMOOTH",
"105 394 OFFCURVE",
"159 475 OFFCURVE",
"240 475 CURVE SMOOTH",
"270 475 OFFCURVE",
"325 454 OFFCURVE",
"329 413 CURVE SMOOTH",
"333 374 OFFCURVE",
"290 327 OFFCURVE",
"353 327 CURVE SMOOTH",
"387 327 OFFCURVE",
"400 357 OFFCURVE",
"393 395 CURVE SMOOTH",
"383 450 OFFCURVE",
"303 487 OFFCURVE",
"230 487 CURVE SMOOTH",
"99 487 OFFCURVE",
"35 361 OFFCURVE",
"35 239 CURVE SMOOTH",
"35 116 OFFCURVE",
"92 -10 OFFCURVE",
"247 -10 CURVE SMOOTH"
);
}
);
width = 687;
}
);
rightMetricsKey = "=t";
},
{
glyphname = f_b;
lastChange = "2019-10-12 21:55:21 +0000";
layers = (
{
guideLines = (
{
angle = 270;
position = "{151, 305}";
},
{
angle = 270;
position = "{317, 305}";
}
);
layerId = "8BDB995E-2F86-4134-8150-9944A684F6E9";
paths = (
{
closed = 1;
nodes = (
"662 -10 OFFCURVE",
"703 120 OFFCURVE",
"703 258 CURVE SMOOTH",
"703 377 OFFCURVE",
"646 487 OFFCURVE",
"527 487 CURVE SMOOTH",
"459 487 OFFCURVE",
"414 441 OFFCURVE",
"388 386 CURVE",
"372 386 LINE",
"371 800 LINE",
"353 800 LINE",
"347 791 OFFCURVE",
"339 781 OFFCURVE",
"331 773 CURVE",
"303 792 OFFCURVE",
"267 804 OFFCURVE",
"247 804 CURVE SMOOTH",
"183 804 OFFCURVE",
"89 753 OFFCURVE",
"89 626 CURVE SMOOTH",
"89 468 LINE",
"20 468 LINE",
"20 453 LINE",
"89 453 LINE",
"89 60 LINE SMOOTH",
"89 24 OFFCURVE",
"85 -1 OFFCURVE",
"36 15 CURVE",
"36 0 LINE",
"201 0 LINE",
"201 15 LINE",
"152 -1 OFFCURVE",
"151 24 OFFCURVE",
"151 60 CURVE SMOOTH",
"151 626 LINE SMOOTH",
"151 753 OFFCURVE",
"187 795 OFFCURVE",
"240 795 CURVE SMOOTH",
"297 795 OFFCURVE",
"317 715 OFFCURVE",
"317 676 CURVE SMOOTH",
"317 0 LINE",
"353 0 LINE",
"376 73 LINE",
"394 73 LINE",
"418 24 OFFCURVE",
"459 -10 OFFCURVE",
"528 -10 CURVE SMOOTH"
);
},
{
closed = 1;
nodes = (
"404 8 OFFCURVE",
"384 129 OFFCURVE",
"384 242 CURVE SMOOTH",
"384 326 OFFCURVE",
"419 475 OFFCURVE",
"512 475 CURVE SMOOTH",
"601 475 OFFCURVE",
"633 359 OFFCURVE",
"633 243 CURVE SMOOTH",
"633 127 OFFCURVE",
"604 8 OFFCURVE",
"510 8 CURVE SMOOTH"
);
}
);
width = 743;
}
);
leftMetricsKey = f;
rightMetricsKey = b;
},
{
glyphname = f_f;
lastChange = "2020-03-11 23:38:45 +0000";
layers = (
{
guideLines = (
{
position = "{424, 166}";
},
{
position = "{8, 477}";
},
{
angle = 270;
position = "{-4, 468}";
},
{
angle = 90;
position = "{125, 422}";
},
{
angle = 270;
position = "{206, 468}";
},
{
angle = 180;
position = "{128, 468}";
},
{
position = "{209, 804}";
}
);
layerId = "8BDB995E-2F86-4134-8150-9944A684F6E9";
paths = (
{
closed = 1;
nodes = (
"373 662 LINE",
"373 711 OFFCURVE",
"331 804 OFFCURVE",
"237 804 CURVE SMOOTH",
"173 804 OFFCURVE",
"89 753 OFFCURVE",
"89 626 CURVE SMOOTH",
"89 468 LINE",
"20 468 LINE",
"20 453 LINE",
"89 453 LINE",
"89 60 LINE SMOOTH",
"89 24 OFFCURVE",
"85 -1 OFFCURVE",
"36 15 CURVE",
"36 0 LINE",
"201 0 LINE",
"201 15 LINE",
"152 -1 OFFCURVE",
"151 24 OFFCURVE",
"151 60 CURVE SMOOTH",
"151 626 LINE SMOOTH",
"151 753 OFFCURVE",
"187 795 OFFCURVE",
"240 795 CURVE SMOOTH",
"297 795 OFFCURVE",
"311 696 OFFCURVE",
"311 657 CURVE SMOOTH",
"311 643 LINE"
);
},
{
closed = 1;
nodes = (
"423 0 LINE",
"423 15 LINE",
"374 -1 OFFCURVE",
"373 24 OFFCURVE",
"373 60 CURVE SMOOTH",
"373 453 LINE",
"452 453 LINE",
"452 468 LINE",
"373 468 LINE",
"373 643 LINE SMOOTH",
"373 770 OFFCURVE",
"393 795 OFFCURVE",
"423 795 CURVE SMOOTH",
"490 795 OFFCURVE",
"461 715 OFFCURVE",
"461 676 CURVE SMOOTH",
"461 619 OFFCURVE",
"495 571 OFFCURVE",
"546 571 CURVE",
"546 581 LINE",
"479 581 OFFCURVE",
"528 672 OFFCURVE",
"528 716 CURVE SMOOTH",
"528 774 OFFCURVE",
"490 804 OFFCURVE",
"430 804 CURVE SMOOTH",
"389 804 OFFCURVE",
"311 770 OFFCURVE",
"311 643 CURVE SMOOTH",
"311 468 LINE",
"136 468 LINE",
"136 453 LINE",
"311 453 LINE",
"311 60 LINE SMOOTH",
"311 24 OFFCURVE",
"307 -1 OFFCURVE",
"258 15 CURVE",
"258 0 LINE"
);
}
);
width = 466;
}
);
leftKerningGroup = i;
leftMetricsKey = "=n-10";
rightKerningGroup = f;
rightMetricsKey = "=n-100";
},
{
glyphname = f_f_b;
lastChange = "2019-10-12 21:55:21 +0000";
layers = (
{
layerId = "8BDB995E-2F86-4134-8150-9944A684F6E9";
paths = (
{
closed = 1;
nodes = (
"890 -10 OFFCURVE",
"931 120 OFFCURVE",
"931 258 CURVE SMOOTH",
"931 377 OFFCURVE",
"874 487 OFFCURVE",
"755 487 CURVE SMOOTH",
"687 487 OFFCURVE",
"642 441 OFFCURVE",
"616 386 CURVE",
"603 386 LINE",
"602 689 LINE",
"602 800 LINE",
"585 800 LINE",
"579 788 OFFCURVE",
"571 779 OFFCURVE",
"559 773 CURVE",
"531 792 OFFCURVE",
"495 804 OFFCURVE",
"475 804 CURVE SMOOTH",
"437 804 OFFCURVE",
"389 786 OFFCURVE",
"356 745 CURVE",
"351 753 LINE SMOOTH",
"333 782 OFFCURVE",
"291 804 OFFCURVE",
"247 804 CURVE SMOOTH",
"183 804 OFFCURVE",
"89 753 OFFCURVE",
"89 626 CURVE SMOOTH",
"89 468 LINE",
"20 468 LINE",
"20 453 LINE",
"89 453 LINE",
"89 60 LINE SMOOTH",
"89 24 OFFCURVE",
"85 -1 OFFCURVE",
"36 15 CURVE",
"36 0 LINE",
"201 0 LINE",
"201 15 LINE",
"152 -1 OFFCURVE",
"151 24 OFFCURVE",
"151 60 CURVE SMOOTH",
"151 453 LINE",
"317 453 LINE",
"317 60 LINE SMOOTH",
"317 24 OFFCURVE",
"313 -1 OFFCURVE",
"264 15 CURVE",
"264 0 LINE",
"429 0 LINE",
"429 15 LINE",
"380 -1 OFFCURVE",
"379 24 OFFCURVE",
"379 60 CURVE SMOOTH",
"379 453 LINE",
"458 453 LINE",
"458 468 LINE",
"379 468 LINE",
"379 626 LINE SMOOTH",
"379 753 OFFCURVE",
"415 795 OFFCURVE",
"468 795 CURVE SMOOTH",
"525 795 OFFCURVE",
"545 715 OFFCURVE",
"545 676 CURVE SMOOTH",
"545 0 LINE",
"581 0 LINE",
"604 73 LINE",
"622 73 LINE",
"646 24 OFFCURVE",
"687 -10 OFFCURVE",
"756 -10 CURVE SMOOTH"
);
},
{
closed = 1;
nodes = (
"151 626 LINE SMOOTH",
"151 753 OFFCURVE",
"187 795 OFFCURVE",
"240 795 CURVE SMOOTH",
"306 795 OFFCURVE",
"317 718 OFFCURVE",
"317 626 CURVE SMOOTH",
"317 468 LINE",
"151 468 LINE"
);
},
{
closed = 1;
nodes = (
"632 8 OFFCURVE",
"612 129 OFFCURVE",
"612 242 CURVE SMOOTH",
"612 326 OFFCURVE",
"647 475 OFFCURVE",
"740 475 CURVE SMOOTH",
"829 475 OFFCURVE",
"861 359 OFFCURVE",
"861 243 CURVE SMOOTH",
"861 127 OFFCURVE",
"832 8 OFFCURVE",
"738 8 CURVE SMOOTH"
);
}
);
width = 971;
}
);
leftMetricsKey = f;
rightMetricsKey = b;
},
{
glyphname = f_f_f;
lastChange = "2020-03-11 23:44:52 +0000";
layers = (
{
guideLines = (
{
position = "{645, 166}";
},
{
position = "{229, 477}";
},
{
angle = 270;
position = "{217, 468}";
},
{
angle = 90;
position = "{346, 422}";
},
{
angle = 270;
position = "{427, 468}";
},
{
angle = 180;
position = "{349, 468}";
},
{
position = "{430, 804}";
}
);
layerId = "8BDB995E-2F86-4134-8150-9944A684F6E9";
paths = (
{
closed = 1;
nodes = (
"594 662 LINE",
"594 711 OFFCURVE",
"552 804 OFFCURVE",
"458 804 CURVE SMOOTH",
"394 804 OFFCURVE",
"310 753 OFFCURVE",
"310 626 CURVE SMOOTH",
"310 468 LINE",
"136 468 LINE",
"136 453 LINE",
"310 453 LINE",
"310 60 LINE SMOOTH",
"310 24 OFFCURVE",
"306 -1 OFFCURVE",
"257 15 CURVE",
"257 0 LINE",
"422 0 LINE",
"422 15 LINE",
"373 -1 OFFCURVE",
"372 24 OFFCURVE",
"372 60 CURVE SMOOTH",
"372 626 LINE SMOOTH",
"372 753 OFFCURVE",
"408 795 OFFCURVE",
"461 795 CURVE SMOOTH",
"518 795 OFFCURVE",
"532 696 OFFCURVE",
"532 657 CURVE SMOOTH",
"532 643 LINE"
);
},
{
closed = 1;
nodes = (
"644 0 LINE",
"644 15 LINE",
"595 -1 OFFCURVE",
"594 24 OFFCURVE",
"594 60 CURVE SMOOTH",
"594 453 LINE",
"673 453 LINE",
"673 468 LINE",
"594 468 LINE",
"594 643 LINE SMOOTH",
"594 770 OFFCURVE",
"614 795 OFFCURVE",
"644 795 CURVE SMOOTH",
"711 795 OFFCURVE",
"682 715 OFFCURVE",
"682 676 CURVE SMOOTH",
"682 619 OFFCURVE",
"716 571 OFFCURVE",
"767 571 CURVE",
"767 581 LINE",
"700 581 OFFCURVE",
"749 672 OFFCURVE",
"749 716 CURVE SMOOTH",
"749 774 OFFCURVE",
"711 804 OFFCURVE",
"651 804 CURVE SMOOTH",
"610 804 OFFCURVE",
"532 770 OFFCURVE",
"532 643 CURVE SMOOTH",
"532 468 LINE",
"357 468 LINE",
"357 453 LINE",
"532 453 LINE",
"532 60 LINE SMOOTH",
"532 24 OFFCURVE",
"528 -1 OFFCURVE",
"479 15 CURVE",
"479 0 LINE"
);
},
{
closed = 1;
nodes = (
"373 662 LINE",
"373 711 OFFCURVE",
"331 804 OFFCURVE",
"237 804 CURVE SMOOTH",
"173 804 OFFCURVE",
"89 753 OFFCURVE",
"89 626 CURVE SMOOTH",
"89 468 LINE",
"20 468 LINE",
"20 453 LINE",
"89 453 LINE",
"89 60 LINE SMOOTH",
"89 24 OFFCURVE",
"85 -1 OFFCURVE",
"36 15 CURVE",
"36 0 LINE",
"201 0 LINE",
"201 15 LINE",
"152 -1 OFFCURVE",
"151 24 OFFCURVE",
"151 60 CURVE SMOOTH",
"151 626 LINE SMOOTH",
"151 753 OFFCURVE",
"187 795 OFFCURVE",
"240 795 CURVE SMOOTH",
"297 795 OFFCURVE",
"310 696 OFFCURVE",
"310 657 CURVE SMOOTH",
"310 626 LINE"
);
}
);
width = 687;
}
);
leftKerningGroup = i;
leftMetricsKey = "=n-10";
rightKerningGroup = f;
rightMetricsKey = "=n-100";
},
{
glyphname = f_f_h;
lastChange = "2019-10-12 21:55:21 +0000";
layers = (
{
layerId = "8BDB995E-2F86-4134-8150-9944A684F6E9";
paths = (
{
closed = 1;
nodes = (
"201 0 LINE",
"201 15 LINE",
"152 -1 OFFCURVE",
"151 24 OFFCURVE",
"151 60 CURVE SMOOTH",
"151 453 LINE",
"317 453 LINE",
"317 60 LINE SMOOTH",
"317 24 OFFCURVE",
"313 -1 OFFCURVE",
"264 15 CURVE",
"264 0 LINE",
"429 0 LINE",
"429 15 LINE",
"380 -1 OFFCURVE",
"379 24 OFFCURVE",
"379 60 CURVE SMOOTH",
"379 453 LINE",
"458 453 LINE",
"458 468 LINE",
"379 468 LINE",
"379 626 LINE SMOOTH",
"379 753 OFFCURVE",
"415 795 OFFCURVE",
"468 795 CURVE SMOOTH",
"525 795 OFFCURVE",
"545 715 OFFCURVE",
"545 676 CURVE SMOOTH",
"545 60 LINE SMOOTH",
"545 24 OFFCURVE",
"541 -1 OFFCURVE",
"492 15 CURVE",
"492 0 LINE",
"665 0 LINE",
"665 15 LINE",
"616 -1 OFFCURVE",
"615 24 OFFCURVE",
"615 60 CURVE SMOOTH",
"615 269 LINE SMOOTH",
"615 339 OFFCURVE",
"637 475 OFFCURVE",
"733 475 CURVE SMOOTH",
"792 475 OFFCURVE",
"836 435 OFFCURVE",
"836 340 CURVE SMOOTH",
"836 60 LINE SMOOTH",
"836 24 OFFCURVE",
"835 -1 OFFCURVE",
"786 15 CURVE",
"786 0 LINE",
"956 0 LINE",
"956 15 LINE",
"907 -1 OFFCURVE",
"903 24 OFFCURVE",
"903 60 CURVE SMOOTH",
"903 328 LINE SMOOTH",
"903 429 OFFCURVE",
"816 488 OFFCURVE",
"742 488 CURVE SMOOTH",
"674 488 OFFCURVE",
"635 439 OFFCURVE",
"614 386 CURVE",
"603 386 LINE",
"602 678 LINE",
"602 800 LINE",
"585 800 LINE",
"579 788 OFFCURVE",
"571 779 OFFCURVE",
"559 773 CURVE",
"531 792 OFFCURVE",
"495 804 OFFCURVE",
"475 804 CURVE SMOOTH",
"437 804 OFFCURVE",
"389 786 OFFCURVE",
"356 745 CURVE",
"351 753 LINE SMOOTH",
"333 782 OFFCURVE",
"291 804 OFFCURVE",
"247 804 CURVE SMOOTH",
"183 804 OFFCURVE",
"89 753 OFFCURVE",
"89 626 CURVE SMOOTH",
"89 468 LINE",
"20 468 LINE",
"20 453 LINE",
"89 453 LINE",
"89 60 LINE SMOOTH",
"89 24 OFFCURVE",
"85 -1 OFFCURVE",
"36 15 CURVE",
"36 0 LINE"
);
},
{
closed = 1;
nodes = (
"151 626 LINE SMOOTH",
"151 753 OFFCURVE",
"187 795 OFFCURVE",
"240 795 CURVE SMOOTH",
"306 795 OFFCURVE",
"317 718 OFFCURVE",
"317 626 CURVE SMOOTH",
"317 468 LINE",
"151 468 LINE"
);
}
);
width = 976;
}
);
leftMetricsKey = f;
rightMetricsKey = h;
},
{
glyphname = f_f_i;
lastChange = "2019-10-12 21:55:21 +0000";
layers = (
{
layerId = "8BDB995E-2F86-4134-8150-9944A684F6E9";
paths = (
{
closed = 1;
nodes = (
"201 0 LINE",
"201 15 LINE",
"152 -1 OFFCURVE",
"151 24 OFFCURVE",
"151 60 CURVE SMOOTH",
"151 453 LINE",
"317 453 LINE",
"317 60 LINE SMOOTH",
"317 32 OFFCURVE",
"315 10 OFFCURVE",
"290 10 CURVE SMOOTH",
"283 10 OFFCURVE",
"275 15 OFFCURVE",
"265 15 CURVE SMOOTH",
"264 15 LINE",
"264 0 LINE",
"430 0 LINE",
"430 15 LINE",
"429 15 LINE",
"419 12 OFFCURVE",
"411 10 OFFCURVE",
"404 10 CURVE SMOOTH",
"381 10 OFFCURVE",
"380 32 OFFCURVE",
"380 60 CURVE SMOOTH",
"380 453 LINE",
"545 453 LINE",
"545 60 LINE SMOOTH",
"545 24 OFFCURVE",
"541 -1 OFFCURVE",
"492 15 CURVE",
"492 0 LINE",
"657 0 LINE",
"657 15 LINE",
"608 -1 OFFCURVE",
"607 24 OFFCURVE",
"607 60 CURVE SMOOTH",
"607 468 LINE",
"380 468 LINE",
"380 626 LINE SMOOTH",
"380 753 OFFCURVE",
"416 795 OFFCURVE",
"469 795 CURVE SMOOTH",
"556 795 OFFCURVE",
"554 717 OFFCURVE",
"536 662 CURVE SMOOTH",
"518 608 OFFCURVE",
"541 548 OFFCURVE",
"617 548 CURVE",
"617 558 LINE",
"556 558 OFFCURVE",
"589 635 OFFCURVE",
"599 678 CURVE SMOOTH",
"616 752 OFFCURVE",
"555 809 OFFCURVE",
"476 804 CURVE SMOOTH",
"426 801 OFFCURVE",
"388 784 OFFCURVE",
"356 745 CURVE",
"351 753 LINE SMOOTH",
"333 782 OFFCURVE",
"291 804 OFFCURVE",
"247 804 CURVE SMOOTH",
"183 804 OFFCURVE",
"89 753 OFFCURVE",
"89 626 CURVE SMOOTH",
"89 468 LINE",
"20 468 LINE",
"20 453 LINE",
"89 453 LINE",
"89 60 LINE SMOOTH",
"89 24 OFFCURVE",
"85 -1 OFFCURVE",
"36 15 CURVE",
"36 0 LINE"
);
},
{
closed = 1;
nodes = (
"151 626 LINE SMOOTH",
"151 753 OFFCURVE",
"187 795 OFFCURVE",
"240 795 CURVE SMOOTH",
"306 795 OFFCURVE",
"317 718 OFFCURVE",
"317 626 CURVE SMOOTH",
"317 468 LINE",
"151 468 LINE"
);
}
);
width = 687;
}
);
leftMetricsKey = f;
rightMetricsKey = i;
},
{
glyphname = f_f_j;
lastChange = "2020-03-12 02:53:19 +0000";
layers = (
{
layerId = "8BDB995E-2F86-4134-8150-9944A684F6E9";
paths = (
{
closed = 1;
nodes = (
"541 -265 OFFCURVE",
"608 -226 OFFCURVE",
"608 -133 CURVE SMOOTH",
"608 468 LINE",
"380 468 LINE",
"380 626 LINE SMOOTH",
"380 753 OFFCURVE",
"416 795 OFFCURVE",
"469 795 CURVE SMOOTH",
"556 795 OFFCURVE",
"554 717 OFFCURVE",
"536 662 CURVE SMOOTH",
"518 608 OFFCURVE",
"541 548 OFFCURVE",
"617 548 CURVE",
"617 558 LINE",
"556 558 OFFCURVE",
"589 635 OFFCURVE",
"599 678 CURVE SMOOTH",
"616 752 OFFCURVE",
"555 804 OFFCURVE",
"476 804 CURVE",
"426 801 OFFCURVE",
"388 784 OFFCURVE",
"356 745 CURVE",
"351 753 LINE SMOOTH",
"333 782 OFFCURVE",
"291 804 OFFCURVE",
"247 804 CURVE SMOOTH",
"183 804 OFFCURVE",
"89 753 OFFCURVE",
"89 626 CURVE SMOOTH",
"89 468 LINE",
"20 468 LINE",
"20 453 LINE",
"89 453 LINE",
"89 60 LINE SMOOTH",
"89 24 OFFCURVE",
"85 -1 OFFCURVE",
"36 15 CURVE",
"36 0 LINE",
"201 0 LINE",
"201 15 LINE",
"152 -1 OFFCURVE",
"151 24 OFFCURVE",
"151 60 CURVE SMOOTH",
"151 453 LINE",
"317 453 LINE",
"317 60 LINE SMOOTH",
"317 32 OFFCURVE",
"315 10 OFFCURVE",
"290 10 CURVE SMOOTH",
"283 10 OFFCURVE",
"275 12 OFFCURVE",
"265 15 CURVE",
"264 15 LINE",
"264 0 LINE",
"430 0 LINE",
"430 15 LINE",
"429 15 LINE",
"419 12 OFFCURVE",
"411 10 OFFCURVE",
"404 10 CURVE SMOOTH",
"381 10 OFFCURVE",
"380 32 OFFCURVE",
"380 60 CURVE SMOOTH",
"380 453 LINE",
"546 453 LINE",
"546 -133 LINE SMOOTH",
"546 -226 OFFCURVE",
"528 -254 OFFCURVE",
"493 -254 CURVE SMOOTH",
"439 -254 OFFCURVE",
"482 -182 OFFCURVE",
"482 -138 CURVE SMOOTH",
"482 -88 OFFCURVE",
"428 -67 OFFCURVE",
"394 -67 CURVE",
"394 -79 LINE",
"486 -79 OFFCURVE",
"407 -142 OFFCURVE",
"407 -186 CURVE SMOOTH",
"407 -229 OFFCURVE",
"438 -265 OFFCURVE",
"482 -265 CURVE SMOOTH"
);
},
{
closed = 1;
nodes = (
"151 626 LINE SMOOTH",
"151 753 OFFCURVE",
"187 795 OFFCURVE",
"240 795 CURVE SMOOTH",
"306 795 OFFCURVE",
"317 718 OFFCURVE",
"317 626 CURVE SMOOTH",
"317 468 LINE",
"151 468 LINE"
);
}
);
width = 682;
}
);
leftMetricsKey = f;
rightMetricsKey = j;
},
{
glyphname = f_f_k;
lastChange = "2019-10-12 21:55:21 +0000";
layers = (
{
layerId = "8BDB995E-2F86-4134-8150-9944A684F6E9";
paths = (
{
closed = 1;
nodes = (
"201 0 LINE",
"201 15 LINE",
"152 -1 OFFCURVE",
"151 24 OFFCURVE",
"151 60 CURVE SMOOTH",
"151 453 LINE",
"317 453 LINE",
"317 60 LINE SMOOTH",
"317 24 OFFCURVE",
"313 -1 OFFCURVE",
"264 15 CURVE",
"264 0 LINE",
"429 0 LINE",
"429 15 LINE",
"380 -1 OFFCURVE",
"379 24 OFFCURVE",
"379 60 CURVE SMOOTH",
"379 453 LINE",
"458 453 LINE",
"458 468 LINE",
"379 468 LINE",
"379 626 LINE SMOOTH",
"379 753 OFFCURVE",
"415 795 OFFCURVE",
"468 795 CURVE SMOOTH",
"525 795 OFFCURVE",
"545 715 OFFCURVE",
"545 676 CURVE SMOOTH",
"545 672 LINE",
"602 672 LINE",
"602 800 LINE",
"585 800 LINE",
"579 788 OFFCURVE",
"571 779 OFFCURVE",
"559 773 CURVE",
"531 792 OFFCURVE",
"495 804 OFFCURVE",
"475 804 CURVE SMOOTH",
"437 804 OFFCURVE",
"389 786 OFFCURVE",
"356 745 CURVE",
"351 753 LINE SMOOTH",
"332 782 OFFCURVE",
"291 804 OFFCURVE",
"247 804 CURVE SMOOTH",
"183 804 OFFCURVE",
"89 753 OFFCURVE",
"89 626 CURVE SMOOTH",
"89 468 LINE",
"20 468 LINE",
"20 453 LINE",
"89 453 LINE",
"89 60 LINE SMOOTH",
"89 24 OFFCURVE",
"85 -1 OFFCURVE",
"36 15 CURVE",
"36 0 LINE"
);
},
{
closed = 1;
nodes = (
"151 626 LINE SMOOTH",
"151 753 OFFCURVE",
"187 795 OFFCURVE",
"240 795 CURVE SMOOTH",
"306 795 OFFCURVE",
"317 718 OFFCURVE",
"317 626 CURVE SMOOTH",
"317 468 LINE",
"151 468 LINE"
);
},
{
closed = 1;
nodes = (
"652 0 LINE",
"652 15 LINE",
"603 -1 OFFCURVE",
"602 24 OFFCURVE",
"602 60 CURVE SMOOTH",
"602 255 LINE",
"641 292 LINE",
"703 201 OFFCURVE",
"749 136 OFFCURVE",
"809 46 CURVE SMOOTH",
"821 28 OFFCURVE",
"809 3 OFFCURVE",
"760 15 CURVE",
"760 0 LINE",
"959 0 LINE",
"959 15 LINE",
"912 3 OFFCURVE",
"891 31 OFFCURVE",
"832 121 CURVE SMOOTH",
"690 336 LINE",
"714 358 OFFCURVE",
"739 381 OFFCURVE",
"766 408 CURVE SMOOTH",
"799 441 OFFCURVE",
"830 468 OFFCURVE",
"879 452 CURVE",
"879 467 LINE",
"709 467 LINE",
"709 452 LINE",
"758 468 OFFCURVE",
"784 443 OFFCURVE",
"751 411 CURVE SMOOTH",
"699 360 OFFCURVE",
"651 320 OFFCURVE",
"602 273 CURVE",
"602 770 LINE",
"545 770 LINE",
"545 60 LINE SMOOTH",
"545 24 OFFCURVE",
"541 -1 OFFCURVE",
"492 15 CURVE",
"492 0 LINE"
);
}
);
width = 899;
}
);
leftMetricsKey = f;
rightMetricsKey = k;
},
{
glyphname = f_f_l;
lastChange = "2020-03-12 17:58:34 +0000";
layers = (
{
layerId = "8BDB995E-2F86-4134-8150-9944A684F6E9";
paths = (
{
closed = 1;
nodes = (
"201 0 LINE",
"201 15 LINE",
"152 -1 OFFCURVE",
"151 24 OFFCURVE",
"151 60 CURVE SMOOTH",
"151 453 LINE",
"317 453 LINE",
"317 60 LINE SMOOTH",
"317 24 OFFCURVE",
"313 -1 OFFCURVE",
"264 15 CURVE",
"264 0 LINE",
"429 0 LINE",
"429 15 LINE",
"380 -1 OFFCURVE",
"379 24 OFFCURVE",
"379 60 CURVE SMOOTH",
"379 453 LINE",
"458 453 LINE",
"458 468 LINE",
"379 468 LINE",
"379 626 LINE SMOOTH",
"379 753 OFFCURVE",
"415 795 OFFCURVE",
"468 795 CURVE SMOOTH",
"525 795 OFFCURVE",
"545 715 OFFCURVE",
"545 676 CURVE SMOOTH",
"545 60 LINE SMOOTH",
"545 24 OFFCURVE",
"541 -1 OFFCURVE",
"492 15 CURVE",
"492 0 LINE",
"657 0 LINE",
"657 15 LINE",
"608 -1 OFFCURVE",
"607 24 OFFCURVE",
"607 60 CURVE SMOOTH",
"608 800 LINE",
"585 800 LINE",
"579 788 OFFCURVE",
"571 779 OFFCURVE",
"559 773 CURVE",
"531 792 OFFCURVE",
"495 804 OFFCURVE",
"475 804 CURVE SMOOTH",
"437 804 OFFCURVE",
"389 786 OFFCURVE",
"356 745 CURVE",
"351 753 LINE SMOOTH",
"332 782 OFFCURVE",
"291 804 OFFCURVE",
"247 804 CURVE SMOOTH",
"183 804 OFFCURVE",
"89 753 OFFCURVE",
"89 626 CURVE SMOOTH",
"89 468 LINE",
"20 468 LINE",
"20 453 LINE",
"89 453 LINE",
"89 60 LINE SMOOTH",
"89 24 OFFCURVE",
"85 -1 OFFCURVE",
"36 15 CURVE",
"36 0 LINE"
);
},
{
closed = 1;
nodes = (
"151 626 LINE SMOOTH",
"151 753 OFFCURVE",
"187 795 OFFCURVE",
"240 795 CURVE SMOOTH",
"306 795 OFFCURVE",
"317 718 OFFCURVE",
"317 626 CURVE SMOOTH",
"317 468 LINE",
"151 468 LINE"
);
}
);
width = 677;
}
);
leftMetricsKey = f;
rightMetricsKey = l;
},
{
glyphname = f_f_t;
lastChange = "2020-03-12 17:54:50 +0000";
layers = (
{
guideLines = (
{
angle = 270;
position = "{379, 305}";
},
{
angle = 270;
position = "{564, 305}";
}
);
layerId = "8BDB995E-2F86-4134-8150-9944A684F6E9";
paths = (
{
closed = 1;
nodes = (
"675 -10 OFFCURVE",
"714 67 OFFCURVE",
"714 120 CURVE",
"704 120 LINE",
"704 101 OFFCURVE",
"689 26 OFFCURVE",
"645 26 CURVE SMOOTH",
"622 26 OFFCURVE",
"613 48 OFFCURVE",
"613 101 CURVE SMOOTH",
"614 453 LINE",
"696 453 LINE",
"696 468 LINE",
"614 468 LINE",
"615 618 LINE",
"594 618 LINE",
"594 603 OFFCURVE",
"584 577 OFFCURVE",
"552 577 CURVE SMOOTH",
"485 577 OFFCURVE",
"534 672 OFFCURVE",
"534 716 CURVE SMOOTH",
"534 774 OFFCURVE",
"496 804 OFFCURVE",
"436 804 CURVE SMOOTH",
"395 804 OFFCURVE",
"317 770 OFFCURVE",
"317 643 CURVE SMOOTH",
"317 468 LINE",
"136 468 LINE",
"136 453 LINE",
"317 453 LINE",
"317 60 LINE SMOOTH",
"317 24 OFFCURVE",
"313 -1 OFFCURVE",
"264 15 CURVE",
"264 0 LINE",
"429 0 LINE",
"429 15 LINE",
"380 -1 OFFCURVE",
"379 24 OFFCURVE",
"379 60 CURVE SMOOTH",
"379 453 LINE",
"552 453 LINE",
"552 150 LINE SMOOTH",
"553 76 OFFCURVE",
"542 -10 OFFCURVE",
"610 -10 CURVE SMOOTH"
);
},
{
closed = 1;
nodes = (
"379 643 LINE SMOOTH",
"379 770 OFFCURVE",
"399 795 OFFCURVE",
"429 795 CURVE SMOOTH",
"496 795 OFFCURVE",
"467 715 OFFCURVE",
"467 676 CURVE SMOOTH",
"467 619 OFFCURVE",
"501 567 OFFCURVE",
"552 567 CURVE",
"552 468 LINE",
"379 468 LINE"
);
},
{
closed = 1;
nodes = (
"379 662 LINE",
"379 711 OFFCURVE",
"331 804 OFFCURVE",
"237 804 CURVE SMOOTH",
"173 804 OFFCURVE",
"89 753 OFFCURVE",
"89 626 CURVE SMOOTH",
"89 468 LINE",
"20 468 LINE",
"20 453 LINE",
"89 453 LINE",
"89 60 LINE SMOOTH",
"89 24 OFFCURVE",
"85 -1 OFFCURVE",
"36 15 CURVE",
"36 0 LINE",
"201 0 LINE",
"201 15 LINE",
"152 -1 OFFCURVE",
"151 24 OFFCURVE",
"151 60 CURVE SMOOTH",
"151 626 LINE SMOOTH",
"151 753 OFFCURVE",
"187 795 OFFCURVE",
"240 795 CURVE SMOOTH",
"297 795 OFFCURVE",
"317 696 OFFCURVE",
"317 657 CURVE SMOOTH",
"317 626 LINE"
);
}
);
width = 734;
}
);
leftMetricsKey = f;
rightMetricsKey = t;
},
{
glyphname = f_h;
lastChange = "2019-10-12 21:55:21 +0000";
layers = (
{
layerId = "8BDB995E-2F86-4134-8150-9944A684F6E9";
paths = (
{
closed = 1;
nodes = (
"201 0 LINE",
"201 15 LINE",
"152 -1 OFFCURVE",
"151 24 OFFCURVE",
"151 60 CURVE SMOOTH",
"151 626 LINE SMOOTH",
"151 753 OFFCURVE",
"187 795 OFFCURVE",
"240 795 CURVE SMOOTH",
"297 795 OFFCURVE",
"317 715 OFFCURVE",
"317 676 CURVE SMOOTH",
"317 60 LINE SMOOTH",
"317 24 OFFCURVE",
"313 -1 OFFCURVE",
"264 15 CURVE",
"264 0 LINE",
"437 0 LINE",
"437 15 LINE",
"388 -1 OFFCURVE",
"387 24 OFFCURVE",
"387 60 CURVE SMOOTH",
"387 269 LINE SMOOTH",
"387 339 OFFCURVE",
"409 475 OFFCURVE",
"505 475 CURVE SMOOTH",
"564 475 OFFCURVE",
"608 435 OFFCURVE",
"608 340 CURVE SMOOTH",
"608 60 LINE SMOOTH",
"608 24 OFFCURVE",
"607 -1 OFFCURVE",
"558 15 CURVE",
"558 0 LINE",
"728 0 LINE",
"728 15 LINE",
"679 -1 OFFCURVE",
"675 24 OFFCURVE",
"675 60 CURVE SMOOTH",
"675 328 LINE SMOOTH",
"675 429 OFFCURVE",
"588 488 OFFCURVE",
"514 488 CURVE SMOOTH",
"446 488 OFFCURVE",
"407 439 OFFCURVE",
"386 386 CURVE",
"372 386 LINE",
"371 800 LINE",
"353 800 LINE",
"347 791 OFFCURVE",
"339 781 OFFCURVE",
"331 773 CURVE",
"303 792 OFFCURVE",
"267 804 OFFCURVE",
"247 804 CURVE SMOOTH",
"183 804 OFFCURVE",
"89 753 OFFCURVE",
"89 626 CURVE SMOOTH",
"89 468 LINE",
"20 468 LINE",
"20 453 LINE",
"89 453 LINE",
"89 60 LINE SMOOTH",
"89 24 OFFCURVE",
"85 -1 OFFCURVE",
"36 15 CURVE",
"36 0 LINE"
);
}
);
width = 748;
}
);
leftMetricsKey = f;
rightMetricsKey = h;
},
{
glyphname = f_i;
lastChange = "2019-10-12 21:55:21 +0000";
layers = (
{
layerId = "8BDB995E-2F86-4134-8150-9944A684F6E9";
paths = (
{
closed = 1;
nodes = (
"201 0 LINE",
"201 15 LINE",
"152 -1 OFFCURVE",
"151 24 OFFCURVE",
"151 60 CURVE SMOOTH",
"151 453 LINE",
"317 453 LINE",
"317 60 LINE SMOOTH",
"317 24 OFFCURVE",
"313 -1 OFFCURVE",
"264 15 CURVE",
"264 0 LINE",
"429 0 LINE",
"429 15 LINE",
"380 -1 OFFCURVE",
"379 24 OFFCURVE",
"379 60 CURVE SMOOTH",
"379 468 LINE",
"151 468 LINE",
"151 626 LINE SMOOTH",
"151 753 OFFCURVE",
"187 795 OFFCURVE",
"240 795 CURVE SMOOTH",
"327 795 OFFCURVE",
"325 717 OFFCURVE",
"307 662 CURVE SMOOTH",
"289 608 OFFCURVE",
"312 548 OFFCURVE",
"388 548 CURVE",
"388 558 LINE",
"327 558 OFFCURVE",
"360 635 OFFCURVE",
"370 678 CURVE SMOOTH",
"387 752 OFFCURVE",
"326 804 OFFCURVE",
"247 804 CURVE SMOOTH",
"183 804 OFFCURVE",
"89 753 OFFCURVE",
"89 626 CURVE SMOOTH",
"89 468 LINE",
"20 468 LINE",
"20 453 LINE",
"89 453 LINE",
"89 60 LINE SMOOTH",
"89 24 OFFCURVE",
"85 -1 OFFCURVE",
"36 15 CURVE",
"36 0 LINE"
);
}
);
width = 459;
}
);
leftMetricsKey = "=f";
rightMetricsKey = "=i";
},
{
glyphname = f_j;
lastChange = "2019-10-12 21:55:21 +0000";
layers = (
{
layerId = "8BDB995E-2F86-4134-8150-9944A684F6E9";
paths = (
{
closed = 1;
nodes = (
"312 -265 OFFCURVE",
"379 -226 OFFCURVE",
"379 -133 CURVE SMOOTH",
"379 468 LINE",
"151 468 LINE",
"151 626 LINE SMOOTH",
"151 753 OFFCURVE",
"187 795 OFFCURVE",
"240 795 CURVE SMOOTH",
"327 795 OFFCURVE",
"325 717 OFFCURVE",
"307 662 CURVE SMOOTH",
"289 608 OFFCURVE",
"312 548 OFFCURVE",
"388 548 CURVE",
"388 558 LINE",
"327 558 OFFCURVE",
"360 635 OFFCURVE",
"370 678 CURVE SMOOTH",
"387 752 OFFCURVE",
"326 804 OFFCURVE",
"247 804 CURVE SMOOTH",
"183 804 OFFCURVE",
"89 753 OFFCURVE",
"89 626 CURVE SMOOTH",
"89 468 LINE",
"20 468 LINE",
"20 453 LINE",
"89 453 LINE",
"89 60 LINE SMOOTH",
"89 24 OFFCURVE",
"85 -1 OFFCURVE",
"36 15 CURVE",
"36 0 LINE",
"201 0 LINE",
"201 15 LINE",
"152 -1 OFFCURVE",
"151 24 OFFCURVE",
"151 60 CURVE SMOOTH",
"151 453 LINE",
"317 453 LINE",
"317 -133 LINE SMOOTH",
"317 -226 OFFCURVE",
"299 -254 OFFCURVE",
"264 -254 CURVE SMOOTH",
"210 -254 OFFCURVE",
"253 -182 OFFCURVE",
"253 -138 CURVE SMOOTH",
"253 -88 OFFCURVE",
"199 -67 OFFCURVE",
"165 -67 CURVE",
"165 -79 LINE",
"257 -79 OFFCURVE",
"178 -142 OFFCURVE",
"178 -186 CURVE SMOOTH",
"178 -229 OFFCURVE",
"209 -265 OFFCURVE",
"253 -265 CURVE SMOOTH"
);
}
);
width = 453;
}
);
leftMetricsKey = "=f";
rightMetricsKey = "=j";
},
{
glyphname = f_k;
lastChange = "2019-10-12 21:55:21 +0000";
layers = (
{
guideLines = (
{
angle = 270;
position = "{151, 305}";
}
);
layerId = "8BDB995E-2F86-4134-8150-9944A684F6E9";
paths = (
{
closed = 1;
nodes = (
"201 0 LINE",
"201 15 LINE",
"152 -1 OFFCURVE",
"151 24 OFFCURVE",
"151 60 CURVE SMOOTH",
"151 626 LINE SMOOTH",
"151 753 OFFCURVE",
"187 795 OFFCURVE",
"240 795 CURVE SMOOTH",
"297 795 OFFCURVE",
"317 715 OFFCURVE",
"317 676 CURVE SMOOTH",
"317 60 LINE SMOOTH",
"317 24 OFFCURVE",
"313 -1 OFFCURVE",
"264 15 CURVE",
"264 0 LINE",
"424 0 LINE",
"424 15 LINE",
"375 -1 OFFCURVE",
"374 24 OFFCURVE",
"374 60 CURVE SMOOTH",
"374 255 LINE",
"413 292 LINE",
"475 201 OFFCURVE",
"521 136 OFFCURVE",
"581 46 CURVE SMOOTH",
"593 28 OFFCURVE",
"581 3 OFFCURVE",
"532 15 CURVE",
"532 0 LINE",
"731 0 LINE",
"731 15 LINE",
"684 3 OFFCURVE",
"663 31 OFFCURVE",
"604 121 CURVE SMOOTH",
"462 336 LINE",
"486 358 OFFCURVE",
"511 381 OFFCURVE",
"538 408 CURVE SMOOTH",
"571 441 OFFCURVE",
"602 468 OFFCURVE",
"651 452 CURVE",
"651 467 LINE",
"481 467 LINE",
"481 452 LINE",
"530 468 OFFCURVE",
"556 443 OFFCURVE",
"523 411 CURVE SMOOTH",
"471 360 OFFCURVE",
"423 320 OFFCURVE",
"374 273 CURVE",
"374 800 LINE",
"353 800 LINE",
"347 791 OFFCURVE",
"339 781 OFFCURVE",
"331 773 CURVE",
"303 792 OFFCURVE",
"267 804 OFFCURVE",
"247 804 CURVE SMOOTH",
"183 804 OFFCURVE",
"89 753 OFFCURVE",
"89 626 CURVE SMOOTH",
"89 468 LINE",
"20 468 LINE",
"20 453 LINE",
"89 453 LINE",
"89 60 LINE SMOOTH",
"89 24 OFFCURVE",
"85 -1 OFFCURVE",
"36 15 CURVE",
"36 0 LINE"
);
}
);
width = 671;
}
);
leftMetricsKey = f;
rightMetricsKey = k;
},
{
glyphname = f_l;
lastChange = "2020-03-12 17:58:34 +0000";
layers = (
{
guideLines = (
{
angle = 270;
position = "{151, 305}";
}
);
layerId = "8BDB995E-2F86-4134-8150-9944A684F6E9";
paths = (
{
closed = 1;
nodes = (
"201 0 LINE",
"201 15 LINE",
"152 -1 OFFCURVE",
"151 24 OFFCURVE",
"151 60 CURVE SMOOTH",
"151 626 LINE SMOOTH",
"151 753 OFFCURVE",
"187 795 OFFCURVE",
"240 795 CURVE SMOOTH",
"297 795 OFFCURVE",
"317 715 OFFCURVE",
"317 676 CURVE SMOOTH",
"317 60 LINE SMOOTH",
"317 24 OFFCURVE",
"313 -1 OFFCURVE",
"264 15 CURVE",
"264 0 LINE",
"429 0 LINE",
"429 15 LINE",
"380 -1 OFFCURVE",
"379 24 OFFCURVE",
"379 60 CURVE SMOOTH",
"380 800 LINE",
"357 800 LINE",
"351 788 OFFCURVE",
"343 779 OFFCURVE",
"331 773 CURVE",
"303 792 OFFCURVE",
"267 804 OFFCURVE",
"247 804 CURVE SMOOTH",
"183 804 OFFCURVE",
"89 753 OFFCURVE",
"89 626 CURVE SMOOTH",
"89 468 LINE",
"20 468 LINE",
"20 453 LINE",
"89 453 LINE",
"89 60 LINE SMOOTH",
"89 24 OFFCURVE",
"85 -1 OFFCURVE",
"36 15 CURVE",
"36 0 LINE"
);
}
);
width = 449;
}
);
leftMetricsKey = f;
rightMetricsKey = l;
},
{
glyphname = f_t;
lastChange = "2020-03-12 17:54:50 +0000";
layers = (
{
guideLines = (
{
angle = 270;
position = "{151, 305}";
},
{
angle = 270;
position = "{336, 305}";
}
);
layerId = "8BDB995E-2F86-4134-8150-9944A684F6E9";
paths = (
{
closed = 1;
nodes = (
"447 -10 OFFCURVE",
"486 67 OFFCURVE",
"486 120 CURVE",
"476 120 LINE",
"476 101 OFFCURVE",
"461 26 OFFCURVE",
"417 26 CURVE SMOOTH",
"394 26 OFFCURVE",
"385 48 OFFCURVE",
"385 101 CURVE SMOOTH",
"386 453 LINE",
"468 453 LINE",
"468 468 LINE",
"386 468 LINE",
"387 618 LINE",
"366 618 LINE",
"366 603 OFFCURVE",
"356 577 OFFCURVE",
"324 577 CURVE SMOOTH",
"257 577 OFFCURVE",
"306 672 OFFCURVE",
"306 716 CURVE SMOOTH",
"306 774 OFFCURVE",
"268 804 OFFCURVE",
"208 804 CURVE SMOOTH",
"167 804 OFFCURVE",
"89 770 OFFCURVE",
"89 643 CURVE SMOOTH",
"89 468 LINE",
"20 468 LINE",
"20 453 LINE",
"89 453 LINE",
"89 60 LINE SMOOTH",
"89 24 OFFCURVE",
"85 -1 OFFCURVE",
"36 15 CURVE",
"36 0 LINE",
"201 0 LINE",
"201 15 LINE",
"152 -1 OFFCURVE",
"151 24 OFFCURVE",
"151 60 CURVE SMOOTH",
"151 453 LINE",
"324 453 LINE",
"324 150 LINE SMOOTH",
"325 76 OFFCURVE",
"314 -10 OFFCURVE",
"382 -10 CURVE SMOOTH"
);
},
{
closed = 1;
nodes = (
"151 643 LINE SMOOTH",
"151 770 OFFCURVE",
"171 795 OFFCURVE",
"201 795 CURVE SMOOTH",
"268 795 OFFCURVE",
"239 715 OFFCURVE",
"239 676 CURVE SMOOTH",
"239 619 OFFCURVE",
"273 567 OFFCURVE",
"324 567 CURVE",
"324 468 LINE",
"151 468 LINE"
);
}
);
width = 506;
}
);
leftMetricsKey = f;
rightMetricsKey = t;
},
{
glyphname = s_t;
lastChange = "2020-03-12 17:54:50 +0000";
layers = (
{
guideLines = (
{
position = "{500, 760}";
}
);
layerId = "8BDB995E-2F86-4134-8150-9944A684F6E9";
paths = (
{
closed = 1;
nodes = (
"561 -10 OFFCURVE",
"600 67 OFFCURVE",
"600 120 CURVE",
"590 120 LINE",
"590 101 OFFCURVE",
"575 26 OFFCURVE",
"531 26 CURVE SMOOTH",
"508 26 OFFCURVE",
"499 48 OFFCURVE",
"499 101 CURVE SMOOTH",
"500 453 LINE",
"582 453 LINE",
"582 468 LINE",
"500 468 LINE",
"501 612 LINE SMOOTH",
"502 706 OFFCURVE",
"419 760 OFFCURVE",
"341 760 CURVE SMOOTH",
"245 760 OFFCURVE",
"173 722 OFFCURVE",
"147 652 CURVE SMOOTH",
"121 584 OFFCURVE",
"151 487 OFFCURVE",
"209 472 CURVE",
"209 482 LINE",
"162 504 OFFCURVE",
"178 616 OFFCURVE",
"190 644 CURVE SMOOTH",
"211 694 OFFCURVE",
"244 745 OFFCURVE",
"341 745 CURVE SMOOTH",
"405 745 OFFCURVE",
"480 712 OFFCURVE",
"480 618 CURVE SMOOTH",
"480 603 OFFCURVE",
"470 575 OFFCURVE",
"438 575 CURVE",
"438 468 LINE",
"372 468 LINE",
"372 453 LINE",
"438 453 LINE",
"438 150 LINE SMOOTH",
"438 76 OFFCURVE",
"428 -10 OFFCURVE",
"496 -10 CURVE SMOOTH"
);
},
{
closed = 1;
nodes = (
"275 -10 OFFCURVE",
"332 67 OFFCURVE",
"332 133 CURVE SMOOTH",
"332 301 OFFCURVE",
"105 270 OFFCURVE",
"105 381 CURVE SMOOTH",
"105 442 OFFCURVE",
"133 475 OFFCURVE",
"186 475 CURVE SMOOTH",
"248 475 OFFCURVE",
"284 411 OFFCURVE",
"284 356 CURVE",
"299 356 LINE",
"299 487 LINE",
"286 487 LINE",
"279 436 LINE",
"273 460 OFFCURVE",
"223 487 OFFCURVE",
"176 487 CURVE SMOOTH",
"101 487 OFFCURVE",
"40 443 OFFCURVE",
"40 359 CURVE SMOOTH",
"40 232 OFFCURVE",
"265 251 OFFCURVE",
"265 126 CURVE SMOOTH",
"265 64 OFFCURVE",
"239 5 OFFCURVE",
"172 5 CURVE SMOOTH",
"97 5 OFFCURVE",
"59 64 OFFCURVE",
"59 179 CURVE",
"41 179 LINE",
"41 0 LINE",
"54 0 LINE",
"63 54 LINE",
"89 16 OFFCURVE",
"129 -10 OFFCURVE",
"190 -10 CURVE SMOOTH"
);
}
);
width = 620;
}
);
leftMetricsKey = "=s";
rightMetricsKey = "=t";
},
{
glyphname = t_t;
lastChange = "2020-03-12 17:54:50 +0000";
layers = (
{
layerId = "8BDB995E-2F86-4134-8150-9944A684F6E9";
paths = (
{
closed = 1;
nodes = (
"199 -10 OFFCURVE",
"238 67 OFFCURVE",
"238 120 CURVE",
"228 120 LINE",
"228 101 OFFCURVE",
"213 26 OFFCURVE",
"169 26 CURVE SMOOTH",
"146 26 OFFCURVE",
"137 48 OFFCURVE",
"137 101 CURVE SMOOTH",
"138 453 LINE",
"314 453 LINE",
"314 150 LINE SMOOTH",
"315 76 OFFCURVE",
"304 -10 OFFCURVE",
"372 -10 CURVE SMOOTH",
"437 -10 OFFCURVE",
"476 67 OFFCURVE",
"476 120 CURVE",
"466 120 LINE",
"466 101 OFFCURVE",
"451 26 OFFCURVE",
"407 26 CURVE SMOOTH",
"384 26 OFFCURVE",
"375 48 OFFCURVE",
"375 101 CURVE SMOOTH",
"376 453 LINE",
"458 453 LINE",
"458 468 LINE",
"376 468 LINE",
"377 618 LINE",
"356 618 LINE",
"356 603 OFFCURVE",
"346 575 OFFCURVE",
"314 575 CURVE",
"314 468 LINE",
"138 468 LINE",
"139 618 LINE",
"118 618 LINE",
"118 603 OFFCURVE",
"108 575 OFFCURVE",
"76 575 CURVE",
"76 468 LINE",
"10 468 LINE",
"10 453 LINE",
"76 453 LINE",
"76 150 LINE SMOOTH",
"77 76 OFFCURVE",
"66 -10 OFFCURVE",
"134 -10 CURVE SMOOTH"
);
}
);
width = 496;
}
);
leftMetricsKey = t;
rightMetricsKey = t;
},
{
glyphname = ordfeminine;
lastChange = "2020-03-12 02:53:19 +0000";
layers = (
{
anchors = (
{
name = bottom;
position = "{146, 0}";
},
{
name = ogonek;
position = "{372, -34}";
},
{
name = top;
position = "{220, 467}";
}
);
layerId = "8BDB995E-2F86-4134-8150-9944A684F6E9";
paths = (
{
closed = 1;
nodes = (
"239 428 OFFCURVE",
"242 523 OFFCURVE",
"242 529 CURVE SMOOTH",
"242 482 OFFCURVE",
"242 428 OFFCURVE",
"290 428 CURVE SMOOTH",
"317 428 OFFCURVE",
"347 443 OFFCURVE",
"347 476 CURVE",
"340 476 LINE",
"340 464 OFFCURVE",
"329 451 OFFCURVE",
"319 451 CURVE SMOOTH",
"295 451 OFFCURVE",
"295 485 OFFCURVE",
"295 498 CURVE SMOOTH",
"295 634 LINE SMOOTH",
"295 674 OFFCURVE",
"278 741 OFFCURVE",
"178 741 CURVE SMOOTH",
"114 741 OFFCURVE",
"61 690 OFFCURVE",
"61 645 CURVE",
"155 645 LINE",
"155 662 LINE",
"148 662 LINE",
"148 657 OFFCURVE",
"146 652 OFFCURVE",
"135 652 CURVE SMOOTH",
"115 652 OFFCURVE",
"119 657 OFFCURVE",
"119 667 CURVE SMOOTH",
"119 705 OFFCURVE",
"131 733 OFFCURVE",
"166 733 CURVE SMOOTH",
"239 733 OFFCURVE",
"242 679 OFFCURVE",
"242 627 CURVE",
"235 606 OFFCURVE",
"182 603 OFFCURVE",
"124 589 CURVE SMOOTH",
"92 581 OFFCURVE",
"48 554 OFFCURVE",
"48 512 CURVE SMOOTH",
"48 455 OFFCURVE",
"97 428 OFFCURVE",
"142 428 CURVE SMOOTH"
);
},
{
closed = 1;
nodes = (
"117 446 OFFCURVE",
"103 482 OFFCURVE",
"103 515 CURVE SMOOTH",
"103 546 OFFCURVE",
"114 567 OFFCURVE",
"156 582 CURVE SMOOTH",
"212 602 OFFCURVE",
"241 602 OFFCURVE",
"241 607 CURVE SMOOTH",
"241 559 LINE SMOOTH",
"241 529 OFFCURVE",
"216 446 OFFCURVE",
"159 446 CURVE SMOOTH"
);
}
);
width = 377;
}
);
unicode = 00AA;
},
{
glyphname = ordmasculine;
lastChange = "2019-10-12 21:46:29 +0000";
layers = (
{
anchors = (
{
name = bottom;
position = "{235, 0}";
},
{
name = center;
position = "{236, 239}";
},
{
name = ogonek;
position = "{263, 2}";
},
{
name = top;
position = "{235, 467}";
},
{
name = topright;
position = "{396, 431}";
}
);
guideLines = (
{
position = "{-101, 428}";
}
);
layerId = "8BDB995E-2F86-4134-8150-9944A684F6E9";
paths = (
{
closed = 1;
nodes = (
"257 428 OFFCURVE",
"289 498 OFFCURVE",
"289 585 CURVE SMOOTH",
"289 661 OFFCURVE",
"257 740 OFFCURVE",
"159 740 CURVE SMOOTH",
"61 740 OFFCURVE",
"30 661 OFFCURVE",
"30 585 CURVE SMOOTH",
"30 498 OFFCURVE",
"61 428 OFFCURVE",
"159 428 CURVE SMOOTH"
);
},
{
closed = 1;
nodes = (
"104 435 OFFCURVE",
"86 503 OFFCURVE",
"86 585 CURVE SMOOTH",
"86 658 OFFCURVE",
"104 733 OFFCURVE",
"159 733 CURVE SMOOTH",
"215 733 OFFCURVE",
"233 658 OFFCURVE",
"233 585 CURVE SMOOTH",
"233 503 OFFCURVE",
"215 435 OFFCURVE",
"159 435 CURVE SMOOTH"
);
}
);
width = 319;
}
);
unicode = 00BA;
},
{
glyphname = hmod;
lastChange = "2020-03-12 03:07:44 +0000";
layers = (
{
anchors = (
{
name = bottom;
position = "{187, 449}";
},
{
name = center;
position = "{178, 719}";
},
{
name = top;
position = "{178, 989}";
}
);
layerId = "8BDB995E-2F86-4134-8150-9944A684F6E9";
paths = (
{
closed = 1;
nodes = (
"328 447 LINE",
"328 462 LINE",
"302 453 OFFCURVE",
"297 455 OFFCURVE",
"297 485 CURVE SMOOTH",
"297 646 LINE SMOOTH",
"297 707 OFFCURVE",
"241 744 OFFCURVE",
"195 744 CURVE SMOOTH",
"115 744 OFFCURVE",
"98 640 OFFCURVE",
"99 609 CURVE",
"124 609 LINE",
"124 651 OFFCURVE",
"136 732 OFFCURVE",
"190 732 CURVE SMOOTH",
"226 732 OFFCURVE",
"246 704 OFFCURVE",
"246 653 CURVE SMOOTH",
"246 485 LINE SMOOTH",
"246 454 OFFCURVE",
"243 453 OFFCURVE",
"216 462 CURVE",
"216 447 LINE"
);
},
{
closed = 1;
nodes = (
"154 447 LINE",
"154 462 LINE",
"127 453 OFFCURVE",
"124 454 OFFCURVE",
"124 485 CURVE SMOOTH",
"124 683 LINE",
"115 683 LINE",
"114 931 LINE",
"94 931 LINE",
"83 917 OFFCURVE",
"76 904 OFFCURVE",
"65 904 CURVE SMOOTH",
"60 904 OFFCURVE",
"55 908 OFFCURVE",
"55 915 CURVE",
"40 915 LINE",
"40 895 LINE",
"51 892 OFFCURVE",
"63 893 OFFCURVE",
"72 894 CURVE",
"72 485 LINE SMOOTH",
"72 456 OFFCURVE",
"66 453 OFFCURVE",
"40 462 CURVE",
"40 447 LINE"
);
}
);
width = 348;
}
);
leftKerningGroup = h;
leftMetricsKey = "=n+10";
rightKerningGroup = n;
rightMetricsKey = "=n";
unicode = 02B0;
},
{
glyphname = nmod;
lastChange = "2020-03-12 03:08:05 +0000";
layers = (
{
anchors = (
{
name = bottom;
position = "{157, 449}";
},
{
name = top;
position = "{149, 730}";
}
);
backgroundImage = {
alpha = 10;
crop = "{{0, 0}, {1375, 543}}";
imagePath = "../../../../Screen Shot 2019-04-06 at 19.33.46.png";
locked = "1";
transform = "{1.10232, 0, 0, 1.10232, -1260.36, 720.48}";
};
guideLines = (
{
position = "{114, 1128}";
},
{
angle = 90;
position = "{158, 1049}";
},
{
angle = 90;
position = "{11, 1101}";
},
{
position = "{97, 958}";
}
);
layerId = "8BDB995E-2F86-4134-8150-9944A684F6E9";
paths = (
{
closed = 1;
nodes = (
"300 447 LINE",
"300 462 LINE",
"273 453 OFFCURVE",
"268 456 OFFCURVE",
"268 485 CURVE SMOOTH",
"268 646 LINE SMOOTH",
"268 707 OFFCURVE",
"213 744 OFFCURVE",
"166 744 CURVE SMOOTH",
"86 744 OFFCURVE",
"69 640 OFFCURVE",
"70 609 CURVE",
"95 609 LINE",
"95 651 OFFCURVE",
"107 732 OFFCURVE",
"161 732 CURVE SMOOTH",
"195 732 OFFCURVE",
"218 698 OFFCURVE",
"218 646 CURVE SMOOTH",
"218 485 LINE SMOOTH",
"218 455 OFFCURVE",
"214 453 OFFCURVE",
"188 462 CURVE",
"188 447 LINE"
);
},
{
closed = 1;
nodes = (
"125 447 LINE",
"125 462 LINE",
"99 453 OFFCURVE",
"95 455 OFFCURVE",
"95 485 CURVE SMOOTH",
"95 683 LINE",
"86 683 LINE",
"85 732 LINE",
"67 732 LINE",
"56 718 OFFCURVE",
"49 705 OFFCURVE",
"38 705 CURVE SMOOTH",
"33 705 OFFCURVE",
"28 708 OFFCURVE",
"28 715 CURVE",
"13 715 LINE",
"13 696 LINE",
"24 693 OFFCURVE",
"36 694 OFFCURVE",
"45 695 CURVE",
"45 485 LINE SMOOTH",
"45 456 OFFCURVE",
"39 453 OFFCURVE",
"13 462 CURVE",
"13 447 LINE"
);
}
);
width = 307;
}
);
leftKerningGroup = m;
rightKerningGroup = n;
unicode = 207F;
},
{
glyphname = smod;
lastChange = "2020-03-12 03:08:05 +0000";
layers = (
{
anchors = (
{
name = bottom;
position = "{130, 449}";
},
{
name = top;
position = "{130, 730}";
}
);
guideLines = (
{
position = "{152, 1128}";
},
{
position = "{127, 949}";
}
);
layerId = "8BDB995E-2F86-4134-8150-9944A684F6E9";
paths = (
{
closed = 1;
nodes = (
"189 441 OFFCURVE",
"225 490 OFFCURVE",
"225 529 CURVE SMOOTH",
"225 624 OFFCURVE",
"89 618 OFFCURVE",
"89 678 CURVE SMOOTH",
"89 713 OFFCURVE",
"103 729 OFFCURVE",
"133 729 CURVE SMOOTH",
"164 729 OFFCURVE",
"187 699 OFFCURVE",
"186 661 CURVE",
"205 661 LINE",
"205 744 LINE",
"188 744 LINE",
"185 723 LINE",
"173 734 OFFCURVE",
"149 744 OFFCURVE",
"127 744 CURVE SMOOTH",
"75 744 OFFCURVE",
"40 712 OFFCURVE",
"40 665 CURVE SMOOTH",
"40 587 OFFCURVE",
"175 599 OFFCURVE",
"175 525 CURVE SMOOTH",
"175 483 OFFCURVE",
"156 457 OFFCURVE",
"124 457 CURVE SMOOTH",
"82 457 OFFCURVE",
"61 491 OFFCURVE",
"61 559 CURVE",
"41 559 LINE",
"41 447 LINE",
"58 447 LINE",
"62 471 LINE",
"79 452 OFFCURVE",
"104 441 OFFCURVE",
"135 441 CURVE SMOOTH"
);
}
);
width = 255;
}
);
leftKerningGroup = s;
leftMetricsKey = "=n+10";
rightKerningGroup = s;
rightMetricsKey = "=n+10";
unicode = 02E2;
},
{
glyphname = wmod;
lastChange = "2020-03-12 03:08:05 +0000";
layers = (
{
anchors = (
{
name = bottom;
position = "{185, 449}";
},
{
name = top;
position = "{185, 730}";
}
);
guideLines = (
{
angle = 90;
position = "{141, 1118}";
},
{
angle = 270;
position = "{171, 1118}";
}
);
layerId = "8BDB995E-2F86-4134-8150-9944A684F6E9";
paths = (
{
closed = 1;
nodes = (
"131 447 LINE",
"56 707 LINE",
"51 717 OFFCURVE",
"56 725 OFFCURVE",
"85 718 CURVE",
"85 732 LINE",
"-30 732 LINE",
"-30 717 LINE",
"-11 722 OFFCURVE",
"5 728 OFFCURVE",
"13 689 CURVE",
"87 447 LINE"
);
},
{
closed = 1;
nodes = (
"129 447 LINE",
"198 681 LINE",
"178 681 LINE",
"109 447 LINE"
);
},
{
closed = 1;
nodes = (
"273 447 LINE",
"198 707 LINE",
"193 717 OFFCURVE",
"219 725 OFFCURVE",
"244 717 CURVE",
"244 732 LINE",
"125 732 LINE",
"125 718 LINE",
"145 722 OFFCURVE",
"147 726 OFFCURVE",
"155 689 CURVE",
"230 447 LINE"
);
},
{
closed = 1;
nodes = (
"271 447 LINE",
"344 694 LINE SMOOTH",
"347 707 OFFCURVE",
"365 730 OFFCURVE",
"394 717 CURVE",
"394 732 LINE",
"284 732 LINE",
"284 717 LINE",
"314 729 OFFCURVE",
"330 718 OFFCURVE",
"324 696 CURVE SMOOTH",
"251 447 LINE"
);
}
);
width = 344;
}
);
leftKerningGroup = w;
leftMetricsKey = "=v";
rightKerningGroup = w;
rightMetricsKey = "=v";
unicode = 02B7;
},
{
glyphname = xmod;
lastChange = "2020-03-12 03:08:05 +0000";
layers = (
{
guideLines = (
{
angle = 180;
position = "{16, 1121}";
}
);
layerId = "8BDB995E-2F86-4134-8150-9944A684F6E9";
paths = (
{
closed = 1;
nodes = (
"246 447 LINE",
"246 462 LINE",
"218 451 OFFCURVE",
"210 468 OFFCURVE",
"175 524 CURVE SMOOTH",
"140 581 OFFCURVE",
"95 648 OFFCURVE",
"61 707 CURVE",
"58 717 OFFCURVE",
"63 725 OFFCURVE",
"92 718 CURVE",
"92 732 LINE",
"-30 732 LINE",
"-30 717 LINE",
"-11 724 OFFCURVE",
"-1 720 OFFCURVE",
"21 689 CURVE",
"155 474 LINE SMOOTH",
"162 462 OFFCURVE",
"142 453 OFFCURVE",
"117 462 CURVE",
"117 447 LINE"
);
},
{
closed = 1;
nodes = (
"73 447 LINE",
"73 462 LINE",
"44 450 OFFCURVE",
"30 464 OFFCURVE",
"43 483 CURVE SMOOTH",
"120 598 LINE",
"99 598 LINE",
"23 485 LINE SMOOTH",
"13 472 OFFCURVE",
"1 449 OFFCURVE",
"-29 462 CURVE",
"-29 447 LINE"
);
},
{
closed = 1;
nodes = (
"123 598 LINE",
"188 694 LINE SMOOTH",
"198 707 OFFCURVE",
"207 730 OFFCURVE",
"237 717 CURVE",
"237 732 LINE",
"135 732 LINE",
"135 717 LINE",
"164 729 OFFCURVE",
"181 715 OFFCURVE",
"168 696 CURVE SMOOTH",
"102 598 LINE"
);
}
);
width = 206;
}
);
leftKerningGroup = x;
leftMetricsKey = "=v";
rightKerningGroup = x;
rightMetricsKey = "=v+10";
unicode = 02E3;
},
{
glyphname = ymod;
lastChange = "2020-03-12 03:08:05 +0000";
layers = (
{
anchors = (
{
name = bottom;
position = "{156, 449}";
},
{
name = top;
position = "{107, 730}";
}
);
guideLines = (
{
position = "{-4, 858}";
},
{
angle = 73.7775;
position = "{94, 1026}";
},
{
angle = 270;
position = "{-18, 1118}";
}
);
layerId = "8BDB995E-2F86-4134-8150-9944A684F6E9";
paths = (
{
closed = 1;
nodes = (
"60 295 OFFCURVE",
"76 316 OFFCURVE",
"93 367 CURVE SMOOTH",
"202 694 LINE SMOOTH",
"206 708 OFFCURVE",
"223 730 OFFCURVE",
"252 717 CURVE",
"252 732 LINE",
"151 732 LINE",
"151 717 LINE",
"179 728 OFFCURVE",
"190 719 OFFCURVE",
"182 696 CURVE SMOOTH",
"123 514 LINE",
"98 582 OFFCURVE",
"65 681 OFFCURVE",
"55 707 CURVE SMOOTH",
"50 718 OFFCURVE",
"67 725 OFFCURVE",
"92 718 CURVE",
"92 732 LINE",
"-30 732 LINE",
"-30 717 LINE",
"-11 725 OFFCURVE",
"2 717 OFFCURVE",
"12 689 CURVE SMOOTH",
"40 614 OFFCURVE",
"93 482 OFFCURVE",
"102 450 CURVE",
"75 370 LINE SMOOTH",
"69 349 OFFCURVE",
"57 334 OFFCURVE",
"45 333 CURVE SMOOTH",
"30 331 OFFCURVE",
"-11 356 OFFCURVE",
"-11 316 CURVE SMOOTH",
"-11 296 OFFCURVE",
"9 285 OFFCURVE",
"35 290 CURVE SMOOTH"
);
}
);
width = 202;
}
);
leftKerningGroup = y;
leftMetricsKey = "=v";
rightKerningGroup = y;
rightMetricsKey = "=v";
unicode = 02B8;
},
{
glyphname = "Be-cy";
lastChange = "2020-03-13 10:38:44 +0000";
layers = (
{
layerId = "8BDB995E-2F86-4134-8150-9944A684F6E9";
paths = (
{
closed = 1;
nodes = (
"299 0 LINE SMOOTH",
"428 0 OFFCURVE",
"572 72 OFFCURVE",
"572 242 CURVE SMOOTH",
"572 355 OFFCURVE",
"465 442 OFFCURVE",
"309 442 CURVE SMOOTH",
"262 442 OFFCURVE",
"226 442 OFFCURVE",
"189 446 CURVE",
"189 538 OFFCURVE",
"189 638 OFFCURVE",
"190 730 CURVE",
"325 730 LINE",
"328 730 LINE",
"328 740 LINE",
"40 740 LINE",
"40 715 LINE",
"89 731 OFFCURVE",
"114 716 OFFCURVE",
"115 680 CURVE SMOOTH",
"118 582 OFFCURVE",
"120 483 OFFCURVE",
"120 385 CURVE SMOOTH",
"120 277 OFFCURVE",
"118 168 OFFCURVE",
"115 60 CURVE SMOOTH",
"114 24 OFFCURVE",
"89 9 OFFCURVE",
"40 25 CURVE",
"40 0 LINE"
);
},
{
closed = 1;
nodes = (
"233 10 OFFCURVE",
"190 17 OFFCURVE",
"190 114 CURVE SMOOTH",
"190 215 OFFCURVE",
"189 316 OFFCURVE",
"189 417 CURVE",
"226 422 OFFCURVE",
"262 422 OFFCURVE",
"308 421 CURVE SMOOTH",
"417 418 OFFCURVE",
"491 372 OFFCURVE",
"491 228 CURVE SMOOTH",
"491 110 OFFCURVE",
"421 10 OFFCURVE",
"273 10 CURVE SMOOTH"
);
},
{
closed = 1;
nodes = (
"513 570 LINE",
"496 612 OFFCURVE",
"498 677 OFFCURVE",
"502 711 CURVE SMOOTH",
"505 740 LINE",
"292 740 LINE",
"292 730 LINE",
"302 730 LINE SMOOTH",
"514 730 OFFCURVE",
"462 642 OFFCURVE",
"497 570 CURVE"
);
}
);
width = 607;
}
);
leftKerningGroup = H;
leftMetricsKey = "=B";
rightKerningGroup = B;
rightMetricsKey = "=B";
unicode = 0411;
},
{
glyphname = "Ge-cy";
lastChange = "2020-03-13 10:46:46 +0000";
layers = (
{
layerId = "8BDB995E-2F86-4134-8150-9944A684F6E9";
paths = (
{
closed = 1;
nodes = (
"190 24 LINE",
"190 615 LINE",
"192 659 OFFCURVE",
"192 730 OFFCURVE",
"308 730 CURVE SMOOTH",
"526 730 OFFCURVE",
"465 606 OFFCURVE",
"521 514 CURVE",
"535 514 LINE",
"515 532 OFFCURVE",
"512 571 OFFCURVE",
"512 638 CURVE SMOOTH",
"512 740 LINE",
"40 740 LINE",
"40 715 LINE",
"89 731 OFFCURVE",
"115 716 OFFCURVE",
"115 680 CURVE SMOOTH",
"115 24 LINE"
);
},
{
closed = 1;
nodes = (
"265 0 LINE",
"265 25 LINE",
"216 9 OFFCURVE",
"190 24 OFFCURVE",
"190 60 CURVE",
"153 50 LINE",
"115 60 LINE",
"115 24 OFFCURVE",
"89 9 OFFCURVE",
"40 25 CURVE",
"40 0 LINE"
);
}
);
width = 475;
}
);
leftKerningGroup = H;
leftMetricsKey = "=H";
rightKerningGroup = "Ge-cy";
rightMetricsKey = "=H-100";
unicode = 0413;
},
{
glyphname = "Gheupturn-cy";
lastChange = "2020-03-13 10:28:54 +0000";
layers = (
{
layerId = "8BDB995E-2F86-4134-8150-9944A684F6E9";
paths = (
{
closed = 1;
nodes = (
"190 24 LINE",
"190 615 LINE",
"192 656 OFFCURVE",
"191 728 OFFCURVE",
"284 728 CURVE SMOOTH",
"331 728 LINE SMOOTH",
"368 728 OFFCURVE",
"426 729 OFFCURVE",
"512 728 CURVE",
"512 805 LINE SMOOTH",
"512 872 OFFCURVE",
"515 911 OFFCURVE",
"535 929 CURVE",
"517 929 LINE",
"463 840 OFFCURVE",
"523 740 OFFCURVE",
"331 740 CURVE SMOOTH",
"40 740 LINE",
"40 715 LINE",
"89 731 OFFCURVE",
"115 716 OFFCURVE",
"115 680 CURVE SMOOTH",
"115 24 LINE"
);
},
{
closed = 1;
nodes = (
"265 0 LINE",
"265 25 LINE",
"216 9 OFFCURVE",
"190 24 OFFCURVE",
"190 60 CURVE",
"153 50 LINE",
"115 60 LINE",
"115 24 OFFCURVE",
"89 9 OFFCURVE",
"40 25 CURVE",
"40 0 LINE"
);
}
);
width = 425;
}
);
leftKerningGroup = H;
leftMetricsKey = "=H";
rightKerningGroup = "Ge-cy";
rightMetricsKey = "=H-150";
unicode = 0490;
},
{
glyphname = "De-cy";
lastChange = "2020-03-13 10:44:39 +0000";
layers = (
{
layerId = "8BDB995E-2F86-4134-8150-9944A684F6E9";
paths = (
{
closed = 1;
nodes = (
"-26 -202 LINE",
"21 -131 OFFCURVE",
"-7 -51 OFFCURVE",
"88 -9 CURVE SMOOTH",
"100 -3 OFFCURVE",
"295 -1 OFFCURVE",
"414 0 CURVE SMOOTH",
"519 -1 OFFCURVE",
"538 -3 OFFCURVE",
"550 -9 CURVE SMOOTH",
"642 -51 OFFCURVE",
"614 -131 OFFCURVE",
"661 -202 CURVE",
"675 -202 LINE",
"655 -184 OFFCURVE",
"652 -145 OFFCURVE",
"652 -78 CURVE SMOOTH",
"652 24 LINE",
"603 8 OFFCURVE",
"577 23 OFFCURVE",
"577 59 CURVE SMOOTH",
"577 679 LINE SMOOTH",
"577 715 OFFCURVE",
"603 730 OFFCURVE",
"652 714 CURVE",
"652 740 LINE",
"115 740 LINE",
"115 715 LINE",
"151 727 OFFCURVE",
"187 722 OFFCURVE",
"204 705 CURVE",
"201 559 OFFCURVE",
"143 160 OFFCURVE",
"68 48 CURVE",
"49 24 OFFCURVE",
"23 11 OFFCURVE",
"-17 24 CURVE",
"-17 -78 LINE SMOOTH",
"-17 -145 OFFCURVE",
"-20 -184 OFFCURVE",
"-40 -202 CURVE"
);
},
{
closed = 1;
nodes = (
"110 25 OFFCURVE",
"105 33 OFFCURVE",
"122 74 CURVE SMOOTH",
"127 87 LINE SMOOTH",
"186 217 OFFCURVE",
"239 567 OFFCURVE",
"242 708 CURVE",
"283 714 OFFCURVE",
"397 715 OFFCURVE",
"427 715 CURVE SMOOTH",
"478 715 OFFCURVE",
"502 715 OFFCURVE",
"502 679 CURVE SMOOTH",
"502 146 LINE SMOOTH",
"502 84 OFFCURVE",
"507 25 OFFCURVE",
"414 25 CURVE SMOOTH",
"224 25 LINE SMOOTH"
);
}
);
width = 715;
}
);
leftKerningGroup = "De-cy";
leftMetricsKey = "=H-80";
rightKerningGroup = "De-cy";
rightMetricsKey = "=H";
unicode = 0414;
},
{
glyphname = "Zhe-cy";
lastChange = "2020-03-13 10:42:54 +0000";
layers = (
{
anchors = (
{
name = bottomright;
position = "{1040, 0}";
},
{
name = top;
position = "{530, 740}";
}
);
layerId = "8BDB995E-2F86-4134-8150-9944A684F6E9";
paths = (
{
closed = 1;
nodes = (
"977 -6 OFFCURVE",
"1031 -6 OFFCURVE",
"1060 6 CURVE",
"1060 25 LINE",
"1022 15 OFFCURVE",
"980 10 OFFCURVE",
"955 33 CURVE SMOOTH",
"919 67 OFFCURVE",
"885 131 OFFCURVE",
"853 261 CURVE SMOOTH",
"829 360 OFFCURVE",
"747 425 OFFCURVE",
"672 425 CURVE",
"895 684 LINE",
"925 714 OFFCURVE",
"966 728 OFFCURVE",
"1005 715 CURVE",
"1005 740 LINE",
"804 740 LINE",
"804 715 LINE",
"854 733 OFFCURVE",
"876 706 OFFCURVE",
"854 680 CURVE SMOOTH",
"643 429 LINE",
"560 429 LINE",
"560 407 LINE",
"639 407 LINE SMOOTH",
"689 407 OFFCURVE",
"744 323 OFFCURVE",
"764 242 CURVE SMOOTH",
"799 100 OFFCURVE",
"839 24 OFFCURVE",
"949 0 CURVE SMOOTH"
);
},
{
closed = 1;
nodes = (
"221 24 OFFCURVE",
"261 100 OFFCURVE",
"296 242 CURVE SMOOTH",
"316 323 OFFCURVE",
"371 407 OFFCURVE",
"421 407 CURVE SMOOTH",
"500 407 LINE",
"500 429 LINE",
"417 429 LINE",
"206 680 LINE SMOOTH",
"184 706 OFFCURVE",
"206 733 OFFCURVE",
"256 715 CURVE",
"256 740 LINE",
"55 740 LINE",
"55 715 LINE",
"94 728 OFFCURVE",
"135 714 OFFCURVE",
"165 684 CURVE",
"388 425 LINE",
"313 425 OFFCURVE",
"231 360 OFFCURVE",
"207 261 CURVE SMOOTH",
"175 131 OFFCURVE",
"141 67 OFFCURVE",
"105 33 CURVE SMOOTH",
"80 10 OFFCURVE",
"38 15 OFFCURVE",
"0 25 CURVE",
"0 6 LINE",
"29 -6 OFFCURVE",
"83 -6 OFFCURVE",
"111 0 CURVE SMOOTH"
);
},
{
closed = 1;
nodes = (
"643 0 LINE",
"643 25 LINE",
"594 9 OFFCURVE",
"568 24 OFFCURVE",
"568 60 CURVE SMOOTH",
"568 680 LINE SMOOTH",
"568 716 OFFCURVE",
"594 731 OFFCURVE",
"643 715 CURVE",
"643 740 LINE",
"418 740 LINE",
"418 715 LINE",
"467 731 OFFCURVE",
"493 716 OFFCURVE",
"493 680 CURVE SMOOTH",
"493 60 LINE SMOOTH",
"493 24 OFFCURVE",
"467 9 OFFCURVE",
"418 25 CURVE",
"418 0 LINE"
);
}
);
width = 1060;
}
);
leftKerningGroup = "Zhe-cy";
rightKerningGroup = "Zhe-cy";
unicode = 0416;
},
{
glyphname = "Ze-cy";
lastChange = "2020-03-13 10:40:11 +0000";
layers = (
{
anchors = (
{
name = bottom;
position = "{272, 0}";
},
{
name = top;
position = "{272, 740}";
}
);
layerId = "8BDB995E-2F86-4134-8150-9944A684F6E9";
paths = (
{
closed = 1;
nodes = (
"400 -10 OFFCURVE",
"494 105 OFFCURVE",
"494 213 CURVE SMOOTH",
"494 323 OFFCURVE",
"402 396 OFFCURVE",
"321 398 CURVE SMOOTH",
"316 398 OFFCURVE",
"316 403 OFFCURVE",
"321 404 CURVE SMOOTH",
"402 415 OFFCURVE",
"458 495 OFFCURVE",
"458 572 CURVE SMOOTH",
"458 674 OFFCURVE",
"364 737 OFFCURVE",
"260 737 CURVE SMOOTH",
"135 737 OFFCURVE",
"56 674 OFFCURVE",
"56 612 CURVE SMOOTH",
"56 567 OFFCURVE",
"79 534 OFFCURVE",
"111 534 CURVE SMOOTH",
"141 534 OFFCURVE",
"164 557 OFFCURVE",
"163 579 CURVE SMOOTH",
"161 620 OFFCURVE",
"111 593 OFFCURVE",
"111 640 CURVE SMOOTH",
"111 682 OFFCURVE",
"147 719 OFFCURVE",
"250 719 CURVE SMOOTH",
"331 719 OFFCURVE",
"377 635 OFFCURVE",
"377 572 CURVE SMOOTH",
"377 479 OFFCURVE",
"370 406 OFFCURVE",
"191 404 CURVE",
"191 382 LINE",
"367 374 OFFCURVE",
"413 340 OFFCURVE",
"413 208 CURVE SMOOTH",
"413 96 OFFCURVE",
"354 8 OFFCURVE",
"233 8 CURVE SMOOTH",
"152 8 OFFCURVE",
"85 78 OFFCURVE",
"85 120 CURVE SMOOTH",
"85 167 OFFCURVE",
"135 140 OFFCURVE",
"137 181 CURVE SMOOTH",
"138 203 OFFCURVE",
"115 226 OFFCURVE",
"85 226 CURVE SMOOTH",
"53 226 OFFCURVE",
"30 193 OFFCURVE",
"30 148 CURVE SMOOTH",
"30 51 OFFCURVE",
"133 -10 OFFCURVE",
"233 -10 CURVE SMOOTH"
);
}
);
width = 529;
}
);
leftKerningGroup = "Ze-cy";
leftMetricsKey = "=H-10";
rightKerningGroup = "Ze-cy";
rightMetricsKey = "=B";
unicode = 0417;
},
{
glyphname = "Ii-cy";
lastChange = "2020-03-13 10:29:32 +0000";
layers = (
{
anchors = (
{
name = bottomright;
position = "{726, 0}";
},
{
name = top;
position = "{376, 740}";
}
);
layerId = "8BDB995E-2F86-4134-8150-9944A684F6E9";
paths = (
{
closed = 1;
nodes = (
"167 50 LINE",
"615 690 LINE",
"587 690 LINE",
"139 50 LINE"
);
},
{
closed = 1;
nodes = (
"265 0 LINE",
"265 25 LINE",
"216 9 OFFCURVE",
"190 24 OFFCURVE",
"190 60 CURVE",
"153 50 LINE",
"115 60 LINE",
"115 24 OFFCURVE",
"89 9 OFFCURVE",
"40 25 CURVE",
"40 0 LINE"
);
},
{
closed = 1;
nodes = (
"190 0 LINE",
"190 736 LINE",
"115 736 LINE",
"115 0 LINE"
);
},
{
closed = 1;
nodes = (
"711 0 LINE",
"711 25 LINE",
"662 9 OFFCURVE",
"636 24 OFFCURVE",
"636 60 CURVE",
"599 50 LINE",
"561 60 LINE",
"561 24 OFFCURVE",
"535 9 OFFCURVE",
"486 25 CURVE",
"486 0 LINE"
);
},
{
closed = 1;
nodes = (
"153 690 LINE",
"190 680 LINE",
"190 716 OFFCURVE",
"216 731 OFFCURVE",
"265 715 CURVE",
"265 740 LINE",
"40 740 LINE",
"40 715 LINE",
"89 731 OFFCURVE",
"115 716 OFFCURVE",
"115 680 CURVE"
);
},
{
closed = 1;
nodes = (
"636 0 LINE",
"636 740 LINE",
"561 740 LINE",
"561 0 LINE"
);
},
{
closed = 1;
nodes = (
"599 690 LINE",
"636 680 LINE",
"636 716 OFFCURVE",
"662 731 OFFCURVE",
"711 715 CURVE",
"711 740 LINE",
"486 740 LINE",
"486 715 LINE",
"535 731 OFFCURVE",
"561 716 OFFCURVE",
"561 680 CURVE"
);
}
);
width = 751;
}
);
leftKerningGroup = H;
leftMetricsKey = "=H";
rightKerningGroup = H;
rightMetricsKey = "=H";
unicode = 0418;
},
{
glyphname = "Iishort-cy";
lastChange = "2020-03-13 10:29:32 +0000";
layers = (
{
layerId = "8BDB995E-2F86-4134-8150-9944A684F6E9";
paths = (
{
closed = 1;
nodes = (
"167 50 LINE",
"615 690 LINE",
"587 690 LINE",
"139 50 LINE"
);
},
{
closed = 1;
nodes = (
"265 0 LINE",
"265 25 LINE",
"216 9 OFFCURVE",
"190 24 OFFCURVE",
"190 60 CURVE",
"153 50 LINE",
"115 60 LINE",
"115 24 OFFCURVE",
"89 9 OFFCURVE",
"40 25 CURVE",
"40 0 LINE"
);
},
{
closed = 1;
nodes = (
"190 0 LINE",
"190 736 LINE",
"115 736 LINE",
"115 0 LINE"
);
},
{
closed = 1;
nodes = (
"711 0 LINE",
"711 25 LINE",
"662 9 OFFCURVE",
"636 24 OFFCURVE",
"636 60 CURVE",
"599 50 LINE",
"561 60 LINE",
"561 24 OFFCURVE",
"535 9 OFFCURVE",
"486 25 CURVE",
"486 0 LINE"
);
},
{
closed = 1;
nodes = (
"153 690 LINE",
"190 680 LINE",
"190 716 OFFCURVE",
"216 731 OFFCURVE",
"265 715 CURVE",
"265 740 LINE",
"40 740 LINE",
"40 715 LINE",
"89 731 OFFCURVE",
"115 716 OFFCURVE",
"115 680 CURVE"
);
},
{
closed = 1;
nodes = (
"636 0 LINE",
"636 740 LINE",
"561 740 LINE",
"561 0 LINE"
);
},
{
closed = 1;
nodes = (
"415 799 OFFCURVE",
"507 813 OFFCURVE",
"507 882 CURVE SMOOTH",
"507 910 OFFCURVE",
"480 923 OFFCURVE",
"461 916 CURVE SMOOTH",
"442 907 OFFCURVE",
"448 887 OFFCURVE",
"448 873 CURVE SMOOTH",
"448 830 OFFCURVE",
"415 810 OFFCURVE",
"375 810 CURVE SMOOTH",
"335 810 OFFCURVE",
"302 830 OFFCURVE",
"302 873 CURVE SMOOTH",
"302 887 OFFCURVE",
"309 907 OFFCURVE",
"289 916 CURVE SMOOTH",
"270 923 OFFCURVE",
"244 910 OFFCURVE",
"244 882 CURVE SMOOTH",
"244 813 OFFCURVE",
"335 799 OFFCURVE",
"375 800 CURVE SMOOTH"
);
},
{
closed = 1;
nodes = (
"599 690 LINE",
"636 680 LINE",
"636 716 OFFCURVE",
"662 731 OFFCURVE",
"711 715 CURVE",
"711 740 LINE",
"486 740 LINE",
"486 715 LINE",
"535 731 OFFCURVE",
"561 716 OFFCURVE",
"561 680 CURVE"
);
}
);
width = 751;
}
);
leftKerningGroup = H;
leftMetricsKey = "=H";
rightKerningGroup = H;
rightMetricsKey = "=H";
unicode = 0419;
},
{
glyphname = "Ka-cy";
lastChange = "2020-03-13 10:30:15 +0000";
layers = (
{
anchors = (
{
name = bottomright;
position = "{617, 0}";
},
{
name = top;
position = "{321, 740}";
}
);
guideLines = (
{
position = "{-271, 409}";
},
{
position = "{72, 25}";
}
);
layerId = "8BDB995E-2F86-4134-8150-9944A684F6E9";
paths = (
{
closed = 1;
nodes = (
"599 -6 OFFCURVE",
"653 -6 OFFCURVE",
"682 6 CURVE",
"682 25 LINE",
"644 15 OFFCURVE",
"602 10 OFFCURVE",
"577 33 CURVE SMOOTH",
"541 67 OFFCURVE",
"507 131 OFFCURVE",
"475 261 CURVE SMOOTH",
"451 360 OFFCURVE",
"369 425 OFFCURVE",
"294 425 CURVE",
"517 684 LINE",
"547 714 OFFCURVE",
"588 728 OFFCURVE",
"627 715 CURVE",
"627 740 LINE",
"426 740 LINE",
"426 715 LINE",
"476 733 OFFCURVE",
"498 706 OFFCURVE",
"476 680 CURVE SMOOTH",
"265 429 LINE",
"182 429 LINE",
"182 407 LINE",
"261 407 LINE SMOOTH",
"311 407 OFFCURVE",
"366 323 OFFCURVE",
"386 242 CURVE SMOOTH",
"420 100 OFFCURVE",
"461 25 OFFCURVE",
"571 0 CURVE SMOOTH"
);
},
{
closed = 1;
nodes = (
"265 0 LINE",
"265 25 LINE",
"216 9 OFFCURVE",
"190 24 OFFCURVE",
"190 60 CURVE SMOOTH",
"190 680 LINE SMOOTH",
"190 716 OFFCURVE",
"216 731 OFFCURVE",
"265 715 CURVE",
"265 740 LINE",
"40 740 LINE",
"40 715 LINE",
"89 731 OFFCURVE",
"115 716 OFFCURVE",
"115 680 CURVE SMOOTH",
"115 60 LINE SMOOTH",
"115 24 OFFCURVE",
"89 9 OFFCURVE",
"40 25 CURVE",
"40 0 LINE"
);
}
);
width = 642;
}
);
leftKerningGroup = H;
leftMetricsKey = "=H";
rightKerningGroup = K;
rightMetricsKey = "=K";
unicode = 041A;
},
{
glyphname = "El-cy";
lastChange = "2020-03-13 10:43:34 +0000";
layers = (
{
guideLines = (
{
position = "{43, -10}";
}
);
layerId = "8BDB995E-2F86-4134-8150-9944A684F6E9";
paths = (
{
closed = 1;
nodes = (
"114 10 OFFCURVE",
"140 49 OFFCURVE",
"168 123 CURVE SMOOTH",
"236 303 OFFCURVE",
"257 613 OFFCURVE",
"259 708 CURVE",
"332 719 OFFCURVE",
"399 714 OFFCURVE",
"424 714 CURVE SMOOTH",
"517 714 OFFCURVE",
"512 655 OFFCURVE",
"512 593 CURVE SMOOTH",
"512 60 LINE SMOOTH",
"512 24 OFFCURVE",
"486 9 OFFCURVE",
"437 25 CURVE",
"437 0 LINE",
"662 0 LINE",
"662 25 LINE",
"613 9 OFFCURVE",
"587 24 OFFCURVE",
"587 60 CURVE SMOOTH",
"587 680 LINE SMOOTH",
"587 716 OFFCURVE",
"613 731 OFFCURVE",
"662 715 CURVE",
"662 740 LINE",
"132 740 LINE",
"132 715 LINE",
"168 727 OFFCURVE",
"204 722 OFFCURVE",
"221 705 CURVE",
"219 598 OFFCURVE",
"215 253 OFFCURVE",
"120 96 CURVE SMOOTH",
"100 63 OFFCURVE",
"78 53 OFFCURVE",
"65 53 CURVE SMOOTH",
"26 53 OFFCURVE",
"32 80 OFFCURVE",
"-8 80 CURVE SMOOTH",
"-29 80 OFFCURVE",
"-45 55 OFFCURVE",
"-38 26 CURVE SMOOTH",
"-30 -5 OFFCURVE",
"8 -19 OFFCURVE",
"52 -7 CURVE SMOOTH"
);
}
);
width = 702;
}
);
leftMetricsKey = "=H-80";
rightMetricsKey = "=H";
unicode = 041B;
},
{
glyphname = "Pe-cy";
lastChange = "2020-03-13 10:29:32 +0000";
layers = (
{
guideLines = (
{
angle = 90;
position = "{40, -33}";
},
{
angle = 90;
position = "{710, -59}";
}
);
layerId = "8BDB995E-2F86-4134-8150-9944A684F6E9";
paths = (
{
closed = 1;
nodes = (
"265 0 LINE",
"265 25 LINE",
"216 9 OFFCURVE",
"190 24 OFFCURVE",
"190 60 CURVE SMOOTH",
"190 593 LINE SMOOTH",
"190 655 OFFCURVE",
"185 714 OFFCURVE",
"278 714 CURVE SMOOTH",
"454 714 LINE SMOOTH",
"547 714 OFFCURVE",
"542 655 OFFCURVE",
"542 593 CURVE SMOOTH",
"542 60 LINE SMOOTH",
"542 24 OFFCURVE",
"516 9 OFFCURVE",
"467 25 CURVE",
"467 0 LINE",
"692 0 LINE",
"692 25 LINE",
"643 9 OFFCURVE",
"617 24 OFFCURVE",
"617 60 CURVE SMOOTH",
"617 680 LINE SMOOTH",
"617 716 OFFCURVE",
"643 731 OFFCURVE",
"692 715 CURVE",
"692 740 LINE",
"40 740 LINE",
"40 715 LINE",
"89 731 OFFCURVE",
"115 716 OFFCURVE",
"115 680 CURVE SMOOTH",
"115 60 LINE SMOOTH",
"115 24 OFFCURVE",
"89 9 OFFCURVE",
"40 25 CURVE",
"40 0 LINE"
);
}
);
width = 732;
}
);
leftKerningGroup = H;
leftMetricsKey = "=H";
rightKerningGroup = H;
rightMetricsKey = "=H";
unicode = 041F;
},
{
glyphname = "U-cy";
lastChange = "2020-03-13 10:47:33 +0000";
layers = (
{
anchors = (
{
name = top;
position = "{355, 740}";
}
);
guideLines = (
{
position = "{342, -10}";
}
);
layerId = "8BDB995E-2F86-4134-8150-9944A684F6E9";
paths = (
{
closed = 1;
nodes = (
"306 -10 OFFCURVE",
"327 28 OFFCURVE",
"375 153 CURVE SMOOTH",
"577 671 LINE SMOOTH",
"580 680 OFFCURVE",
"584 690 OFFCURVE",
"589 700 CURVE SMOOTH",
"604 730 OFFCURVE",
"639 728 OFFCURVE",
"678 715 CURVE",
"678 740 LINE",
"469 740 LINE",
"469 715 LINE",
"518 732 OFFCURVE",
"562 728 OFFCURVE",
"549 680 CURVE SMOOTH",
"542 655 LINE",
"371 207 LINE",
"174 680 LINE SMOOTH",
"159 716 OFFCURVE",
"192 731 OFFCURVE",
"241 715 CURVE",
"241 740 LINE",
"0 740 LINE",
"0 715 LINE",
"49 731 OFFCURVE",
"76 716 OFFCURVE",
"92 680 CURVE SMOOTH",
"323 151 LINE SMOOTH",
"336 121 OFFCURVE",
"321 89 OFFCURVE",
"314 73 CURVE SMOOTH",
"300 43 OFFCURVE",
"271 20 OFFCURVE",
"244 20 CURVE SMOOTH",
"199 20 OFFCURVE",
"197 83 OFFCURVE",
"158 98 CURVE SMOOTH",
"130 109 OFFCURVE",
"99 89 OFFCURVE",
"99 62 CURVE SMOOTH",
"99 20 OFFCURVE",
"142 -10 OFFCURVE",
"201 -10 CURVE SMOOTH"
);
}
);
width = 598;
}
);
leftKerningGroup = "U-cy";
rightKerningGroup = "U-cy";
rightMetricsKey = "=H-120";
unicode = 0423;
},
{
glyphname = "Ef-cy";
lastChange = "2020-03-13 10:47:41 +0000";
layers = (
{
guideLines = (
{
position = "{750, 370}";
},
{
angle = 90;
position = "{41, 370}";
},
{
angle = 90;
position = "{795, 370}";
}
);
layerId = "8BDB995E-2F86-4134-8150-9944A684F6E9";
paths = (
{
closed = 1;
nodes = (
"738 114 OFFCURVE",
"795 229 OFFCURVE",
"795 371 CURVE SMOOTH",
"795 498 OFFCURVE",
"738 627 OFFCURVE",
"563 627 CURVE SMOOTH",
"506 627 OFFCURVE",
"461 613 OFFCURVE",
"427 590 CURVE",
"427 563 LINE",
"454 592 OFFCURVE",
"491 610 OFFCURVE",
"541 610 CURVE SMOOTH",
"668 610 OFFCURVE",
"715 490 OFFCURVE",
"715 371 CURVE SMOOTH",
"715 239 OFFCURVE",
"667 131 OFFCURVE",
"541 131 CURVE SMOOTH",
"491 131 OFFCURVE",
"454 147 OFFCURVE",
"427 174 CURVE",
"427 148 LINE",
"461 126 OFFCURVE",
"506 114 OFFCURVE",
"563 114 CURVE SMOOTH"
);
},
{
closed = 1;
nodes = (
"329 114 OFFCURVE",
"374 126 OFFCURVE",
"408 148 CURVE",
"408 174 LINE",
"381 147 OFFCURVE",
"344 131 OFFCURVE",
"294 131 CURVE SMOOTH",
"168 131 OFFCURVE",
"120 239 OFFCURVE",
"120 371 CURVE SMOOTH",
"120 490 OFFCURVE",
"167 610 OFFCURVE",
"294 610 CURVE SMOOTH",
"344 610 OFFCURVE",
"381 592 OFFCURVE",
"408 563 CURVE",
"408 590 LINE",
"374 613 OFFCURVE",
"329 627 OFFCURVE",
"272 627 CURVE SMOOTH",
"97 627 OFFCURVE",
"40 498 OFFCURVE",
"40 371 CURVE SMOOTH",
"40 229 OFFCURVE",
"97 114 OFFCURVE",
"272 114 CURVE SMOOTH"
);
},
{
closed = 1;
nodes = (
"531 -11 LINE",
"531 14 LINE",
"482 -2 OFFCURVE",
"456 13 OFFCURVE",
"456 49 CURVE SMOOTH",
"456 690 LINE SMOOTH",
"456 726 OFFCURVE",
"482 741 OFFCURVE",
"531 725 CURVE",
"531 750 LINE",
"306 750 LINE",
"306 725 LINE",
"355 741 OFFCURVE",
"381 726 OFFCURVE",
"381 690 CURVE SMOOTH",
"381 49 LINE SMOOTH",
"381 13 OFFCURVE",
"355 -2 OFFCURVE",
"306 14 CURVE",
"306 -11 LINE"
);
}
);
width = 835;
}
);
leftKerningGroup = "Ef-cy";
leftMetricsKey = "=o";
rightKerningGroup = "Ef-cy";
rightMetricsKey = "=o";
unicode = 0424;
},
{
glyphname = "Che-cy";
lastChange = "2020-03-13 10:45:10 +0000";
layers = (
{
anchors = (
{
name = bottomright;
position = "{679, 0}";
},
{
name = top;
position = "{330, 740}";
}
);
layerId = "8BDB995E-2F86-4134-8150-9944A684F6E9";
paths = (
{
closed = 1;
nodes = (
"476 277 OFFCURVE",
"519 360 OFFCURVE",
"545 387 CURVE",
"520 387 LINE",
"494 345 OFFCURVE",
"435 302 OFFCURVE",
"311 302 CURVE SMOOTH",
"248 302 OFFCURVE",
"150 346 OFFCURVE",
"150 477 CURVE SMOOTH",
"150 680 LINE SMOOTH",
"150 716 OFFCURVE",
"176 731 OFFCURVE",
"225 715 CURVE",
"225 740 LINE",
"0 740 LINE",
"0 715 LINE",
"49 731 OFFCURVE",
"75 716 OFFCURVE",
"75 680 CURVE SMOOTH",
"75 489 LINE SMOOTH",
"75 341 OFFCURVE",
"177 277 OFFCURVE",
"302 277 CURVE SMOOTH"
);
},
{
closed = 1;
nodes = (
"664 0 LINE",
"664 25 LINE",
"615 9 OFFCURVE",
"589 24 OFFCURVE",
"589 60 CURVE SMOOTH",
"589 680 LINE SMOOTH",
"589 716 OFFCURVE",
"615 731 OFFCURVE",
"664 715 CURVE",
"664 740 LINE",
"439 740 LINE",
"439 715 LINE",
"488 731 OFFCURVE",
"514 716 OFFCURVE",
"514 680 CURVE SMOOTH",
"514 60 LINE SMOOTH",
"514 24 OFFCURVE",
"488 9 OFFCURVE",
"439 25 CURVE",
"439 0 LINE"
);
}
);
width = 704;
}
);
leftKerningGroup = "Che-cy";
leftMetricsKey = "=H-40";
rightKerningGroup = H;
rightMetricsKey = "=H";
unicode = 0427;
},
{
glyphname = "Tse-cy";
lastChange = "2020-03-13 10:29:32 +0000";
layers = (
{
layerId = "8BDB995E-2F86-4134-8150-9944A684F6E9";
paths = (
{
closed = 1;
nodes = (
"734 -201 LINE",
"714 -183 OFFCURVE",
"711 -144 OFFCURVE",
"711 -77 CURVE SMOOTH",
"711 25 LINE",
"662 9 OFFCURVE",
"636 24 OFFCURVE",
"636 60 CURVE SMOOTH",
"636 680 LINE SMOOTH",
"636 716 OFFCURVE",
"662 731 OFFCURVE",
"711 715 CURVE",
"711 740 LINE",
"486 740 LINE",
"486 715 LINE",
"535 731 OFFCURVE",
"561 716 OFFCURVE",
"561 680 CURVE SMOOTH",
"561 147 LINE SMOOTH",
"561 85 OFFCURVE",
"566 26 OFFCURVE",
"473 26 CURVE SMOOTH",
"278 26 LINE SMOOTH",
"185 26 OFFCURVE",
"190 85 OFFCURVE",
"190 147 CURVE SMOOTH",
"190 680 LINE SMOOTH",
"190 716 OFFCURVE",
"216 731 OFFCURVE",
"265 715 CURVE",
"265 740 LINE",
"40 740 LINE",
"40 715 LINE",
"89 731 OFFCURVE",
"115 716 OFFCURVE",
"115 680 CURVE SMOOTH",
"115 60 LINE SMOOTH",
"115 24 OFFCURVE",
"89 9 OFFCURVE",
"40 25 CURVE",
"40 0 LINE",
"547 0 OFFCURVE",
"578 5 OFFCURVE",
"609 -8 CURVE SMOOTH",
"702 -47 OFFCURVE",
"673 -130 OFFCURVE",
"720 -201 CURVE"
);
}
);
width = 774;
}
);
leftKerningGroup = H;
leftMetricsKey = "=H";
rightKerningGroup = H;
rightMetricsKey = "=H";
unicode = 0426;
},
{
glyphname = "Sha-cy";
lastChange = "2020-03-13 10:29:32 +0000";
layers = (
{
guideLines = (
{
angle = 90;
position = "{517, 288}";
}
);
layerId = "8BDB995E-2F86-4134-8150-9944A684F6E9";
paths = (
{
closed = 1;
nodes = (
"995 0 LINE",
"995 25 LINE",
"946 9 OFFCURVE",
"920 24 OFFCURVE",
"920 60 CURVE SMOOTH",
"920 680 LINE SMOOTH",
"920 716 OFFCURVE",
"946 731 OFFCURVE",
"995 715 CURVE",
"995 740 LINE",
"770 740 LINE",
"770 715 LINE",
"819 731 OFFCURVE",
"845 716 OFFCURVE",
"845 680 CURVE SMOOTH",
"845 147 LINE SMOOTH",
"845 85 OFFCURVE",
"850 26 OFFCURVE",
"757 26 CURVE SMOOTH",
"612 26 LINE",
"612 0 LINE"
);
},
{
closed = 1;
nodes = (
"415 0 LINE",
"415 26 LINE",
"278 26 LINE SMOOTH",
"185 26 OFFCURVE",
"190 85 OFFCURVE",
"190 147 CURVE SMOOTH",
"190 680 LINE SMOOTH",
"190 716 OFFCURVE",
"216 731 OFFCURVE",
"265 715 CURVE",
"265 740 LINE",
"40 740 LINE",
"40 715 LINE",
"89 731 OFFCURVE",
"115 716 OFFCURVE",
"115 680 CURVE SMOOTH",
"115 60 LINE SMOOTH",
"115 24 OFFCURVE",
"89 9 OFFCURVE",
"40 25 CURVE",
"40 0 LINE"
);
},
{
closed = 1;
nodes = (
"631 0 LINE",
"631 26 LINE",
"582 26 OFFCURVE",
"556 24 OFFCURVE",
"556 60 CURVE SMOOTH",
"556 680 LINE SMOOTH",
"556 716 OFFCURVE",
"582 731 OFFCURVE",
"631 715 CURVE",
"631 740 LINE",
"406 740 LINE",
"406 715 LINE",
"455 731 OFFCURVE",
"481 716 OFFCURVE",
"481 680 CURVE SMOOTH",
"481 60 LINE SMOOTH",
"481 24 OFFCURVE",
"455 26 OFFCURVE",
"406 26 CURVE",
"406 0 LINE"
);
}
);
width = 1035;
}
);
leftKerningGroup = H;
leftMetricsKey = "=H";
rightKerningGroup = H;
rightMetricsKey = "=H";
unicode = 0428;
},
{
glyphname = "Shcha-cy";
lastChange = "2020-03-13 10:29:32 +0000";
layers = (
{
layerId = "8BDB995E-2F86-4134-8150-9944A684F6E9";
paths = (
{
closed = 1;
nodes = (
"1018 -202 LINE",
"998 -184 OFFCURVE",
"995 -145 OFFCURVE",
"995 -78 CURVE SMOOTH",
"995 24 LINE",
"946 8 OFFCURVE",
"920 23 OFFCURVE",
"920 59 CURVE SMOOTH",
"920 679 LINE SMOOTH",
"920 715 OFFCURVE",
"946 730 OFFCURVE",
"995 714 CURVE",
"995 739 LINE",
"770 739 LINE",
"770 714 LINE",
"819 730 OFFCURVE",
"845 715 OFFCURVE",
"845 679 CURVE SMOOTH",
"845 146 LINE SMOOTH",
"845 84 OFFCURVE",
"850 25 OFFCURVE",
"757 25 CURVE SMOOTH",
"620 25 LINE SMOOTH",
"578 25 OFFCURVE",
"556 27 OFFCURVE",
"556 60 CURVE SMOOTH",
"556 680 LINE SMOOTH",
"556 716 OFFCURVE",
"582 731 OFFCURVE",
"631 715 CURVE",
"631 740 LINE",
"406 740 LINE",
"406 715 LINE",
"455 731 OFFCURVE",
"481 716 OFFCURVE",
"481 680 CURVE SMOOTH",
"481 60 LINE SMOOTH",
"481 24 OFFCURVE",
"455 26 OFFCURVE",
"406 26 CURVE",
"406 0 LINE",
"816 0 OFFCURVE",
"872 0 OFFCURVE",
"893 -9 CURVE SMOOTH",
"986 -49 OFFCURVE",
"957 -131 OFFCURVE",
"1004 -202 CURVE"
);
},
{
closed = 1;
nodes = (
"415 0 LINE",
"415 26 LINE",
"278 26 LINE SMOOTH",
"185 26 OFFCURVE",
"190 85 OFFCURVE",
"190 147 CURVE SMOOTH",
"190 680 LINE SMOOTH",
"190 716 OFFCURVE",
"216 731 OFFCURVE",
"265 715 CURVE",
"265 740 LINE",
"40 740 LINE",
"40 715 LINE",
"89 731 OFFCURVE",
"115 716 OFFCURVE",
"115 680 CURVE SMOOTH",
"115 60 LINE SMOOTH",
"115 24 OFFCURVE",
"89 9 OFFCURVE",
"40 25 CURVE",
"40 0 LINE"
);
}
);
width = 1058;
}
);
leftKerningGroup = H;
leftMetricsKey = "=H";
rightKerningGroup = H;
rightMetricsKey = "=H";
unicode = 0429;
},
{
glyphname = "Dzhe-cy";
lastChange = "2020-03-13 10:29:32 +0000";
layers = (
{
guideLines = (
{
angle = 90;
position = "{375, 740}";
}
);
layerId = "8BDB995E-2F86-4134-8150-9944A684F6E9";
paths = (
{
closed = 1;
nodes = (
"711 0 LINE",
"711 25 LINE",
"662 9 OFFCURVE",
"636 24 OFFCURVE",
"636 60 CURVE SMOOTH",
"636 680 LINE SMOOTH",
"636 716 OFFCURVE",
"662 731 OFFCURVE",
"711 715 CURVE",
"711 740 LINE",
"486 740 LINE",
"486 715 LINE",
"535 731 OFFCURVE",
"561 716 OFFCURVE",
"561 680 CURVE SMOOTH",
"561 60 LINE SMOOTH",
"561 24 OFFCURVE",
"534 26 OFFCURVE",
"484 25 CURVE SMOOTH",
"265 25 LINE SMOOTH",
"216 26 OFFCURVE",
"190 24 OFFCURVE",
"190 60 CURVE SMOOTH",
"190 680 LINE SMOOTH",
"190 716 OFFCURVE",
"216 731 OFFCURVE",
"265 715 CURVE",
"265 740 LINE",
"40 740 LINE",
"40 715 LINE",
"89 731 OFFCURVE",
"115 716 OFFCURVE",
"115 680 CURVE SMOOTH",
"115 60 LINE SMOOTH",
"115 24 OFFCURVE",
"89 9 OFFCURVE",
"40 25 CURVE",
"40 0 LINE"
);
},
{
closed = 1;
nodes = (
"385 -201 LINE",
"383 -191 OFFCURVE",
"382 -179 OFFCURVE",
"382 -165 CURVE SMOOTH",
"382 46 OFFCURVE",
"473 -11 OFFCURVE",
"542 2 CURVE",
"542 18 LINE",
"500 1 OFFCURVE",
"435 3 OFFCURVE",
"401 7 CURVE SMOOTH",
"377 10 LINE",
"375 10 LINE",
"372 9 LINE",
"348 7 LINE SMOOTH",
"314 4 OFFCURVE",
"249 1 OFFCURVE",
"207 18 CURVE",
"207 2 LINE",
"277 -11 OFFCURVE",
"367 46 OFFCURVE",
"367 -165 CURVE SMOOTH",
"367 -179 OFFCURVE",
"366 -191 OFFCURVE",
"364 -201 CURVE"
);
}
);
width = 751;
}
);
leftKerningGroup = H;
rightKerningGroup = H;
unicode = 040F;
},
{
glyphname = "Softsign-cy";
lastChange = "2020-03-13 10:31:54 +0000";
layers = (
{
guideLines = (
{
angle = 90;
position = "{40, 13}";
}
);
layerId = "8BDB995E-2F86-4134-8150-9944A684F6E9";
paths = (
{
closed = 1;
nodes = (
"299 0 LINE SMOOTH",
"428 0 OFFCURVE",
"572 72 OFFCURVE",
"572 242 CURVE SMOOTH",
"572 355 OFFCURVE",
"491 442 OFFCURVE",
"335 442 CURVE SMOOTH",
"301 442 OFFCURVE",
"279 440 OFFCURVE",
"252 442 CURVE",
"252 418 LINE",
"279 420 OFFCURVE",
"300 422 OFFCURVE",
"334 421 CURVE SMOOTH",
"443 418 OFFCURVE",
"491 372 OFFCURVE",
"491 228 CURVE SMOOTH",
"491 114 OFFCURVE",
"421 10 OFFCURVE",
"273 10 CURVE SMOOTH",
"233 10 OFFCURVE",
"190 17 OFFCURVE",
"190 114 CURVE SMOOTH",
"190 215 OFFCURVE",
"189 636 OFFCURVE",
"190 710 CURVE",
"115 710 LINE",
"115 60 LINE SMOOTH",
"114 24 OFFCURVE",
"89 9 OFFCURVE",
"40 25 CURVE",
"40 0 LINE"
);
},
{
closed = 1;
nodes = (
"291 321 LINE",
"291 334 LINE",
"264 336 OFFCURVE",
"267 373 OFFCURVE",
"267 394 CURVE SMOOTH",
"267 421 OFFCURVE",
"285 424 OFFCURVE",
"292 424 CURVE",
"292 441 LINE",
"252 441 LINE",
"252 418 LINE",
"252 321 LINE"
);
},
{
closed = 1;
nodes = (
"153 690 LINE",
"190 680 LINE",
"190 716 OFFCURVE",
"216 731 OFFCURVE",
"265 715 CURVE",
"265 740 LINE",
"40 740 LINE",
"40 715 LINE",
"89 731 OFFCURVE",
"115 716 OFFCURVE",
"115 680 CURVE"
);
}
);
width = 607;
}
);
leftKerningGroup = H;
leftMetricsKey = "=H";
rightKerningGroup = B;
rightMetricsKey = "=B";
unicode = 042C;
},
